<?xml version="1.0" standalone="no"?>
<!DOCTYPE svg PUBLIC "-//W3C//DTD SVG 1.1//EN" "http://www.w3.org/Graphics/SVG/1.1/DTD/svg11.dtd">
<svg xmlns="http://www.w3.org/2000/svg">
<defs >
<font id="NotoSansKR" horiz-adv-x="944" ><font-face
    font-family="Noto Sans KR Light"
    units-per-em="1000"
    panose-1="2 11 2 0 0 0 0 0 0 0"
    ascent="1160"
    descent="-288"
    alphabetic="0" />
<glyph unicode=" " horiz-adv-x="221" />
<glyph unicode="!" horiz-adv-x="295" d="M126 203L118 658L117 743H177L176 658L169 203H126ZM147 -13Q127 -13 112 2T96 41Q96 67 111 81T147 96Q168 96 183 82T198 41Q198 17 183 2T147 -13Z" />
<glyph unicode="&quot;" horiz-adv-x="415" d="M103 516L92 685L91 766H157L156 685L145 516H103ZM269 516L257 685L256 766H322L321 685L309 516H269Z" />
<glyph unicode="#" horiz-adv-x="535" d="M102 0L131 235H40V280H136L159 463H62V508H163L191 720H234L207 508H368L396 720H439L412 508H502V463H407L384 280H480V235H378L351 0H307L335 235H174L145 0H102ZM179 280H341L364 463H202L179 280Z" />
<glyph unicode="$" horiz-adv-x="535" d="M270 -13Q229 -13 191 -1T120 31T64 73L94 115Q126 86 170 62T270 38Q339 38 374 74T409 169Q409 213 392 244T347 296T285 334T218 369T156 409T110 464T93 544Q93 596 117 636T182 698T276 721Q340 721 379 698T451
640L417 605Q386 636 356 653T276 670Q220 670 186 636T151 548Q151 508 168 482T214 436T275 400T343 366T405 324T450 263T468 172Q468 116 443 75T373 10T270 -13ZM250 -122V3H297V-122H250ZM250 695V829H297V695H250Z" />
<glyph unicode="%" horiz-adv-x="897" d="M201 284Q153 284 117 311T62 389T43 515Q43 588 62 638T117 715T201 742Q250 742 286 716T341 639T360 515Q360 441 341 390T286 311T201 284ZM201 324Q251 324 280 373T310 515Q310 606 281 654T201 702Q151 702 121
654T91 515Q91 423 121 374T201 324ZM220 -13L626 742H673L268 -13H220ZM696 -13Q647 -13 612 13T557 91T537 217Q537 291 556 341T611 418T696 445Q744 445 779 418T834 341T854 217Q854 143 835 92T780 14T696 -13ZM696 27Q745 27 775 76T806 217Q806 309 776
357T696 405Q646 405 616 357T586 217Q586 126 616 77T696 27Z" />
<glyph unicode="&amp;" horiz-adv-x="645" d="M252 -13Q193 -13 145 12T68 81T40 186Q40 238 63 278T124 350T204 412T283 470T344 531T368 605Q368 628 361 649T337 683T292 697Q245 697 218 663T191 580Q191 525 215 464T281 342T372 227T473 131Q515 96 555
73T630 38L612 -13Q574 0 530 25T438 89Q382 136 329 196T233 321T165 453T139 578Q139 625 158 662T213 720T293 742Q354 742 387 704T420 608Q420 562 397 525T337 456T259 394T181 333T122 267T98 189Q98 143 119 109T177 55T258 36Q307 36 350 61T431 126Q477
178 509 243T563 385H619Q596 303 560 230T473 96Q430 48 376 18T252 -13Z" />
<glyph unicode="&apos;" horiz-adv-x="250" d="M103 516L92 685L91 766H157L156 685L145 516H103Z" />
<glyph unicode="(" horiz-adv-x="315" d="M242 -193Q174 -83 135 39T96 308Q96 454 135 576T242 810L277 791Q212 686 180 562T147 308Q147 178 179 54T277 -175L242 -193Z" />
<glyph unicode=")" horiz-adv-x="315" d="M73 -193L37 -175Q102 -70 135 54T168 308Q168 438 135 562T37 791L73 810Q142 699 180 577T219 308Q219 162 181 40T73 -193Z" />
<glyph unicode="*" horiz-adv-x="443" d="M147 502L115 525L176 625L74 665L87 703L193 674L201 789H241L249 675L356 703L368 665L266 625L328 525L295 502L222 594L147 502Z" />
<glyph unicode="+" horiz-adv-x="535" d="M242 120V342H37V389H242V611H293V389H498V342H293V120H242Z" />
<glyph unicode="," horiz-adv-x="250" d="M70 -176L53 -138Q93 -117 117 -82T141 0L128 69L168 14Q160 3 150 -1T129 -5Q108 -5 93 8T78 46Q78 70 93 83T130 96Q158 96 174 73T190 11Q190 -52 157 -100T70 -176Z" />
<glyph unicode="-" horiz-adv-x="333" d="M45 251V301H291V251H45Z" />
<glyph unicode="." horiz-adv-x="250" d="M125 -13Q105 -13 90 2T74 41Q74 67 89 81T125 96Q146 96 161 82T176 41Q176 17 161 2T125 -13Z" />
<glyph unicode="/" horiz-adv-x="394" d="M10 -177L339 787H386L58 -177H10Z" />
<glyph unicode="0" horiz-adv-x="535" d="M268 -13Q202 -13 154 28T79 154T53 367Q53 494 79 577T153 701T268 742Q334 742 382 701T456 577T482 367Q482 239 456 155T382 29T268 -13ZM268 37Q315 37 350 73T405 183T424 367Q424 475 405 548T351 657T268 693Q221
693 186 657T131 548T111 367Q111 257 130 184T185 74T268 37Z" />
<glyph unicode="1" horiz-adv-x="535" d="M92 0V51H258V643H129V683Q174 691 208 702T269 729H316V51H468V0H92Z" />
<glyph unicode="2" horiz-adv-x="535" d="M45 0V36Q169 142 244 229T355 391T390 532Q390 577 375 613T326 671T241 692Q194 692 153 667T79 602L42 637Q83 683 132 712T247 742Q311 742 356 716T425 644T449 533Q449 457 412 379T304 219T137 46Q167 48 197 50T257
52H485V0H45Z" />
<glyph unicode="3" horiz-adv-x="535" d="M257 -13Q201 -13 159 1T86 39T32 87L64 126Q96 93 141 66T256 38Q304 38 340 57T397 111T418 193Q418 242 394 279T316 336T176 356V406Q257 406 303 427T370 483T391 563Q391 621 354 656T254 692Q206 692 165 671T95
617L61 657Q99 692 146 717T255 742Q311 742 356 721T427 661T453 566Q453 495 415 450T319 386V381Q362 372 398 347T456 283T478 193Q478 130 449 84T369 12T257 -13Z" />
<glyph unicode="4" horiz-adv-x="535" d="M342 0V526Q342 551 343 586T347 647H342Q329 623 315 597T285 546L86 257H502V209H19V244L341 729H398V0H342Z" />
<glyph unicode="5" horiz-adv-x="535" d="M253 -13Q197 -13 155 1T83 37T28 82L61 123Q82 101 108 82T169 50T251 38Q297 38 336 61T398 129T421 232Q421 319 376 369T254 419Q215 419 186 407T125 373L87 396L112 729H445V677H164L143 433Q169 449 198 458T265
467Q325 467 374 443T453 367T482 234Q482 155 449 100T363 16T253 -13Z" />
<glyph unicode="6" horiz-adv-x="535" d="M293 -13Q240 -13 197 10T124 78T76 190T59 343Q59 454 80 530T138 653T222 721T321 742Q372 742 410 723T476 672L441 635Q418 662 387 677T322 692Q267 692 220 659T145 550T116 343Q116 251 135 182T194 74T294 36Q334
36 365 60T414 126T432 220Q432 273 417 314T369 379T284 402Q246 402 201 377T112 292L111 348Q136 379 165 401T226 436T291 448Q353 448 397 423T466 347T490 220Q490 152 463 100T391 17T293 -13Z" />
<glyph unicode="7" horiz-adv-x="535" d="M205 0Q210 109 223 200T261 372T324 527T417 677H48V729H488V694Q424 609 383 530T318 369T283 197T268 0H205Z" />
<glyph unicode="8" horiz-adv-x="535" d="M271 -13Q206 -13 155 12T74 81T45 181Q45 231 66 271T119 341T184 389V393Q145 419 115 460T84 559Q84 612 109 652T176 716T272 739Q333 739 376 714T442 646T465 548Q465 509 449 474T410 411T366 367V362Q397 344
425 319T471 258T489 172Q489 121 462 79T385 12T271 -13ZM323 383Q366 419 389 460T412 546Q412 586 396 619T348 672T271 692Q214 692 177 655T140 559Q140 510 166 478T235 424T323 383ZM272 34Q320 34 356 52T411 102T431 173Q431 215 413 244T366 295T298
334T220 367Q168 336 134 290T100 184Q100 142 122 108T183 54T272 34Z" />
<glyph unicode="9" horiz-adv-x="535" d="M222 -13Q168 -13 130 6T61 57L96 95Q121 67 153 53T223 38Q262 38 298 56T361 118T405 231T421 405Q421 492 402 557T343 658T242 694Q204 694 173 670T123 604T104 509Q104 457 119 416T167 350T251 326Q291 326 336
352T423 438L425 381Q401 352 372 329T311 293T243 280Q182 280 138 306T70 384T46 509Q46 577 73 630T145 712T244 742Q297 742 340 720T413 656T461 550T478 405Q478 289 457 209T400 80T318 9T222 -13Z" />
<glyph unicode=":" horiz-adv-x="250" d="M125 405Q105 405 90 419T74 459Q74 485 89 499T125 514Q146 514 161 500T176 459Q176 434 161 420T125 405ZM125 -13Q105 -13 90 2T74 41Q74 67 89 81T125 96Q146 96 161 82T176 41Q176 17 161 2T125 -13Z" />
<glyph unicode=";" horiz-adv-x="250" d="M125 405Q105 405 90 419T74 459Q74 485 89 499T125 514Q146 514 161 500T176 459Q176 434 161 420T125 405ZM70 -176L53 -138Q93 -117 117 -82T141 0L128 69L168 14Q160 3 150 -1T129 -5Q108 -5 93 8T78 46Q78 70 93
83T130 96Q158 96 174 73T190 11Q190 -52 157 -100T70 -176Z" />
<glyph unicode="&lt;" horiz-adv-x="535" d="M498 158L37 341V395L498 577V523L246 427L98 369V365L246 309L498 212V158Z" />
<glyph unicode="=" horiz-adv-x="535" d="M37 457V503H498V457H37ZM37 228V275H498V228H37Z" />
<glyph unicode="&gt;" horiz-adv-x="535" d="M37 158V212L289 309L437 365V369L289 427L37 523V577L498 395V341L37 158Z" />
<glyph unicode="?" horiz-adv-x="451" d="M179 203Q172 257 186 299T224 376T275 442T319 507T337 581Q337 614 324 642T285 687T216 705Q176 705 140 687T76 636L41 668Q74 705 118 730T221 756Q276 756 315 734T375 673T396 585Q396 539 378 503T333 433T281
366T240 293T232 203H179ZM209 -13Q189 -13 174 2T159 41Q159 67 174 81T209 96Q230 96 245 82T261 41Q261 17 246 2T209 -13Z" />
<glyph unicode="@" horiz-adv-x="910" d="M433 -164Q353 -164 285 -139T165 -63T86 59T57 224Q57 333 93 421T191 573T333 670T502 704Q610 704 688 660T810 536T853 350Q853 279 834 225T784 135T717 79T645 60Q601 60 571 80T537 144H535Q506 113 472 90T399
67Q347 67 309 106T271 219Q271 261 285 304T326 386T391 447T479 470Q508 470 531 457T570 417H572L583 461H625L585 250Q549 105 650 105Q686 105 722 133T782 216T806 346Q806 417 786 474T725 573T628 637T497 660Q422 660 352 630T225 542T137 405T104 227Q104
146 128 82T196 -26T302 -95T437 -119Q491 -119 537 -105T621 -67L642 -106Q594 -134 542 -149T433 -164ZM409 112Q434 112 463 129T524 185L558 372Q539 402 521 413T478 425Q442 425 413 407T363 358T332 293T321 223Q321 162 346 137T409 112Z" />
<glyph unicode="A" horiz-adv-x="588" d="M8 0L262 729H324L580 0H516L374 425Q353 489 334 549T295 676H291Q272 609 253 549T212 425L68 0H8ZM127 244V293H457V244H127Z" />
<glyph unicode="B" horiz-adv-x="642" d="M106 0V729H307Q381 729 435 711T519 653T550 552Q550 514 537 482T500 427T439 393V388Q508 377 551 333T594 212Q594 142 560 95T465 24T322 0H106ZM166 411H288Q397 411 443 447T490 546Q490 619 441 649T294 680H166V411ZM166
50H309Q414 50 474 89T535 213Q535 290 476 326T309 363H166V50Z" />
<glyph unicode="C" horiz-adv-x="627" d="M368 -13Q301 -13 245 13T147 89T83 208T60 365Q60 453 83 522T148 641T247 716T374 742Q439 742 487 715T566 654L532 615Q503 648 464 668T375 688Q297 688 241 649T153 538T122 366Q122 267 152 194T239 81T371 41Q426
41 469 63T552 129L586 91Q544 42 492 15T368 -13Z" />
<glyph unicode="D" horiz-adv-x="672" d="M106 0V729H277Q390 729 464 685T574 560T611 367Q611 255 575 173T465 45T280 0H106ZM166 51H271Q367 51 429 90T520 201T549 367Q549 462 520 532T429 640T271 678H166V51Z" />
<glyph unicode="E" horiz-adv-x="573" d="M106 0V729H509V677H166V413H454V361H166V52H520V0H106Z" />
<glyph unicode="F" horiz-adv-x="532" d="M106 0V729H508V677H166V397H455V346H166V0H106Z" />
<glyph unicode="G" horiz-adv-x="673" d="M376 -13Q283 -13 212 33T100 165T60 365Q60 453 83 522T150 641T253 716T385 742Q460 742 508 714T586 654L552 615Q524 645 485 666T386 688Q305 688 246 649T155 538T122 366Q122 267 153 194T242 81T382 41Q429 41
470 55T537 93V312H368V363H595V69Q560 33 505 10T376 -13Z" />
<glyph unicode="H" horiz-adv-x="710" d="M106 0V729H166V413H544V729H605V0H544V361H166V0H106Z" />
<glyph unicode="I" horiz-adv-x="272" d="M106 0V729H166V0H106Z" />
<glyph unicode="J" horiz-adv-x="516" d="M227 -13Q165 -13 119 15T42 96L87 127Q114 80 147 61T224 41Q290 41 321 81T353 208V729H413V202Q413 142 395 94T336 16T227 -13Z" />
<glyph unicode="K" horiz-adv-x="623" d="M106 0V729H166V332H168L510 729H581L349 458L614 0H546L309 411L166 246V0H106Z" />
<glyph unicode="L" horiz-adv-x="522" d="M106 0V729H166V52H498V0H106Z" />
<glyph unicode="M" horiz-adv-x="787" d="M106 0V729H187L336 310Q350 271 364 231T393 150H397Q411 190 424 230T451 310L601 729H681V0H624V462Q624 493 625 527T628 597T631 663H627L570 500L417 78H369L215 500L157 663H153Q156 633 157 598T160 528T161 462V0H106Z" />
<glyph unicode="N" horiz-adv-x="707" d="M106 0V729H168L466 228L548 81H553Q549 135 547 189T544 297V729H601V0H539L241 502L160 648H156Q158 595 160 543T163 437V0H106Z" />
<glyph unicode="O" horiz-adv-x="726" d="M363 -13Q274 -13 206 34T99 166T60 367Q60 483 99 567T206 696T363 742Q451 742 519 696T626 567T665 367Q665 251 627 166T520 34T363 -13ZM363 41Q435 41 489 81T573 195T603 367Q603 466 573 538T489 649T363 688Q291
688 237 649T152 538T122 367Q122 268 152 195T236 82T363 41Z" />
<glyph unicode="P" horiz-adv-x="612" d="M106 0V729H295Q378 729 437 709T529 645T561 524Q561 451 530 404T440 332T299 308H166V0H106ZM166 359H287Q395 359 447 397T500 524Q500 613 446 646T283 679H166V359Z" />
<glyph unicode="Q" horiz-adv-x="726" d="M363 -13Q274 -13 206 34T99 166T60 367Q60 483 99 567T206 696T363 742Q451 742 519 696T626 567T665 367Q665 251 627 166T520 34T363 -13ZM363 38Q435 38 489 78T573 193T603 367Q603 466 573 538T489 649T363 688Q291
688 237 649T152 538T122 367Q122 267 152 193T236 79T363 38ZM578 -175Q513 -175 463 -152T379 -89T326 1L391 4Q405 -36 432 -64T499 -106T585 -121Q609 -121 627 -119T658 -111L671 -161Q657 -166 632 -170T578 -175Z" />
<glyph unicode="R" horiz-adv-x="608" d="M106 0V729H319Q392 729 446 710T531 648T562 534Q562 467 532 421T447 352T319 329H166V0H106ZM166 379H306Q400 379 450 417T500 534Q500 614 450 646T306 679H166V379ZM509 0L305 346L360 368L577 0H509Z" />
<glyph unicode="S" horiz-adv-x="580" d="M299 -13Q220 -13 157 17T51 96L88 138Q128 94 183 68T299 41Q380 41 427 80T474 181Q474 225 457 251T410 295T345 328L236 377Q204 391 170 413T112 470T88 559Q88 614 116 654T193 718T304 742Q370 742 422 717T509
654L476 615Q444 648 401 668T304 688Q234 688 192 655T149 564Q149 523 169 497T218 455T274 427L382 379Q424 361 458 337T514 277T535 185Q535 129 506 84T424 13T299 -13Z" />
<glyph unicode="T" horiz-adv-x="584" d="M261 0V677H32V729H551V677H322V0H261Z" />
<glyph unicode="U" horiz-adv-x="705" d="M352 -13Q303 -13 259 1T179 50T124 141T104 284V729H163V288Q163 194 189 140T259 63T352 41Q404 41 447 63T517 139T544 288V729H602V284Q602 199 582 142T527 50T446 2T352 -13Z" />
<glyph unicode="V" horiz-adv-x="550" d="M243 0L4 729H67L199 310Q219 244 235 188T274 66H278Q300 132 317 188T355 310L485 729H546L309 0H243Z" />
<glyph unicode="W" horiz-adv-x="857" d="M193 0L30 729H92L180 307Q193 248 205 189T229 69H233Q247 129 261 188T289 307L400 729H459L571 307Q585 248 599 189T627 69H632Q644 129 655 188T678 307L767 729H825L665 0H596L469 487Q459 531 450 570T431 652H427Q417
609 407 570T386 487L261 0H193Z" />
<glyph unicode="X" horiz-adv-x="541" d="M19 0L236 377L33 729H100L214 521Q229 496 242 473T273 419H277Q294 450 305 473T331 521L446 729H509L306 374L523 0H458L335 218Q320 245 304 273T268 335H264Q247 301 232 273T202 218L81 0H19Z" />
<glyph unicode="Y" horiz-adv-x="502" d="M221 0V292L2 729H66L172 506Q192 466 210 427T249 347H253Q274 388 294 427T331 506L439 729H500L280 292V0H221Z" />
<glyph unicode="Z" horiz-adv-x="596" d="M54 0V36L466 677H91V729H541V694L129 52H545V0H54Z" />
<glyph unicode="[" horiz-adv-x="315" d="M108 -168V785H289V748H153V-132H289V-168H108Z" />
<glyph unicode="\" horiz-adv-x="394" d="M336 -177L8 787H55L384 -177H336Z" />
<glyph unicode="]" horiz-adv-x="315" d="M26 -168V-132H162V748H26V785H207V-168H26Z" />
<glyph unicode="^" horiz-adv-x="535" d="M72 320L239 743H296L463 320H409L326 538L270 685H265L209 538L126 320H72Z" />
<glyph unicode="_" horiz-adv-x="554" d="M13 -132V-86H540V-132H13Z" />
<glyph unicode="`" horiz-adv-x="594" d="M326 635L164 803L206 841L357 665L326 635Z" />
<glyph unicode="a" horiz-adv-x="547" d="M218 -13Q175 -13 140 3T84 52T63 135Q63 223 144 269T402 335Q404 375 395 411T359 472T281 496Q229 496 186 476T113 435L88 478Q108 492 138 508T207 535T288 547Q352 547 390 520T444 445T461 338V0H413L407 68H403Q364
35 317 11T218 -13ZM230 37Q274 37 315 57T402 119V292Q298 281 236 260T148 209T121 138Q121 82 153 60T230 37Z" />
<glyph unicode="b" horiz-adv-x="603" d="M314 -13Q277 -13 235 5T157 54H154L147 0H100V795H158V568L155 465Q195 499 241 523T335 547Q406 547 453 513T525 419T549 275Q549 184 516 120T430 21T314 -13ZM310 38Q361 38 401 67T464 150T487 274Q487 338 471
388T420 467T324 496Q286 496 245 475T158 412V103Q199 67 239 53T310 38Z" />
<glyph unicode="c" horiz-adv-x="499" d="M299 -13Q230 -13 175 20T88 115T56 266Q56 355 90 418T181 514T303 547Q357 547 394 527T459 482L426 442Q401 465 372 480T305 496Q251 496 209 467T142 387T117 266Q117 198 140 147T206 67T304 38Q345 38 380 55T442
97L471 56Q436 26 393 7T299 -13Z" />
<glyph unicode="d" horiz-adv-x="605" d="M277 -13Q210 -13 161 19T84 113T56 266Q56 352 89 415T175 512T292 547Q340 547 376 530T450 482L447 579V795H506V0H457L451 68H449Q416 35 373 11T277 -13ZM287 38Q330 38 369 59T447 122V430Q407 466 371 481T297
496Q247 496 207 466T142 384T118 266Q118 197 137 146T195 66T287 38Z" />
<glyph unicode="e" horiz-adv-x="538" d="M305 -13Q236 -13 180 20T90 116T56 266Q56 331 75 383T127 471T203 527T290 547Q354 547 400 518T471 433T496 299Q496 288 496 278T493 256H115Q117 192 141 143T209 65T310 36Q353 36 387 48T451 82L474 39Q442 19
402 3T305 -13ZM115 303H442Q442 399 401 448T290 497Q247 497 209 474T146 408T115 303Z" />
<glyph unicode="f" horiz-adv-x="298" d="M109 0V645Q109 698 124 734T170 789T246 808Q266 808 286 803T326 791L312 743Q281 759 249 759Q206 759 187 729T167 641V0H109ZM35 484V528L110 534H288V484H35Z" />
<glyph unicode="g" horiz-adv-x="544" d="M275 -254Q208 -254 159 -236T83 -186T56 -108Q56 -73 77 -40T136 19V24Q115 36 102 57T88 110Q88 145 108 170T147 208V212Q121 234 100 271T78 358Q78 414 103 456T172 523T268 547Q291 547 309 543T341 534H522V485H402Q427
464 442 431T457 357Q457 302 432 260T364 193T268 169Q247 169 224 175T183 191Q166 178 154 160T141 117Q141 89 162 70T241 50H354Q444 50 487 21T531 -73Q531 -119 500 -161T411 -228T275 -254ZM268 214Q304 214 334 232T382 282T401 358Q401 402 383 434T335
483T268 500Q232 500 202 483T155 435T137 358Q137 315 155 283T203 232T268 214ZM281 -209Q340 -209 382 -190T449 -142T473 -81Q473 -37 442 -20T353 -2H243Q234 -2 216 0T176 7Q142 -17 127 -45T111 -101Q111 -149 155 -179T281 -209Z" />
<glyph unicode="h" horiz-adv-x="588" d="M100 0V795H158V568L157 451Q197 492 240 519T339 547Q422 547 461 496T501 341V0H443V333Q443 416 416 455T325 495Q279 495 242 471T158 399V0H100Z" />
<glyph unicode="i" horiz-adv-x="257" d="M100 0V534H158V0H100ZM130 658Q109 658 97 671T84 707Q84 728 96 741T130 754Q150 754 163 741T176 707Q176 685 163 672T130 658Z" />
<glyph unicode="j" horiz-adv-x="257" d="M33 -250Q13 -250 -6 -246T-37 -237L-25 -192Q-15 -195 0 -198T30 -202Q74 -202 87 -170T100 -88V534H159V-90Q159 -142 146 -178T105 -232T33 -250ZM128 658Q108 658 95 671T82 707Q82 728 95 741T128 754Q148 754 161
741T175 707Q175 685 162 672T128 658Z" />
<glyph unicode="k" horiz-adv-x="521" d="M100 0V795H158V220H160L415 534H481L307 321L509 0H445L273 280L158 144V0H100Z" />
<glyph unicode="l" horiz-adv-x="266" d="M171 -13Q147 -13 131 -3T108 28T100 79V795H158V73Q158 55 165 47T182 38Q185 38 189 38T201 40L210 -7Q202 -9 194 -11T171 -13Z" />
<glyph unicode="m" horiz-adv-x="904" d="M100 0V534H148L155 452H157Q193 492 236 519T325 547Q389 547 423 518T472 439Q518 488 562 517T653 547Q732 547 772 496T812 341V0H754V333Q754 416 726 455T639 495Q603 495 566 471T485 399V0H427V333Q427 416 399
455T312 495Q277 495 239 471T158 399V0H100Z" />
<glyph unicode="n" horiz-adv-x="592" d="M100 0V534H148L155 452H157Q197 492 240 519T339 547Q422 547 461 496T501 341V0H443V333Q443 416 416 455T325 495Q279 495 242 471T158 399V0H100Z" />
<glyph unicode="o" horiz-adv-x="594" d="M297 -13Q233 -13 178 20T89 115T56 266Q56 355 89 418T177 514T297 547Q345 547 389 528T466 473T519 385T538 266Q538 178 505 116T417 20T297 -13ZM297 38Q349 38 390 66T454 146T478 266Q478 335 455 386T390 467T297
496Q245 496 204 467T140 387T117 266Q117 198 140 147T204 67T297 38Z" />
<glyph unicode="p" horiz-adv-x="605" d="M100 -237V534H148L155 468H157Q196 499 241 523T335 547Q406 547 453 513T525 419T549 275Q549 184 516 120T430 21T314 -13Q277 -13 237 4T157 52L158 -46V-237H100ZM310 38Q361 38 401 67T464 150T487 274Q487 338
471 388T420 467T324 496Q286 496 245 475T158 412V103Q201 67 240 53T310 38Z" />
<glyph unicode="q" horiz-adv-x="605" d="M447 -237V-35L450 69Q415 35 372 11T277 -13Q210 -13 161 19T84 113T56 266Q56 352 89 415T175 512T292 547Q340 547 376 531T449 484H451L458 534H506V-237H447ZM287 38Q330 38 369 59T447 122V430Q407 466 371 481T297
496Q247 496 207 466T142 384T118 266Q118 197 137 146T195 66T287 38Z" />
<glyph unicode="r" horiz-adv-x="359" d="M100 0V534H148L155 435H157Q184 484 223 515T308 547Q324 547 337 545T362 536L350 484Q337 488 327 490T301 493Q266 493 227 463T158 358V0H100Z" />
<glyph unicode="s" horiz-adv-x="452" d="M231 -13Q173 -13 122 8T35 60L67 102Q101 74 140 55T233 36Q294 36 325 65T356 136Q356 168 337 189T288 225T227 250Q188 265 151 282T89 329T64 403Q64 443 84 475T144 527T239 547Q283 547 324 531T394 490L364 450Q337
471 307 484T238 498Q179 498 151 470T122 406Q122 377 139 358T184 327T242 302Q274 290 304 278T358 248T398 204T413 139Q413 98 392 63T331 8T231 -13Z" />
<glyph unicode="t" horiz-adv-x="352" d="M250 -13Q197 -13 168 7T126 65T113 151V484H31V528L115 534L122 687H171V534H324V484H171V147Q171 97 188 67T260 37Q275 37 293 41T325 53L339 7Q316 -1 293 -7T250 -13Z" />
<glyph unicode="u" horiz-adv-x="589" d="M253 -13Q170 -13 131 38T91 193V534H150V200Q150 117 177 78T266 39Q312 39 349 64T432 143V534H491V0H441L436 88H434Q394 43 352 15T253 -13Z" />
<glyph unicode="v" horiz-adv-x="489" d="M211 0L13 534H75L191 206Q204 168 217 129T244 52H248Q261 89 274 128T301 206L417 534H475L280 0H211Z" />
<glyph unicode="w" horiz-adv-x="767" d="M182 0L26 534H88L181 197Q190 159 198 124T215 52H220Q230 89 239 124T258 197L352 534H417L512 197Q522 159 531 124T551 52H555Q564 89 573 124T592 197L682 534H740L590 0H515L425 321Q414 359 405 397T385 474H380Q371
435 362 397T340 319L252 0H182Z" />
<glyph unicode="x" horiz-adv-x="460" d="M15 0L195 278L30 534H94L177 402Q190 380 204 359T233 313H237Q250 337 263 358T290 402L369 534H430L265 273L445 0H380L289 141Q276 166 261 190T228 238H223Q208 215 194 191T164 141L78 0H15Z" />
<glyph unicode="y" horiz-adv-x="490" d="M85 -240Q70 -240 55 -237T29 -229L41 -180Q49 -183 61 -185T84 -188Q133 -188 165 -150T217 -53L231 -7L13 534H75L199 207Q212 172 227 133T256 57H261Q273 93 285 132T309 207L418 534H477L269 -62Q254 -108 230 -148T170
-214T85 -240Z" />
<glyph unicode="z" horiz-adv-x="453" d="M31 0V31L339 484H65V534H414V502L106 50H424V0H31Z" />
<glyph unicode="{" horiz-adv-x="315" d="M248 -168Q207 -168 180 -156T139 -113T125 -26Q125 15 127 52T131 125T134 199Q134 222 126 242T98 276T39 289V328Q78 328 98 341T126 374T134 415Q134 455 132 491T127 564T125 641Q125 726 155 755T248 785H289V748H256Q207
748 191 721T174 636Q174 583 177 535T180 426Q180 377 168 349T121 310V306Q155 296 167 267T180 189Q180 130 177 81T174 -21Q174 -77 190 -104T256 -132H289V-168H248Z" />
<glyph unicode="|" horiz-adv-x="254" d="M105 -277V831H149V-277H105Z" />
<glyph unicode="}" horiz-adv-x="315" d="M26 -168V-132H58Q108 -132 125 -105T142 -21Q142 32 139 81T135 189Q135 238 147 267T193 306V310Q160 320 148 348T135 426Q135 486 138 534T142 636Q142 694 125 721T58 748H26V785H66Q129 785 160 756T191 641Q191
601 189 564T184 491T181 415Q181 394 189 374T217 341T276 328V289Q238 289 218 276T189 243T181 199Q181 161 183 125T188 52T191 -26Q191 -110 160 -139T66 -168H26Z" />
<glyph unicode="~" horiz-adv-x="535" d="M367 293Q335 293 309 307T259 341T213 376T167 391Q142 391 121 376T79 322L44 345Q69 393 102 415T169 438Q201 438 227 423T277 389T322 355T369 340Q393 340 414 355T456 409L491 384Q466 338 433 316T367 293Z" />
<glyph unicode="&#xa0;" horiz-adv-x="221" />
<glyph unicode="&#xa1;" horiz-adv-x="295" d="M117 -209L118 -125L126 330H169L176 -125L177 -209H117ZM147 437Q127 437 112 452T96 493Q96 517 111 532T147 547Q168 547 183 532T198 493Q198 467 183 452T147 437Z" />
<glyph unicode="&#xa2;" horiz-adv-x="535" d="M316 85Q244 85 188 115T100 204T68 344Q68 428 102 485T194 573T318 603Q372 603 410 583T475 537L444 500Q420 523 389 538T321 553Q265 553 221 527T152 454T127 344Q127 282 151 235T218 162T320 136Q362 136
397 153T458 194L487 156Q452 125 409 105T316 85ZM284 -32V723H327V-32H284Z" />
<glyph unicode="&#xa3;" horiz-adv-x="535" d="M62 0V36Q122 69 150 126T179 248Q179 296 166 342T138 435T124 529Q124 589 147 631T214 697T316 721Q373 721 413 698T478 641L441 606Q420 634 390 652T317 670Q252 670 217 630T182 529Q182 482 195 439T221
349T234 247Q234 180 214 136T157 56V52H480V0H62ZM59 323V364L133 367H398V323H59Z" />
<glyph unicode="&#xa4;" horiz-adv-x="535" d="M66 123L33 158L105 233Q64 286 64 364Q64 443 105 497L33 572L66 607L140 531Q194 578 268 578Q340 578 395 531L469 607L502 572L429 497Q449 471 460 438T471 364Q471 325 460 292T430 233L502 158L469 123L394
199Q368 176 336 164T268 151Q194 151 140 199L66 123ZM268 198Q307 198 340 219T394 277T415 364Q415 413 395 450T341 509T268 531Q228 531 194 510T140 451T120 364Q120 315 140 278T194 219T268 198Z" />
<glyph unicode="&#xa5;" horiz-adv-x="535" d="M238 0V182H54V222H238V299H54V340H220L31 708H94L194 499Q212 462 229 425T266 348H270Q290 388 307 425T343 499L443 708H504L313 340H481V299H296V222H481V182H296V0H238Z" />
<glyph unicode="&#xa6;" horiz-adv-x="254" d="M105 311V831H149V311H105ZM105 -277V242H149V-277H105Z" />
<glyph unicode="&#xa7;" horiz-adv-x="1000" d="M664 678Q645 693 601 710T499 728Q460 728 430 712T383 673T366 627Q366 592 389 571T450 535T535 509Q594 494 635 473T697 421T719 350Q719 309 702 271T658 210Q673 197 684 171T696 113Q696 79 681 49T639
-5T572 -42T485 -56Q422 -56 379 -42T308 -5L334 37Q352 20 390 4T489 -13Q562 -13 603 22T644 107Q644 137 630 158T579 199T472 238Q404 258 362 280T300 333T280 404Q280 429 296 463T351 531Q332 545 323 570T313 616Q313 658 336 693T404 749T513 771Q574
771 619 755T687 722L664 678ZM331 407Q331 393 335 379T355 351T400 321T482 290Q528 275 556 265T601 247T626 233Q646 253 657 281T668 336Q668 371 648 394T594 432T522 459T447 481T384 507Q355 482 343 457T331 407Z" />
<glyph unicode="&#xa8;" horiz-adv-x="594" d="M197 660Q178 660 166 672T153 704Q153 722 165 734T197 747Q216 747 228 735T241 704Q241 685 229 673T197 660ZM397 660Q378 660 366 672T353 704Q353 722 365 734T397 747Q416 747 428 735T441 704Q441 685 429
673T397 660Z" />
<glyph unicode="&#xa9;" horiz-adv-x="822" d="M411 -12Q339 -12 275 14T162 88T85 205T56 357Q56 441 84 508T162 624T275 697T411 723Q482 723 546 698T660 624T737 509T766 357Q766 273 738 205T660 89T547 14T411 -12ZM411 24Q474 24 530 48T630 116T699 221T724
357Q724 431 699 491T631 596T531 663T411 687Q348 687 291 664T191 596T123 492T98 357Q98 283 123 222T191 116T291 48T411 24ZM417 138Q364 138 320 164T249 239T222 357Q222 421 250 467T324 539T422 565Q468 565 499 548T557 503L528 471Q504 494 480 506T423
519Q358 519 317 475T276 357Q276 276 315 230T420 183Q459 183 488 199T545 237L569 202Q538 176 504 157T417 138Z" />
<glyph unicode="&#xaa;" horiz-adv-x="375" d="M153 438Q106 438 76 465T45 540Q45 598 99 629T271 671Q271 711 256 739T197 768Q165 768 132 755T79 727L61 761Q84 777 121 792T202 808Q267 808 293 770T319 667V447H282L274 489H270Q247 470 218 454T153 438ZM166
478Q190 478 216 490T271 530V638Q173 627 133 604T93 543Q93 510 113 494T166 478Z" />
<glyph unicode="&#xab;" horiz-adv-x="449" d="M200 78L48 255V303L200 480L230 454L95 279L230 102L200 78ZM359 78L208 255V303L359 480L389 454L255 279L389 102L359 78Z" />
<glyph unicode="&#xac;" horiz-adv-x="535" d="M446 120V342H37V389H498V120H446Z" />
<glyph unicode="&#xad;" horiz-adv-x="333" d="M45 251V301H291V251H45Z" />
<glyph unicode="&#xae;" horiz-adv-x="449" d="M225 358Q170 358 124 385T49 460T21 573Q21 637 49 686T123 762T225 789Q280 789 326 762T400 686T428 573Q428 508 401 460T327 385T225 358ZM225 391Q271 391 309 414T369 479T392 573Q392 626 370 667T309 732T225
756Q179 756 141 732T80 667T58 573Q58 520 80 479T140 415T225 391ZM149 463V691H227Q259 691 285 676T311 619Q311 598 299 581T268 558L322 463H279L237 546H186V463H149ZM186 577H217Q241 577 256 586T272 617Q272 636 261 647T220 658H186V577Z" />
<glyph unicode="&#xaf;" horiz-adv-x="594" d="M159 670V716H436V670H159Z" />
<glyph unicode="&#xb0;" horiz-adv-x="350" d="M175 490Q142 490 112 506T64 553T46 624Q46 666 64 696T112 742T175 758Q209 758 238 742T286 696T304 624Q304 583 286 553T239 507T175 490ZM175 529Q214 529 238 556T263 624Q263 666 239 693T175 720Q136 720
112 693T87 624Q87 583 111 556T175 529Z" />
<glyph unicode="&#xb1;" horiz-adv-x="1000" d="M868 463H525V175H475V463H132V512H475V800H525V512H868V463ZM870 73V23H132V73H870Z" />
<glyph unicode="&#xb2;" horiz-adv-x="403" d="M62 447V477Q135 544 181 591T250 676T273 749Q273 796 248 823T180 851Q151 851 125 831T81 782L51 811Q72 845 108 868T186 892Q248 892 285 858T322 755Q322 711 299 671T236 587T141 490H347V447H62Z" />
<glyph unicode="&#xb3;" horiz-adv-x="403" d="M197 434Q147 434 107 458T43 516L79 543Q99 513 129 494T197 474Q237 474 265 497T294 563Q294 605 255 627T146 649V683Q209 683 243 710T277 772Q277 808 253 830T188 852Q163 852 138 836T93 794L61 822Q85 853
118 872T193 892Q230 892 260 879T309 840T327 778Q327 738 303 711T244 669Q283 661 313 634T344 561Q344 522 325 494T272 450T197 434Z" />
<glyph unicode="&#xb4;" horiz-adv-x="594" d="M268 635L237 665L389 841L431 803L268 635Z" />
<glyph unicode="&#xb5;" horiz-adv-x="607" d="M100 -199V534H158V200Q158 123 184 81T271 39Q299 39 325 47T378 80T435 158V534H494Q494 457 493 380T492 228T491 78Q491 58 500 48T525 38Q533 38 540 39T557 44L565 -2Q556 -7 544 -10T515 -13Q474 -13 458
13T439 97H437Q404 41 362 15T273 -12Q234 -12 204 0T152 51Q152 8 152 -24T153 -84T155 -138T159 -199H100Z" />
<glyph unicode="&#xb6;" horiz-adv-x="1000" d="M487 291Q446 291 404 304T326 345T267 413T245 511Q245 554 259 598T307 678T402 737T556 759Q606 759 633 757T678 751V-58H631V713H544V-58H497V291H487Z" />
<glyph unicode="&#xb7;" horiz-adv-x="542" d="M266 304Q246 304 231 319T215 358Q215 384 230 399T266 414Q285 414 301 399T317 358Q317 334 301 319T266 304Z" />
<glyph unicode="&#xb8;" horiz-adv-x="594" d="M219 -245L212 -208Q282 -204 308 -190T334 -151Q334 -127 315 -115T248 -95L295 2H338L305 -72Q342 -81 363 -98T384 -148Q384 -193 341 -216T219 -245Z" />
<glyph unicode="&#xb9;" horiz-adv-x="403" d="M195 447V802H103V836Q135 843 158 853T201 879H243V447H195Z" />
<glyph unicode="&#xba;" horiz-adv-x="400" d="M199 438Q154 438 117 460T58 524T35 623Q35 682 57 723T117 786T199 808Q244 808 281 786T340 723T362 623Q362 566 340 524T281 460T199 438ZM199 479Q251 479 281 519T312 623Q312 688 282 728T199 768Q148 768
116 728T84 623Q84 560 116 520T199 479Z" />
<glyph unicode="&#xbb;" horiz-adv-x="449" d="M89 78L59 102L195 279L59 454L89 480L242 303V255L89 78ZM250 78L220 102L354 279L220 454L250 480L402 303V255L250 78Z" />
<glyph unicode="&#xbc;" horiz-adv-x="851" d="M171 297V652H78V686Q111 693 134 703T177 729H218V297H171ZM197 -13L603 742H650L244 -13H197ZM694 0V255L699 372H694L634 280L556 162H804V124H499V149L692 432H739V0H694Z" />
<glyph unicode="&#xbd;" horiz-adv-x="876" d="M171 297V652H78V686Q111 693 134 703T177 729H218V297H171ZM172 -13L578 742H625L219 -13H172ZM536 0V31Q608 97 654 144T724 229T747 303Q747 349 722 376T654 403Q625 403 600 384T556 335L525 364Q545 398 581
421T660 445Q721 445 758 411T796 308Q796 264 773 223T709 139T615 43H821V0H536Z" />
<glyph unicode="&#xbe;" horiz-adv-x="870" d="M197 284Q146 284 106 309T43 367L79 394Q99 364 129 344T196 324Q236 324 264 347T293 413Q293 455 254 477T145 500V534Q208 534 242 560T276 623Q276 658 252 680T187 702Q162 702 137 686T92 645L61 673Q85 703
117 722T193 742Q229 742 259 729T308 690T326 628Q326 588 303 561T244 519Q283 511 313 484T343 411Q343 372 323 344T271 300T197 284ZM247 -13L653 742H700L293 -13H247ZM714 0V255L719 372H714L654 280L576 162H824V124H519V149L711 432H759V0H714Z" />
<glyph unicode="&#xbf;" horiz-adv-x="451" d="M230 -222Q176 -222 137 -200T76 -139T55 -51Q55 -6 73 30T118 100T170 167T211 241T219 330H272Q279 276 265 234T227 158T176 91T132 26T114 -47Q114 -80 127 -109T167 -155T235 -172Q275 -172 311 -154T375 -103L411
-135Q377 -171 333 -196T230 -222ZM242 437Q221 437 206 452T191 493Q191 517 206 532T242 547Q263 547 278 532T293 493Q293 467 278 452T242 437Z" />
<glyph unicode="&#xc0;" horiz-adv-x="588" d="M8 0L262 729H324L580 0H516L374 425Q353 489 334 549T295 676H291Q272 609 253 549T212 425L68 0H8ZM127 244V293H457V244H127ZM315 780L163 905L200 948L342 810L315 780Z" />
<glyph unicode="&#xc1;" horiz-adv-x="588" d="M8 0L262 729H324L580 0H516L374 425Q353 489 334 549T295 676H291Q272 609 253 549T212 425L68 0H8ZM127 244V293H457V244H127ZM272 780L245 810L387 948L423 905L272 780Z" />
<glyph unicode="&#xc2;" horiz-adv-x="588" d="M8 0L262 729H324L580 0H516L374 425Q353 489 334 549T295 676H291Q272 609 253 549T212 425L68 0H8ZM127 244V293H457V244H127ZM167 781L141 805L264 930H323L446 805L420 781L296 889H291L167 781Z" />
<glyph unicode="&#xc3;" horiz-adv-x="588" d="M8 0L262 729H324L580 0H516L374 425Q353 489 334 549T295 676H291Q272 609 253 549T212 425L68 0H8ZM127 244V293H457V244H127ZM379 793Q347 793 325 806T285 835T250 865T209 878Q186 878 170 857T149 797L108
801Q111 854 136 890T208 926Q240 926 262 913T303 883T338 853T378 840Q401 840 416 862T437 922L479 919Q477 865 451 829T379 793Z" />
<glyph unicode="&#xc4;" horiz-adv-x="588" d="M8 0L262 729H324L580 0H516L374 425Q353 489 334 549T295 676H291Q272 609 253 549T212 425L68 0H8ZM127 244V293H457V244H127ZM183 801Q166 801 154 812T141 844Q141 864 153 876T183 888Q202 888 215 876T228
844Q228 824 215 813T183 801ZM403 801Q385 801 372 812T359 844Q359 864 372 876T403 888Q422 888 434 876T447 844Q447 824 435 813T403 801Z" />
<glyph unicode="&#xc5;" horiz-adv-x="588" d="M8 0L262 729H324L580 0H516L374 425Q353 489 334 549T295 676H291Q272 609 253 549T212 425L68 0H8ZM127 244V293H457V244H127ZM294 774Q251 774 223 801T194 871Q194 915 222 941T294 967Q335 967 363 941T392
871Q392 828 364 801T294 774ZM294 806Q318 806 336 822T354 871Q354 901 336 918T294 936Q268 936 250 919T231 871Q231 839 249 823T294 806Z" />
<glyph unicode="&#xc6;" horiz-adv-x="899" d="M20 0L419 729H836V677H513V413H782V361H513V52H847V0H452V679H448Q416 617 382 554T315 427L84 0H20ZM184 235V283H494V235H184Z" />
<glyph unicode="&#xc7;" horiz-adv-x="627" d="M368 -13Q301 -13 245 13T147 89T83 208T60 365Q60 453 83 522T148 641T247 716T374 742Q439 742 487 715T566 654L532 615Q503 648 464 668T375 688Q297 688 241 649T153 538T122 366Q122 267 152 194T239 81T371
41Q426 41 469 63T552 129L586 91Q544 42 492 15T368 -13ZM289 -245L282 -208Q353 -204 379 -190T405 -151Q405 -127 385 -115T319 -95L365 2H408L375 -72Q412 -81 433 -98T454 -148Q454 -193 412 -216T289 -245Z" />
<glyph unicode="&#xc8;" horiz-adv-x="573" d="M106 0V729H509V677H166V413H454V361H166V52H520V0H106ZM343 780L192 905L228 948L370 810L343 780Z" />
<glyph unicode="&#xc9;" horiz-adv-x="573" d="M106 0V729H509V677H166V413H454V361H166V52H520V0H106ZM299 780L272 810L415 948L451 905L299 780Z" />
<glyph unicode="&#xca;" horiz-adv-x="573" d="M106 0V729H509V677H166V413H454V361H166V52H520V0H106ZM194 781L169 805L292 930H351L474 805L448 781L323 889H319L194 781Z" />
<glyph unicode="&#xcb;" horiz-adv-x="573" d="M106 0V729H509V677H166V413H454V361H166V52H520V0H106ZM211 801Q193 801 181 812T168 844Q168 864 180 876T211 888Q230 888 243 876T256 844Q256 824 243 813T211 801ZM431 801Q412 801 400 812T387 844Q387 864
399 876T431 888Q449 888 461 876T474 844Q474 824 462 813T431 801Z" />
<glyph unicode="&#xcc;" horiz-adv-x="272" d="M106 0V729H166V0H106ZM159 780L6 905L43 948L185 810L159 780Z" />
<glyph unicode="&#xcd;" horiz-adv-x="272" d="M106 0V729H166V0H106ZM114 780L88 810L230 948L266 905L114 780Z" />
<glyph unicode="&#xce;" horiz-adv-x="272" d="M106 0V729H166V0H106ZM10 781L-16 805L106 930H166L289 805L263 781L139 889H134L10 781Z" />
<glyph unicode="&#xcf;" horiz-adv-x="272" d="M106 0V729H166V0H106ZM26 801Q8 801 -4 812T-16 844Q-16 864 -4 876T26 888Q46 888 58 876T70 844Q70 824 58 813T26 801ZM245 801Q227 801 215 812T202 844Q202 864 214 876T245 888Q265 888 277 876T289 844Q289
824 277 813T245 801Z" />
<glyph unicode="&#xd0;" horiz-adv-x="695" d="M40 366V402L131 404H366V366H40ZM129 0V729H301Q414 729 488 685T598 560T635 367Q635 255 599 173T488 45T303 0H129ZM189 51H294Q391 51 452 90T543 201T573 367Q573 462 544 532T453 640T294 678H189V51Z" />
<glyph unicode="&#xd1;" horiz-adv-x="707" d="M106 0V729H168L466 228L548 81H553Q549 135 547 189T544 297V729H601V0H539L241 502L160 648H156Q158 595 160 543T163 437V0H106ZM452 793Q421 793 398 806T358 835T323 865T283 878Q260 878 244 857T223 797L182
801Q185 854 211 890T283 926Q314 926 336 913T376 883T411 853T451 840Q475 840 491 862T511 922L552 919Q551 865 525 829T452 793Z" />
<glyph unicode="&#xd2;" horiz-adv-x="726" d="M363 -13Q274 -13 206 34T99 166T60 367Q60 483 99 567T206 696T363 742Q451 742 519 696T626 567T665 367Q665 251 627 166T520 34T363 -13ZM363 41Q435 41 489 81T573 195T603 367Q603 466 573 538T489 649T363
688Q291 688 237 649T152 538T122 367Q122 268 152 195T236 82T363 41ZM385 780L233 905L269 948L411 810L385 780Z" />
<glyph unicode="&#xd3;" horiz-adv-x="726" d="M363 -13Q274 -13 206 34T99 166T60 367Q60 483 99 567T206 696T363 742Q451 742 519 696T626 567T665 367Q665 251 627 166T520 34T363 -13ZM363 41Q435 41 489 81T573 195T603 367Q603 466 573 538T489 649T363
688Q291 688 237 649T152 538T122 367Q122 268 152 195T236 82T363 41ZM341 780L315 810L457 948L493 905L341 780Z" />
<glyph unicode="&#xd4;" horiz-adv-x="726" d="M363 -13Q274 -13 206 34T99 166T60 367Q60 483 99 567T206 696T363 742Q451 742 519 696T626 567T665 367Q665 251 627 166T520 34T363 -13ZM363 41Q435 41 489 81T573 195T603 367Q603 466 573 538T489 649T363
688Q291 688 237 649T152 538T122 367Q122 268 152 195T236 82T363 41ZM237 781L210 805L333 930H393L515 805L490 781L366 889H361L237 781Z" />
<glyph unicode="&#xd5;" horiz-adv-x="726" d="M363 -13Q274 -13 206 34T99 166T60 367Q60 483 99 567T206 696T363 742Q451 742 519 696T626 567T665 367Q665 251 627 166T520 34T363 -13ZM363 41Q435 41 489 81T573 195T603 367Q603 466 573 538T489 649T363
688Q291 688 237 649T152 538T122 367Q122 268 152 195T236 82T363 41ZM448 793Q416 793 394 806T354 835T319 865T279 878Q256 878 239 857T219 797L177 801Q180 854 206 890T278 926Q310 926 332 913T372 883T407 853T446 840Q470 840 485 862T506 922L548 919Q546
865 520 829T448 793Z" />
<glyph unicode="&#xd6;" horiz-adv-x="726" d="M363 -13Q274 -13 206 34T99 166T60 367Q60 483 99 567T206 696T363 742Q451 742 519 696T626 567T665 367Q665 251 627 166T520 34T363 -13ZM363 41Q435 41 489 81T573 195T603 367Q603 466 573 538T489 649T363
688Q291 688 237 649T152 538T122 367Q122 268 152 195T236 82T363 41ZM253 801Q235 801 223 812T210 844Q210 864 222 876T253 888Q273 888 285 876T297 844Q297 824 285 813T253 801ZM472 801Q454 801 442 812T429 844Q429 864 441 876T472 888Q492 888 504 876T516
844Q516 824 504 813T472 801Z" />
<glyph unicode="&#xd7;" horiz-adv-x="1000" d="M783 56L500 339L217 56L182 90L466 374L182 656L218 691L500 408L783 691L818 657L535 374L818 90L783 56Z" />
<glyph unicode="&#xd8;" horiz-adv-x="726" d="M97 -26L61 0L629 756L665 729L97 -26ZM367 -13Q279 -13 211 34T103 166T64 367Q64 483 103 567T210 696T367 742Q456 742 524 696T630 567T669 367Q669 251 631 166T524 34T367 -13ZM367 41Q440 41 493 81T577 195T607
367Q607 466 577 538T494 649T367 688Q295 688 241 649T157 538T126 367Q126 268 156 195T241 82T367 41Z" />
<glyph unicode="&#xd9;" horiz-adv-x="705" d="M352 -13Q303 -13 259 1T179 50T124 141T104 284V729H163V288Q163 194 189 140T259 63T352 41Q404 41 447 63T517 139T544 288V729H602V284Q602 199 582 142T527 50T446 2T352 -13ZM374 780L222 905L258 948L400
810L374 780Z" />
<glyph unicode="&#xda;" horiz-adv-x="705" d="M352 -13Q303 -13 259 1T179 50T124 141T104 284V729H163V288Q163 194 189 140T259 63T352 41Q404 41 447 63T517 139T544 288V729H602V284Q602 199 582 142T527 50T446 2T352 -13ZM330 780L304 810L446 948L482
905L330 780Z" />
<glyph unicode="&#xdb;" horiz-adv-x="705" d="M352 -13Q303 -13 259 1T179 50T124 141T104 284V729H163V288Q163 194 189 140T259 63T352 41Q404 41 447 63T517 139T544 288V729H602V284Q602 199 582 142T527 50T446 2T352 -13ZM226 781L199 805L322 930H382L504
805L478 781L355 889H350L226 781Z" />
<glyph unicode="&#xdc;" horiz-adv-x="705" d="M352 -13Q303 -13 259 1T179 50T124 141T104 284V729H163V288Q163 194 189 140T259 63T352 41Q404 41 447 63T517 139T544 288V729H602V284Q602 199 582 142T527 50T446 2T352 -13ZM242 801Q224 801 212 812T199
844Q199 864 211 876T242 888Q261 888 273 876T286 844Q286 824 274 813T242 801ZM461 801Q443 801 431 812T418 844Q418 864 430 876T461 888Q480 888 492 876T505 844Q505 824 493 813T461 801Z" />
<glyph unicode="&#xdd;" horiz-adv-x="502" d="M221 0V292L2 729H66L172 506Q192 466 210 427T249 347H253Q274 388 294 427T331 506L439 729H500L280 292V0H221ZM229 780L202 810L344 948L381 905L229 780Z" />
<glyph unicode="&#xde;" horiz-adv-x="630" d="M106 0V729H166V601H310Q392 601 450 581T540 516T572 395Q572 322 541 275T451 204T310 180H166V0H106ZM166 230H298Q406 230 458 269T511 395Q511 484 458 517T298 551H166V230Z" />
<glyph unicode="&#xdf;" horiz-adv-x="609" d="M412 -13Q368 -13 330 2T260 43L287 86Q318 61 347 49T410 36Q464 36 491 68T519 140Q519 177 503 201T460 241T405 271T349 303T307 346T290 411Q290 451 306 479T343 533T380 585T396 649Q396 696 370 726T294
756Q232 756 195 710T158 568V0H100V585Q100 654 123 703T191 779T295 806Q346 806 382 786T437 732T456 654Q456 611 440 581T402 525T364 475T348 417Q348 386 364 367T407 333T462 303T517 269T560 220T577 143Q577 99 556 64T498 8T412 -13Z" />
<glyph unicode="&#xe0;" horiz-adv-x="547" d="M218 -13Q175 -13 140 3T84 52T63 135Q63 223 144 269T402 335Q404 375 395 411T359 472T281 496Q229 496 186 476T113 435L88 478Q108 492 138 508T207 535T288 547Q352 547 390 520T444 445T461 338V0H413L407
68H403Q364 35 317 11T218 -13ZM230 37Q274 37 315 57T402 119V292Q298 281 236 260T148 209T121 138Q121 82 153 60T230 37ZM320 635L158 803L200 841L351 665L320 635Z" />
<glyph unicode="&#xe1;" horiz-adv-x="547" d="M218 -13Q175 -13 140 3T84 52T63 135Q63 223 144 269T402 335Q404 375 395 411T359 472T281 496Q229 496 186 476T113 435L88 478Q108 492 138 508T207 535T288 547Q352 547 390 520T444 445T461 338V0H413L407
68H403Q364 35 317 11T218 -13ZM230 37Q274 37 315 57T402 119V292Q298 281 236 260T148 209T121 138Q121 82 153 60T230 37ZM263 635L232 665L383 841L425 803L263 635Z" />
<glyph unicode="&#xe2;" horiz-adv-x="547" d="M218 -13Q175 -13 140 3T84 52T63 135Q63 223 144 269T402 335Q404 375 395 411T359 472T281 496Q229 496 186 476T113 435L88 478Q108 492 138 508T207 535T288 547Q352 547 390 520T444 445T461 338V0H413L407
68H403Q364 35 317 11T218 -13ZM230 37Q274 37 315 57T402 119V292Q298 281 236 260T148 209T121 138Q121 82 153 60T230 37ZM134 659L263 818H320L449 659L420 633L294 768H290L163 633L134 659Z" />
<glyph unicode="&#xe3;" horiz-adv-x="547" d="M218 -13Q175 -13 140 3T84 52T63 135Q63 223 144 269T402 335Q404 375 395 411T359 472T281 496Q229 496 186 476T113 435L88 478Q108 492 138 508T207 535T288 547Q352 547 390 520T444 445T461 338V0H413L407
68H403Q364 35 317 11T218 -13ZM230 37Q274 37 315 57T402 119V292Q298 281 236 260T148 209T121 138Q121 82 153 60T230 37ZM375 641Q344 641 322 656T283 692T248 728T208 744Q180 744 167 716T151 644L108 648Q110 684 120 716T151 769T209 789Q240 789 261
774T300 738T335 703T376 687Q404 687 417 715T432 785L475 782Q473 747 464 715T433 662T375 641Z" />
<glyph unicode="&#xe4;" horiz-adv-x="547" d="M218 -13Q175 -13 140 3T84 52T63 135Q63 223 144 269T402 335Q404 375 395 411T359 472T281 496Q229 496 186 476T113 435L88 478Q108 492 138 508T207 535T288 547Q352 547 390 520T444 445T461 338V0H413L407
68H403Q364 35 317 11T218 -13ZM230 37Q274 37 315 57T402 119V292Q298 281 236 260T148 209T121 138Q121 82 153 60T230 37ZM191 660Q172 660 160 672T147 704Q147 722 159 734T191 747Q211 747 223 735T236 704Q236 685 224 673T191 660ZM392 660Q373 660 360
672T347 704Q347 722 360 734T392 747Q411 747 423 735T436 704Q436 685 424 673T392 660Z" />
<glyph unicode="&#xe5;" horiz-adv-x="547" d="M218 -13Q175 -13 140 3T84 52T63 135Q63 223 144 269T402 335Q404 375 395 411T359 472T281 496Q229 496 186 476T113 435L88 478Q108 492 138 508T207 535T288 547Q352 547 390 520T444 445T461 338V0H413L407
68H403Q364 35 317 11T218 -13ZM230 37Q274 37 315 57T402 119V292Q298 281 236 260T148 209T121 138Q121 82 153 60T230 37ZM292 609Q244 609 213 638T182 715Q182 762 213 791T292 820Q340 820 370 791T401 715Q401 668 371 639T292 609ZM292 640Q321 640 341
660T362 715Q362 749 342 769T292 790Q263 790 242 770T221 715Q221 681 242 661T292 640Z" />
<glyph unicode="&#xe6;" horiz-adv-x="869" d="M226 -13Q183 -13 148 3T92 52T71 134Q71 223 152 269T405 335Q406 375 397 411T361 472T284 496Q235 496 193 476T121 435L95 478Q116 492 146 508T213 535T289 547Q353 547 391 512T444 418Q474 476 522 511T627
547Q691 547 735 518T804 432T828 298Q828 288 827 278T824 256H461Q461 192 485 143T551 65T645 37Q687 37 720 49T782 84L806 39Q773 19 735 3T639 -13Q592 -13 557 2T495 43T449 95Q396 44 337 16T226 -13ZM238 37Q280 37 332 62T428 135Q417 158 412 193T405
262V292Q256 274 193 237T130 138Q130 82 162 60T238 37ZM461 299H774Q774 397 735 447T626 497Q585 497 549 473T490 404T461 299Z" />
<glyph unicode="&#xe7;" horiz-adv-x="499" d="M299 -13Q230 -13 175 20T88 115T56 266Q56 355 90 418T181 514T303 547Q357 547 394 527T459 482L426 442Q401 465 372 480T305 496Q251 496 209 467T142 387T117 266Q117 198 140 147T206 67T304 38Q345 38 380
55T442 97L471 56Q436 26 393 7T299 -13ZM209 -245L201 -208Q273 -204 299 -190T325 -151Q325 -127 305 -115T240 -95L286 2H329L296 -72Q332 -81 353 -98T375 -148Q375 -193 333 -216T209 -245Z" />
<glyph unicode="&#xe8;" horiz-adv-x="538" d="M305 -13Q236 -13 180 20T90 116T56 266Q56 331 75 383T127 471T203 527T290 547Q354 547 400 518T471 433T496 299Q496 288 496 278T493 256H115Q117 192 141 143T209 65T310 36Q353 36 387 48T451 82L474 39Q442
19 402 3T305 -13ZM115 303H442Q442 399 401 448T290 497Q247 497 209 474T146 408T115 303ZM317 635L156 803L199 841L350 665L317 635Z" />
<glyph unicode="&#xe9;" horiz-adv-x="538" d="M305 -13Q236 -13 180 20T90 116T56 266Q56 331 75 383T127 471T203 527T290 547Q354 547 400 518T471 433T496 299Q496 288 496 278T493 256H115Q117 192 141 143T209 65T310 36Q353 36 387 48T451 82L474 39Q442
19 402 3T305 -13ZM115 303H442Q442 399 401 448T290 497Q247 497 209 474T146 408T115 303ZM262 635L230 665L381 841L423 803L262 635Z" />
<glyph unicode="&#xea;" horiz-adv-x="538" d="M305 -13Q236 -13 180 20T90 116T56 266Q56 331 75 383T127 471T203 527T290 547Q354 547 400 518T471 433T496 299Q496 288 496 278T493 256H115Q117 192 141 143T209 65T310 36Q353 36 387 48T451 82L474 39Q442
19 402 3T305 -13ZM115 303H442Q442 399 401 448T290 497Q247 497 209 474T146 408T115 303ZM132 659L261 818H318L447 659L419 633L292 768H287L161 633L132 659Z" />
<glyph unicode="&#xeb;" horiz-adv-x="538" d="M305 -13Q236 -13 180 20T90 116T56 266Q56 331 75 383T127 471T203 527T290 547Q354 547 400 518T471 433T496 299Q496 288 496 278T493 256H115Q117 192 141 143T209 65T310 36Q353 36 387 48T451 82L474 39Q442
19 402 3T305 -13ZM115 303H442Q442 399 401 448T290 497Q247 497 209 474T146 408T115 303ZM189 660Q171 660 158 672T145 704Q145 722 158 734T189 747Q208 747 221 735T234 704Q234 685 221 673T189 660ZM390 660Q371 660 359 672T346 704Q346 722 358 734T390
747Q408 747 421 735T434 704Q434 685 421 673T390 660Z" />
<glyph unicode="&#xec;" horiz-adv-x="257" d="M100 0V534H158V0H100ZM158 635L-4 803L38 841L189 665L158 635Z" />
<glyph unicode="&#xed;" horiz-adv-x="257" d="M100 0V534H158V0H100ZM102 635L70 665L221 841L264 803L102 635Z" />
<glyph unicode="&#xee;" horiz-adv-x="257" d="M100 0V534H158V0H100ZM-28 659L101 818H159L287 659L259 633L132 768H128L1 633L-28 659Z" />
<glyph unicode="&#xef;" horiz-adv-x="257" d="M100 0V534H158V0H100ZM30 660Q11 660 -2 672T-15 704Q-15 722 -2 734T30 747Q48 747 61 735T74 704Q74 685 61 673T30 660ZM230 660Q212 660 199 672T186 704Q186 722 199 734T230 747Q249 747 261 735T274 704Q274
685 262 673T230 660Z" />
<glyph unicode="&#xf0;" horiz-adv-x="595" d="M296 -13Q237 -13 184 17T98 106T65 244Q65 317 94 373T175 460T294 491Q346 491 391 466T468 390V339Q427 402 384 422T298 442Q240 442 201 415T142 343T122 244Q122 183 145 136T209 64T297 38Q355 38 392 69T447
155T466 278Q466 382 443 457T378 588T282 686T163 764L191 804Q256 769 316 723T422 615T496 471T523 281Q523 192 495 126T415 24T296 -13ZM171 566L153 599L501 781L520 748L171 566Z" />
<glyph unicode="&#xf1;" horiz-adv-x="592" d="M100 0V534H148L155 452H157Q197 492 240 519T339 547Q422 547 461 496T501 341V0H443V333Q443 416 416 455T325 495Q279 495 242 471T158 399V0H100ZM401 641Q370 641 348 656T309 692T274 728T234 744Q205 744
192 716T177 644L134 648Q135 684 145 716T176 769T235 789Q266 789 287 774T326 738T362 703T402 687Q430 687 443 715T457 785L501 782Q499 747 489 715T458 662T401 641Z" />
<glyph unicode="&#xf2;" horiz-adv-x="594" d="M297 -13Q233 -13 178 20T89 115T56 266Q56 355 89 418T177 514T297 547Q345 547 389 528T466 473T519 385T538 266Q538 178 505 116T417 20T297 -13ZM297 38Q349 38 390 66T454 146T478 266Q478 335 455 386T390
467T297 496Q245 496 204 467T140 387T117 266Q117 198 140 147T204 67T297 38ZM326 635L164 803L206 841L357 665L326 635Z" />
<glyph unicode="&#xf3;" horiz-adv-x="594" d="M297 -13Q233 -13 178 20T89 115T56 266Q56 355 89 418T177 514T297 547Q345 547 389 528T466 473T519 385T538 266Q538 178 505 116T417 20T297 -13ZM297 38Q349 38 390 66T454 146T478 266Q478 335 455 386T390
467T297 496Q245 496 204 467T140 387T117 266Q117 198 140 147T204 67T297 38ZM268 635L237 665L389 841L431 803L268 635Z" />
<glyph unicode="&#xf4;" horiz-adv-x="594" d="M297 -13Q233 -13 178 20T89 115T56 266Q56 355 89 418T177 514T297 547Q345 547 389 528T466 473T519 385T538 266Q538 178 505 116T417 20T297 -13ZM297 38Q349 38 390 66T454 146T478 266Q478 335 455 386T390
467T297 496Q245 496 204 467T140 387T117 266Q117 198 140 147T204 67T297 38ZM139 659L268 818H326L455 659L427 633L299 768H294L168 633L139 659Z" />
<glyph unicode="&#xf5;" horiz-adv-x="594" d="M297 -13Q233 -13 178 20T89 115T56 266Q56 355 89 418T177 514T297 547Q345 547 389 528T466 473T519 385T538 266Q538 178 505 116T417 20T297 -13ZM297 38Q349 38 390 66T454 146T478 266Q478 335 455 386T390
467T297 496Q245 496 204 467T140 387T117 266Q117 198 140 147T204 67T297 38ZM380 641Q349 641 328 656T289 692T254 728T214 744Q186 744 172 716T156 644L114 648Q116 684 126 716T157 769T215 789Q246 789 267 774T306 738T341 703T382 687Q409 687 423 715T438
785L481 782Q479 747 469 715T438 662T380 641Z" />
<glyph unicode="&#xf6;" horiz-adv-x="594" d="M297 -13Q233 -13 178 20T89 115T56 266Q56 355 89 418T177 514T297 547Q345 547 389 528T466 473T519 385T538 266Q538 178 505 116T417 20T297 -13ZM297 38Q349 38 390 66T454 146T478 266Q478 335 455 386T390
467T297 496Q245 496 204 467T140 387T117 266Q117 198 140 147T204 67T297 38ZM197 660Q178 660 166 672T153 704Q153 722 165 734T197 747Q216 747 228 735T241 704Q241 685 229 673T197 660ZM397 660Q378 660 366 672T353 704Q353 722 365 734T397 747Q416 747
428 735T441 704Q441 685 429 673T397 660Z" />
<glyph unicode="&#xf7;" horiz-adv-x="1000" d="M500 694Q526 694 545 676T564 630Q564 604 545 585T500 566Q474 566 455 585T436 630Q436 657 455 675T500 694ZM868 398V349H132V398H868ZM500 181Q526 181 545 162T564 117Q564 90 545 72T500 53Q474 53 455
71T436 117Q436 143 455 162T500 181Z" />
<glyph unicode="&#xf8;" horiz-adv-x="594" d="M297 -13Q233 -13 178 20T89 115T56 266Q56 355 89 418T177 514T297 547Q345 547 389 528T466 473T519 385T538 266Q538 178 505 116T417 20T297 -13ZM297 37Q349 37 390 65T456 145T480 264Q480 335 456 387T391
468T297 497Q245 497 204 468T139 388T115 268Q115 198 138 146T203 66T297 37ZM83 -25L51 0L511 557L544 531L83 -25Z" />
<glyph unicode="&#xf9;" horiz-adv-x="589" d="M253 -13Q170 -13 131 38T91 193V534H150V200Q150 117 177 78T266 39Q312 39 349 64T432 143V534H491V0H441L436 88H434Q394 43 352 15T253 -13ZM321 635L160 803L202 841L353 665L321 635Z" />
<glyph unicode="&#xfa;" horiz-adv-x="589" d="M253 -13Q170 -13 131 38T91 193V534H150V200Q150 117 177 78T266 39Q312 39 349 64T432 143V534H491V0H441L436 88H434Q394 43 352 15T253 -13ZM266 635L233 665L384 841L427 803L266 635Z" />
<glyph unicode="&#xfb;" horiz-adv-x="589" d="M253 -13Q170 -13 131 38T91 193V534H150V200Q150 117 177 78T266 39Q312 39 349 64T432 143V534H491V0H441L436 88H434Q394 43 352 15T253 -13ZM137 659L265 818H322L450 659L422 633L296 768H291L164 633L137 659Z" />
<glyph unicode="&#xfc;" horiz-adv-x="589" d="M253 -13Q170 -13 131 38T91 193V534H150V200Q150 117 177 78T266 39Q312 39 349 64T432 143V534H491V0H441L436 88H434Q394 43 352 15T253 -13ZM193 660Q175 660 162 672T149 704Q149 722 162 734T193 747Q212 747
224 735T237 704Q237 685 225 673T193 660ZM394 660Q375 660 362 672T349 704Q349 722 362 734T394 747Q412 747 425 735T438 704Q438 685 425 673T394 660Z" />
<glyph unicode="&#xfd;" horiz-adv-x="490" d="M85 -240Q70 -240 55 -237T29 -229L41 -180Q49 -183 61 -185T84 -188Q133 -188 165 -150T217 -53L231 -7L13 534H75L199 207Q212 172 227 133T256 57H261Q273 93 285 132T309 207L418 534H477L269 -62Q254 -108 230
-148T170 -214T85 -240ZM229 635L198 665L348 841L391 803L229 635Z" />
<glyph unicode="&#xfe;" horiz-adv-x="605" d="M100 -237V795H158V569V470Q197 500 241 523T333 547Q405 547 453 513T525 419T549 275Q549 184 516 120T430 21T314 -13Q276 -13 237 4T158 51V-46V-237H100ZM310 38Q361 38 401 67T464 150T487 274Q487 338 471
388T420 467T324 496Q286 496 245 475T158 412V103Q201 67 240 53T310 38Z" />
<glyph unicode="&#xff;" horiz-adv-x="490" d="M85 -240Q70 -240 55 -237T29 -229L41 -180Q49 -183 61 -185T84 -188Q133 -188 165 -150T217 -53L231 -7L13 534H75L199 207Q212 172 227 133T256 57H261Q273 93 285 132T309 207L418 534H477L269 -62Q254 -108 230
-148T170 -214T85 -240ZM158 660Q138 660 126 672T114 704Q114 722 126 734T158 747Q176 747 188 735T201 704Q201 685 189 673T158 660ZM358 660Q338 660 326 672T314 704Q314 722 326 734T358 747Q377 747 389 735T401 704Q401 685 389 673T358 660Z" />
<glyph unicode="&#x2013;" horiz-adv-x="531" d="M45 256V300H486V256H45Z" />
<glyph unicode="&#x2014;" horiz-adv-x="886" d="M45 256V300H841V256H45Z" />
<glyph unicode="&#x2018;" horiz-adv-x="250" d="M118 519Q93 519 79 540T64 600Q64 660 90 703T164 777L185 747Q147 718 128 688T109 609L126 546L83 594Q92 604 99 608T118 612Q136 612 150 601T164 567Q164 544 152 532T118 519Z" />
<glyph unicode="&#x2019;" horiz-adv-x="250" d="M87 516L65 546Q103 575 122 606T142 686L124 748L168 700Q158 690 151 687T132 683Q115 683 101 694T86 727Q86 750 99 762T132 774Q157 774 172 754T187 695Q187 634 161 591T87 516Z" />
<glyph unicode="&#x201a;" horiz-adv-x="250" d="M87 -149L65 -119Q103 -90 122 -59T142 19L124 83L168 34Q158 24 151 20T132 16Q115 16 101 27T86 62Q86 85 99 97T132 109Q157 109 172 89T187 30Q187 -31 161 -74T87 -149Z" />
<glyph unicode="&#x201c;" horiz-adv-x="415" d="M118 519Q93 519 79 540T64 600Q64 660 90 703T164 777L185 747Q147 718 128 688T109 609L126 546L83 594Q92 604 99 608T118 612Q136 612 150 601T164 567Q164 544 152 532T118 519ZM283 519Q258 519 244 540T229
600Q229 660 255 703T329 777L350 747Q313 718 294 688T274 609L290 546L248 594Q257 604 264 608T283 612Q301 612 315 601T329 567Q329 544 316 532T283 519Z" />
<glyph unicode="&#x201d;" horiz-adv-x="415" d="M87 516L65 546Q103 575 122 606T142 686L124 748L168 700Q158 690 151 687T132 683Q115 683 101 694T86 727Q86 750 99 762T132 774Q157 774 172 754T187 695Q187 634 161 591T87 516ZM251 516L230 546Q268 575
287 606T307 686L290 748L333 700Q324 690 317 687T297 683Q280 683 266 694T251 727Q251 750 264 762T297 774Q322 774 336 754T351 695Q351 634 326 591T251 516Z" />
<glyph unicode="&#x201e;" horiz-adv-x="415" d="M87 -149L65 -119Q103 -90 122 -59T142 19L124 83L168 34Q158 24 151 20T132 16Q115 16 101 27T86 62Q86 85 99 97T132 109Q157 109 172 89T187 30Q187 -31 161 -74T87 -149ZM251 -149L230 -119Q268 -90 287 -59T307
19L290 83L333 34Q324 24 317 20T297 16Q280 16 266 27T251 62Q251 85 264 97T297 109Q322 109 336 89T351 30Q351 -31 326 -74T251 -149Z" />
<glyph unicode="&#x2022;" horiz-adv-x="317" d="M159 167Q129 167 103 182T61 226T44 292Q44 330 60 357T103 401T159 417Q188 417 214 401T256 358T273 292Q273 254 257 226T214 183T159 167Z" />
<glyph unicode="&#x2039;" horiz-adv-x="289" d="M200 78L48 255V303L200 480L230 454L95 279L230 102L200 78Z" />
<glyph unicode="&#x203a;" horiz-adv-x="289" d="M89 78L59 102L195 279L59 454L89 480L242 303V255L89 78Z" />
</font>
</defs>
</svg>
