<?xml version="1.0" standalone="no"?>
<!DOCTYPE svg PUBLIC "-//W3C//DTD SVG 1.1//EN" "http://www.w3.org/Graphics/SVG/1.1/DTD/svg11.dtd">
<svg xmlns="http://www.w3.org/2000/svg">
<defs >
<font id="NotoSansKR" horiz-adv-x="944" ><font-face
    font-family="Noto Sans KR SemiBold"
    units-per-em="1000"
    panose-1="2 11 2 0 0 0 0 0 0 0"
    ascent="1160"
    descent="-288"
    alphabetic="0" />
<glyph unicode=" " horiz-adv-x="226" />
<glyph unicode="!" horiz-adv-x="357" d="M135 244L116 628L112 757H244L240 628L222 244H135ZM178 -14Q142 -14 118 11T94 75Q94 114 118 138T178 163Q215 163 238 139T262 75Q262 37 239 12T178 -14Z" />
<glyph unicode="&quot;" horiz-adv-x="546" d="M118 442L92 649L88 777H222L218 649L193 442H118ZM353 442L327 649L323 777H458L454 649L427 442H353Z" />
<glyph unicode="#" horiz-adv-x="580" d="M100 0L126 221H39V307H136L154 452H62V538H165L190 734H268L244 538H376L401 734H480L456 538H546V452H446L427 307H524V221H417L391 0H311L337 221H206L179 0H100ZM215 307H348L366 452H233L215 307Z" />
<glyph unicode="$" horiz-adv-x="580" d="M277 -14Q239 -14 198 -3T118 28T51 75L110 164Q149 132 190 113T277 94Q332 94 359 119T386 189Q386 221 370 244T326 285T266 319T201 354T141 395T97 451T80 529Q80 591 107 636T183 707T297 732Q368 732 415 707T500
641L433 565Q402 595 373 610T303 625Q257 625 231 602T205 535Q205 506 222 486T266 450T325 419T391 385T451 343T495 283T512 199Q512 136 485 89T405 14T277 -14ZM247 -124V38H337V-124H247ZM247 689V843H337V689H247Z" />
<glyph unicode="%" horiz-adv-x="951" d="M210 285Q158 285 119 312T57 393T34 520Q34 594 56 645T118 724T210 752Q263 752 302 725T364 646T387 520Q387 446 365 393T303 313T210 285ZM210 360Q246 360 269 398T293 520Q293 603 270 639T210 676Q175 676 152
640T128 520Q128 436 151 398T210 360ZM233 -14L636 752H717L314 -14H233ZM741 -14Q689 -14 650 14T588 94T565 221Q565 296 587 347T649 426T741 454Q793 454 832 427T894 348T917 221Q917 147 895 95T833 14T741 -14ZM741 62Q776 62 799 100T823 221Q823 305
800 341T741 378Q705 378 682 342T658 221Q658 138 681 100T741 62Z" />
<glyph unicode="&amp;" horiz-adv-x="723" d="M268 -14Q195 -14 142 14T60 89T32 194Q32 252 56 294T120 367T202 424T285 475T348 528T373 594Q373 614 367 629T347 654T314 663Q279 663 257 637T235 569Q235 521 261 468T331 360T428 258T537 172Q582 142 624
122T703 94L671 -14Q621 -2 567 23T458 87Q393 134 334 193T227 317T153 447T126 568Q126 619 149 660T214 727T312 752Q388 752 432 709T476 595Q476 547 453 509T393 440T317 382T240 327T181 270T157 202Q157 169 173 143T219 103T284 88Q326 88 367 110T445
169Q490 215 523 275T576 408H697Q673 325 633 250T535 109Q486 54 420 20T268 -14Z" />
<glyph unicode="&apos;" horiz-adv-x="311" d="M118 442L92 649L88 777H222L218 649L193 442H118Z" />
<glyph unicode="(" horiz-adv-x="367" d="M236 -200Q166 -85 127 40T87 314Q87 463 126 588T236 829L317 793Q254 685 224 562T194 314Q194 189 224 66T317 -165L236 -200Z" />
<glyph unicode=")" horiz-adv-x="367" d="M131 -200L49 -165Q112 -57 142 66T173 314Q173 438 143 561T49 793L131 829Q201 714 240 589T280 314Q280 165 241 40T131 -200Z" />
<glyph unicode="*" horiz-adv-x="495" d="M162 433L104 475L169 586L54 637L76 705L199 676L211 805H284L295 676L419 705L441 637L324 586L391 475L333 433L248 532L162 433Z" />
<glyph unicode="+" horiz-adv-x="580" d="M240 112V326H38V420H240V635H339V420H542V326H339V112H240Z" />
<glyph unicode="," horiz-adv-x="311" d="M81 -207L53 -134Q108 -112 138 -76T168 6L162 104L211 23Q200 12 187 7T158 2Q124 2 99 23T73 83Q73 120 99 141T161 163Q208 163 233 128T258 29Q258 -54 212 -115T81 -207Z" />
<glyph unicode="-" horiz-adv-x="364" d="M48 237V332H317V237H48Z" />
<glyph unicode="." horiz-adv-x="311" d="M156 -14Q120 -14 96 11T72 75Q72 114 96 138T156 163Q192 163 216 139T240 75Q240 37 216 12T156 -14Z" />
<glyph unicode="/" horiz-adv-x="389" d="M13 -181L277 803H365L102 -181H13Z" />
<glyph unicode="0" horiz-adv-x="580" d="M290 -14Q217 -14 162 29T77 158T46 372Q46 500 76 584T162 710T290 752Q365 752 419 710T504 584T534 372Q534 244 504 158T420 29T290 -14ZM290 90Q325 90 352 117T394 205T410 372Q410 477 395 538T352 624T290 650Q256
650 229 625T186 538T170 372Q170 267 186 206T229 117T290 90Z" />
<glyph unicode="1" horiz-adv-x="580" d="M84 0V107H245V597H111V679Q165 689 204 703T277 739H375V107H517V0H84Z" />
<glyph unicode="2" horiz-adv-x="580" d="M43 0V76Q148 170 220 248T330 394T368 521Q368 559 355 587T315 632T250 648Q208 648 174 625T110 569L37 641Q86 694 139 723T267 752Q336 752 387 724T466 646T495 528Q495 459 461 388T368 246T236 103Q265 106 298
108T357 111H529V0H43Z" />
<glyph unicode="3" horiz-adv-x="580" d="M270 -14Q212 -14 167 0T87 37T27 89L90 172Q123 140 164 117T259 94Q299 94 329 107T375 145T392 206Q392 245 374 273T309 317T181 333V428Q252 428 292 443T350 486T368 549Q368 595 340 621T262 648Q221 648 186 630T118
581L51 662Q97 703 150 727T267 752Q336 752 388 730T470 664T500 558Q500 497 467 454T375 388V383Q417 372 451 348T504 286T524 199Q524 132 490 85T398 12T270 -14Z" />
<glyph unicode="4" horiz-adv-x="580" d="M338 0V468Q338 499 340 541T343 616H339Q325 587 311 558T280 499L150 296H551V195H21V284L305 739H460V0H338Z" />
<glyph unicode="5" horiz-adv-x="580" d="M272 -14Q214 -14 169 0T89 37T26 86L88 170Q109 150 134 133T189 105T256 94Q296 94 327 111T376 161T394 240Q394 309 358 346T262 384Q228 384 204 375T147 344L85 384L107 739H491V628H220L205 455Q227 466 249 472T300
478Q362 478 413 453T495 377T526 244Q526 162 490 105T397 17T272 -14Z" />
<glyph unicode="6" horiz-adv-x="580" d="M312 -14Q259 -14 212 8T129 76T72 191T51 357Q51 462 74 537T137 659T227 729T334 752Q399 752 446 728T526 670L455 592Q436 615 405 630T341 646Q295 646 257 619T195 528T172 357Q172 262 189 203T238 115T310 86Q340
86 364 103T402 153T417 231Q417 277 404 307T365 353T304 369Q272 369 237 350T171 281L166 373Q186 401 213 421T271 452T328 463Q390 463 437 438T511 362T538 231Q538 157 507 102T425 17T312 -14Z" />
<glyph unicode="7" horiz-adv-x="580" d="M189 0Q194 99 206 181T241 338T300 483T389 628H50V739H532V659Q468 579 429 506T368 358T337 195T323 0H189Z" />
<glyph unicode="8" horiz-adv-x="580" d="M290 -14Q220 -14 165 11T79 81T47 183Q47 232 65 269T112 334T176 379V384Q134 414 106 456T77 558Q77 616 105 659T183 726T294 750Q359 750 406 726T480 657T506 555Q506 518 492 486T456 427T410 383V378Q444 360
472 334T517 270T534 182Q534 127 504 83T419 12T290 -14ZM338 416Q368 446 382 479T397 547Q397 579 385 604T349 643T292 657Q250 657 222 631T194 558Q194 521 213 495T265 451T338 416ZM293 80Q328 80 354 93T396 129T411 186Q411 217 398 240T361 280T307
313T238 343Q204 317 183 280T161 197Q161 163 178 137T226 95T293 80Z" />
<glyph unicode="9" horiz-adv-x="580" d="M250 -14Q183 -14 135 10T53 68L124 148Q145 124 177 109T242 94Q276 94 306 109T359 158T395 250T408 390Q408 484 390 541T341 625T270 652Q240 652 216 635T177 586T162 507Q162 462 175 432T214 385T274 369Q307 369
342 390T407 458L414 366Q393 339 366 319T309 287T251 275Q189 275 142 300T68 378T41 507Q41 582 72 637T154 722T267 752Q320 752 367 731T451 665T507 553T528 390Q528 284 506 207T443 82T354 10T250 -14Z" />
<glyph unicode=":" horiz-adv-x="311" d="M156 373Q120 373 96 398T72 461Q72 499 96 524T156 549Q192 549 216 524T240 461Q240 423 216 398T156 373ZM156 -14Q120 -14 96 11T72 75Q72 114 96 138T156 163Q192 163 216 139T240 75Q240 37 216 12T156 -14Z" />
<glyph unicode=";" horiz-adv-x="311" d="M156 373Q120 373 96 398T72 461Q72 499 96 524T156 549Q192 549 216 524T240 461Q240 423 216 398T156 373ZM81 -207L53 -134Q108 -112 138 -76T168 6L162 104L211 23Q200 12 187 7T158 2Q124 2 99 23T73 83Q73 120 99
141T161 163Q208 163 233 128T258 29Q258 -54 212 -115T81 -207Z" />
<glyph unicode="&lt;" horiz-adv-x="580" d="M542 132L38 328V423L542 618V509L324 432L171 377V373L324 318L542 242V132Z" />
<glyph unicode="=" horiz-adv-x="580" d="M38 453V547H542V453H38ZM38 199V294H542V199H38Z" />
<glyph unicode="&gt;" horiz-adv-x="580" d="M38 132V242L256 318L408 373V377L256 432L38 509V618L542 423V328L38 132Z" />
<glyph unicode="?" horiz-adv-x="503" d="M177 244Q170 293 183 332T219 402T266 461T308 516T326 574Q326 601 315 621T284 652T234 664Q200 664 172 648T118 605L45 672Q82 715 134 742T250 770Q309 770 355 749T426 687T452 583Q452 540 435 507T392 444T342
385T302 322T292 244H177ZM236 -14Q200 -14 176 11T152 75Q152 114 176 138T236 163Q272 163 296 139T320 75Q320 37 296 12T236 -14Z" />
<glyph unicode="@" horiz-adv-x="990" d="M470 -185Q386 -185 311 -159T179 -81T89 49T56 231Q56 347 95 441T202 603T360 707T548 744Q666 744 752 695T886 558T933 355Q933 279 912 222T854 126T776 69T691 49Q644 49 610 71T568 135H565Q540 102 502 81T428
59Q366 59 326 103T285 224Q285 272 301 320T348 407T419 470T509 494Q537 494 559 481T597 438H599L614 485H696L648 247Q620 133 704 133Q739 133 772 159T826 234T848 350Q848 415 830 471T773 570T676 637T537 661Q463 661 394 631T268 545T180 411T147 235Q147
151 172 88T244 -17T350 -81T480 -103Q528 -103 574 -90T657 -56L688 -129Q638 -158 584 -171T470 -185ZM456 144Q476 144 498 157T545 202L574 367Q562 389 547 398T512 407Q483 407 460 391T420 348T395 291T386 231Q386 186 405 165T456 144Z" />
<glyph unicode="A" horiz-adv-x="632" d="M-2 0L239 739H393L633 0H494L382 393Q364 452 348 514T315 636H311Q296 575 279 514T245 393L132 0H-2ZM140 200V303H489V200H140Z" />
<glyph unicode="B" horiz-adv-x="674" d="M94 0V739H331Q407 739 466 722T560 665T594 557Q594 522 582 490T547 433T492 397V392Q553 379 593 336T633 217Q633 143 596 95T495 24T349 0H94ZM226 434H319Q396 434 430 462T465 538Q465 591 429 613T321 636H226V434ZM226
103H336Q417 103 460 132T504 224Q504 283 461 309T336 335H226V103Z" />
<glyph unicode="C" horiz-adv-x="651" d="M388 -14Q318 -14 258 11T152 85T81 205T55 367Q55 458 81 529T154 650T262 726T394 752Q464 752 518 724T607 658L537 574Q508 602 474 620T396 638Q337 638 290 606T217 514T191 371Q191 287 216 227T286 134T393 101Q442
101 481 122T551 177L621 94Q576 41 518 14T388 -14Z" />
<glyph unicode="D" horiz-adv-x="707" d="M94 0V739H291Q405 739 485 698T608 576T651 372Q651 250 609 167T487 42T298 0H94ZM226 107H282Q356 107 408 135T488 223T516 372Q516 464 489 521T409 605T282 632H226V107Z" />
<glyph unicode="E" horiz-adv-x="608" d="M94 0V739H539V628H226V440H491V329H226V111H550V0H94Z" />
<glyph unicode="F" horiz-adv-x="576" d="M94 0V739H540V628H226V419H494V308H226V0H94Z" />
<glyph unicode="G" horiz-adv-x="709" d="M404 -14Q304 -14 226 30T101 160T55 367Q55 458 82 529T156 650T267 726T405 752Q484 752 539 723T629 658L558 574Q530 601 496 619T409 638Q344 638 295 606T219 514T191 371Q191 287 216 227T292 134T417 101Q448
101 476 109T521 133V292H382V401H640V74Q603 37 541 12T404 -14Z" />
<glyph unicode="H" horiz-adv-x="749" d="M94 0V739H226V442H524V739H655V0H524V327H226V0H94Z" />
<glyph unicode="I" horiz-adv-x="319" d="M94 0V739H226V0H94Z" />
<glyph unicode="J" horiz-adv-x="559" d="M248 -14Q170 -14 116 18T26 112L118 180Q140 138 169 120T232 101Q285 101 311 133T337 243V739H469V232Q469 164 446 109T374 20T248 -14Z" />
<glyph unicode="K" horiz-adv-x="675" d="M94 0V739H226V404H229L491 739H638L410 451L676 0H531L331 347L226 215V0H94Z" />
<glyph unicode="L" horiz-adv-x="568" d="M94 0V739H226V111H533V0H94Z" />
<glyph unicode="M" horiz-adv-x="842" d="M94 0V739H243L373 378Q385 344 397 307T420 234H425Q437 270 448 307T471 378L599 739H748V0H627V336Q627 371 630 412T637 496T644 572H640L580 400L459 69H380L259 400L200 572H196Q200 538 203 496T210 413T213 336V0H94Z" />
<glyph unicode="N" horiz-adv-x="742" d="M94 0V739H229L458 325L535 167H540Q534 224 528 290T522 419V739H647V0H512L284 415L207 571H203Q207 513 213 449T219 322V0H94Z" />
<glyph unicode="O" horiz-adv-x="762" d="M381 -14Q285 -14 212 33T97 166T55 372Q55 492 96 577T211 707T381 752Q478 752 551 707T665 577T707 372Q707 253 666 167T551 33T381 -14ZM381 101Q439 101 482 134T548 229T572 372Q572 455 549 514T482 606T381 638Q323
638 280 606T214 515T191 372Q191 290 214 229T280 135T381 101Z" />
<glyph unicode="P" horiz-adv-x="658" d="M94 0V739H327Q410 739 474 718T575 646T613 511Q613 429 576 376T475 297T331 271H226V0H94ZM226 376H321Q403 376 443 409T483 511Q483 579 441 606T316 633H226V376Z" />
<glyph unicode="Q" horiz-adv-x="762" d="M381 -14Q285 -14 212 33T97 166T55 372Q55 492 96 577T211 707T381 752Q478 752 551 707T665 577T707 372Q707 253 666 167T551 33T381 -14ZM381 95Q439 95 482 128T548 224T572 372Q572 455 549 514T482 606T381 638Q323
638 280 606T214 515T191 372Q191 286 214 224T280 129T381 95ZM616 -196Q541 -196 481 -170T379 -99T315 4L450 17Q464 -20 491 -43T555 -78T631 -89Q655 -89 675 -86T711 -77L735 -175Q716 -184 685 -190T616 -196Z" />
<glyph unicode="R" horiz-adv-x="669" d="M94 0V739H343Q421 739 482 719T579 650T615 520Q615 440 580 389T483 313T343 288H226V0H94ZM226 393H329Q405 393 445 425T486 520Q486 583 446 608T329 633H226V393ZM496 0L318 323L413 403L644 0H496Z" />
<glyph unicode="S" horiz-adv-x="616" d="M310 -14Q234 -14 165 14T44 94L120 185Q160 147 210 124T312 101Q375 101 407 127T440 195Q440 226 425 245T385 277T326 305L225 348Q189 363 155 388T98 451T75 543Q75 603 107 650T195 724T324 752Q389 752 449 727T552
658L484 574Q449 604 411 621T324 638Q272 638 241 615T210 552Q210 523 226 504T269 473T327 447L426 406Q470 388 503 362T556 298T575 206Q575 146 544 96T453 16T310 -14Z" />
<glyph unicode="T" horiz-adv-x="618" d="M242 0V628H30V739H588V628H375V0H242Z" />
<glyph unicode="U" horiz-adv-x="740" d="M371 -14Q307 -14 255 5T167 64T111 169T91 324V739H222V314Q222 235 241 188T293 121T371 101Q417 101 451 121T504 188T524 314V739H651V324Q651 234 632 169T576 64T488 5T371 -14Z" />
<glyph unicode="V" horiz-adv-x="606" d="M225 0L-4 739H136L239 368Q257 305 271 248T304 127H309Q328 191 342 248T374 368L476 739H610L382 0H225Z" />
<glyph unicode="W" horiz-adv-x="904" d="M167 0L21 739H156L219 366Q229 308 238 249T257 130H261Q273 190 285 249T309 366L399 739H514L604 366Q617 309 628 250T653 130H658Q666 190 675 249T692 366L757 739H883L742 0H578L487 388Q478 431 470 473T454 558H450Q443
515 434 473T417 388L328 0H167Z" />
<glyph unicode="X" horiz-adv-x="611" d="M15 0L225 381L28 739H174L256 576Q270 550 282 523T312 462H316Q330 496 342 523T366 576L444 739H583L387 375L597 0H451L361 174Q347 202 333 231T301 295H297Q282 261 269 232T242 174L155 0H15Z" />
<glyph unicode="Y" horiz-adv-x="566" d="M217 0V275L-5 739H136L215 550Q232 509 248 470T282 387H286Q304 430 320 469T354 550L434 739H571L349 275V0H217Z" />
<glyph unicode="Z" horiz-adv-x="610" d="M45 0V80L402 628H78V739H564V659L208 111H568V0H45Z" />
<glyph unicode="[" horiz-adv-x="367" d="M103 -172V800H323V729H200V-100H323V-172H103Z" />
<glyph unicode="\" horiz-adv-x="389" d="M287 -181L24 803H113L376 -181H287Z" />
<glyph unicode="]" horiz-adv-x="367" d="M44 -172V-100H166V729H44V800H264V-172H44Z" />
<glyph unicode="^" horiz-adv-x="580" d="M62 315L235 757H345L518 315H408L345 485L292 637H287L235 485L172 315H62Z" />
<glyph unicode="_" horiz-adv-x="565" d="M14 -151V-73H551V-151H14Z" />
<glyph unicode="`" horiz-adv-x="620" d="M312 647L121 822L210 909L377 711L312 647Z" />
<glyph unicode="a" horiz-adv-x="583" d="M217 -14Q168 -14 132 7T74 64T53 149Q53 239 131 287T379 355Q378 385 369 409T338 448T279 463Q237 463 198 447T122 408L75 496Q106 515 141 531T217 558T302 569Q372 569 418 541T487 460T510 329V0H403L393 61H389Q352
30 309 8T217 -14ZM259 90Q292 90 320 105T379 149V273Q304 264 260 248T198 210T179 159Q179 122 201 106T259 90Z" />
<glyph unicode="b" horiz-adv-x="637" d="M352 -14Q315 -14 276 5T201 58H197L186 0H83V797H214V591L210 500Q245 531 286 550T370 569Q439 569 488 534T563 436T589 287Q589 192 555 125T467 22T352 -14ZM324 95Q361 95 390 116T437 180T454 284Q454 340 442
379T403 440T334 461Q304 461 275 446T214 399V141Q242 115 271 105T324 95Z" />
<glyph unicode="c" horiz-adv-x="522" d="M314 -14Q238 -14 178 20T82 120T46 277Q46 370 85 435T187 534T325 569Q377 569 417 551T487 506L424 422Q402 441 380 451T332 461Q288 461 254 439T200 375T181 277Q181 222 200 181T252 117T327 94Q360 94 389 107T442
141L495 54Q456 20 409 3T314 -14Z" />
<glyph unicode="d" horiz-adv-x="637" d="M276 -14Q207 -14 156 20T76 120T48 277Q48 368 81 433T169 533T284 569Q331 569 364 553T429 508L424 597V797H555V0H448L438 60H434Q403 29 363 8T276 -14ZM309 95Q341 95 369 109T424 157V414Q396 440 368 450T311
461Q277 461 248 440T201 378T183 279Q183 219 198 178T241 116T309 95Z" />
<glyph unicode="e" horiz-adv-x="573" d="M320 -14Q243 -14 181 21T83 121T46 277Q46 345 67 398T125 490T207 549T302 569Q377 569 428 536T505 443T531 305Q531 286 530 270T525 242H174Q179 193 201 159T257 107T337 88Q372 88 403 98T465 128L510 46Q471 20
422 3T320 -14ZM172 331H419Q419 394 390 430T304 467Q273 467 245 452T198 406T172 331Z" />
<glyph unicode="f" horiz-adv-x="359" d="M105 0V612Q105 669 123 714T182 785T289 811Q320 811 346 806T391 793L366 694Q337 707 306 707Q272 707 254 685T235 614V0H105ZM30 451V549L112 555H344V451H30Z" />
<glyph unicode="g" horiz-adv-x="588" d="M276 -245Q210 -245 158 -229T75 -181T45 -101Q45 -66 65 -36T125 17V22Q104 36 90 58T75 115Q75 147 93 174T137 218V222Q108 244 85 282T62 369Q62 433 93 478T174 546T281 569Q306 569 327 565T364 555H563V458H463Q476
442 484 418T493 365Q493 304 465 262T389 198T281 176Q265 176 246 179T207 190Q195 180 188 168T180 137Q180 115 199 102T270 88H369Q468 88 520 56T572 -49Q572 -104 536 -148T433 -219T276 -245ZM281 258Q308 258 330 271T365 309T378 369Q378 404 365 428T331
465T281 478Q255 478 234 466T199 429T186 369Q186 334 199 310T233 272T281 258ZM295 -160Q341 -160 374 -148T426 -115T445 -71Q445 -38 420 -27T348 -15H272Q250 -15 232 -14T197 -8Q175 -24 165 -43T155 -81Q155 -118 193 -139T295 -160Z" />
<glyph unicode="h" horiz-adv-x="631" d="M83 0V797H214V591L208 485Q243 518 285 543T385 569Q474 569 515 511T556 348V0H425V331Q425 400 405 428T339 456Q303 456 276 439T214 388V0H83Z" />
<glyph unicode="i" horiz-adv-x="296" d="M83 0V555H214V0H83ZM149 652Q113 652 92 672T71 727Q71 760 92 780T149 801Q183 801 205 781T227 727Q227 693 205 673T149 652Z" />
<glyph unicode="j" horiz-adv-x="297" d="M38 -233Q8 -233 -13 -229T-51 -218L-27 -120Q-17 -124 -5 -126T21 -129Q58 -129 71 -104T84 -30V555H215V-28Q215 -86 199 -132T143 -206T38 -233ZM149 652Q115 652 93 672T71 727Q71 760 93 780T149 801Q183 801 205
781T228 727Q228 693 206 673T149 652Z" />
<glyph unicode="k" horiz-adv-x="589" d="M83 0V797H212V302H216L418 555H563L374 328L582 0H440L297 241L212 142V0H83Z" />
<glyph unicode="l" horiz-adv-x="306" d="M209 -14Q163 -14 135 5T95 60T83 143V797H214V137Q214 113 223 104T242 94Q246 94 250 94T262 96L278 -2Q266 -7 250 -10T209 -14Z" />
<glyph unicode="m" horiz-adv-x="953" d="M83 0V555H190L201 479H203Q239 516 280 542T374 569Q435 569 471 543T527 470Q567 512 610 540T706 569Q793 569 834 511T876 348V0H746V331Q746 400 726 428T661 456Q635 456 607 439T545 388V0H414V331Q414 400 394
428T329 456Q304 456 275 439T214 388V0H83Z" />
<glyph unicode="n" horiz-adv-x="632" d="M83 0V555H190L201 480H203Q240 517 284 543T385 569Q474 569 515 511T556 348V0H425V331Q425 400 405 428T339 456Q303 456 276 439T214 388V0H83Z" />
<glyph unicode="o" horiz-adv-x="620" d="M310 -14Q241 -14 181 20T83 120T46 277Q46 370 83 435T180 534T310 569Q362 569 409 550T494 493T552 401T574 277Q574 186 537 121T440 21T310 -14ZM310 94Q351 94 380 116T424 180T440 277Q440 333 425 374T380 438T310
461Q270 461 241 439T197 375T181 277Q181 222 196 181T241 117T310 94Z" />
<glyph unicode="p" horiz-adv-x="637" d="M83 -219V555H190L201 496H203Q239 526 282 547T370 569Q440 569 489 534T563 435T589 286Q589 191 555 124T467 22T352 -14Q315 -14 279 2T210 48L214 -45V-219H83ZM324 95Q361 95 390 116T437 180T454 284Q454 340 442
379T403 440T334 461Q304 461 275 446T214 399V141Q244 115 272 105T324 95Z" />
<glyph unicode="q" horiz-adv-x="637" d="M424 -219V-37L429 56Q399 26 359 6T276 -14Q207 -14 156 20T76 120T48 277Q48 368 81 433T169 533T284 569Q331 569 367 553T437 501H440L452 555H555V-219H424ZM309 95Q341 95 369 109T424 157V414Q396 440 368 450T311
461Q277 461 248 440T201 378T183 279Q183 219 198 178T241 116T309 95Z" />
<glyph unicode="r" horiz-adv-x="423" d="M83 0V555H190L201 456H203Q233 510 275 539T361 569Q383 569 397 566T424 557L402 444Q387 448 375 450T344 453Q312 453 276 427T214 338V0H83Z" />
<glyph unicode="s" horiz-adv-x="487" d="M238 -14Q181 -14 125 8T28 64L88 148Q125 119 162 102T241 85Q286 85 308 104T330 152Q330 175 313 190T268 218T211 241Q175 255 140 275T82 326T59 403Q59 451 83 488T153 547T261 569Q319 569 365 549T445 502L385
422Q356 443 326 456T264 470Q222 470 202 453T182 409Q182 387 197 373T239 349T295 327Q324 316 352 303T403 271T439 225T453 159Q453 111 429 72T356 9T238 -14Z" />
<glyph unicode="t" horiz-adv-x="408" d="M278 -14Q214 -14 176 11T120 82T102 188V451H23V549L110 555L124 707H233V555H374V451H233V187Q233 139 252 115T312 90Q326 90 341 94T369 103L391 7Q369 0 341 -7T278 -14Z" />
<glyph unicode="u" horiz-adv-x="629" d="M248 -14Q158 -14 117 44T76 207V555H207V223Q207 156 227 128T293 99Q329 99 357 117T416 175V555H547V0H439L429 82H426Q389 39 347 13T248 -14Z" />
<glyph unicode="v" horiz-adv-x="560" d="M206 0L14 555H147L234 267Q246 227 257 185T281 101H286Q298 142 309 184T332 267L420 555H547L359 0H206Z" />
<glyph unicode="w" horiz-adv-x="846" d="M174 0L27 555H158L226 268Q234 227 240 188T254 108H259Q268 149 276 188T294 268L367 555H485L559 268Q569 227 578 188T596 108H601Q608 149 615 188T630 268L695 555H819L678 0H522L458 258Q449 297 441 336T424 419H419Q411
376 404 337T387 257L324 0H174Z" />
<glyph unicode="x" horiz-adv-x="544" d="M16 0L192 289L28 555H169L230 451Q242 427 254 404T280 356H285Q295 380 306 403T328 451L380 555H516L352 275L528 0H387L320 110Q306 134 293 159T264 207H259Q247 184 235 160T210 110L152 0H16Z" />
<glyph unicode="y" horiz-adv-x="559" d="M120 -227Q97 -227 80 -224T47 -216L72 -115Q80 -117 90 -120T112 -123Q155 -123 181 -96T221 -28L232 7L14 555H147L242 284Q255 246 266 206T291 127H296Q305 166 316 205T337 284L420 555H546L346 -25Q323 -88 294
-133T223 -202T120 -227Z" />
<glyph unicode="z" horiz-adv-x="501" d="M39 0V70L300 451H68V555H464V485L203 104H473V0H39Z" />
<glyph unicode="{" horiz-adv-x="367" d="M261 -172Q214 -172 184 -158T138 -110T123 -16Q123 25 125 57T130 121T133 189Q133 211 125 230T96 261T37 275V354Q75 355 95 367T124 399T133 439Q133 476 131 507T126 570T123 643Q123 734 157 767T261 800H323V729H298Q257
729 244 709T230 638Q230 590 232 545T235 444Q235 384 217 356T159 316V311Q199 301 217 272T235 184Q235 130 233 85T230 -10Q230 -60 243 -80T298 -100H323V-172H261Z" />
<glyph unicode="|" horiz-adv-x="289" d="M101 -282V847H188V-282H101Z" />
<glyph unicode="}" horiz-adv-x="367" d="M44 -172V-100H68Q109 -100 123 -80T137 -10Q137 39 135 84T132 184Q132 243 150 272T208 311V316Q168 327 150 355T132 444Q132 499 134 544T137 638Q137 689 123 709T68 729H44V800H105Q176 800 210 767T244 643Q244
603 242 571T236 507T233 439Q233 418 241 399T271 368T330 354V275Q293 274 272 262T242 230T233 189Q233 152 236 121T241 58T244 -16Q244 -106 210 -139T105 -172H44Z" />
<glyph unicode="~" horiz-adv-x="580" d="M387 280Q354 280 328 294T279 326T235 357T190 371Q167 371 146 355T107 304L37 356Q73 415 113 440T193 466Q227 466 253 452T302 421T345 389T389 375Q413 375 434 391T473 442L543 389Q507 331 467 306T387 280Z" />
<glyph unicode="&#xa0;" horiz-adv-x="226" />
<glyph unicode="&#xa1;" horiz-adv-x="357" d="M112 -202L116 -73L135 311H222L240 -73L244 -202H112ZM178 391Q142 391 118 416T94 480Q94 518 118 543T178 569Q215 569 238 544T262 480Q262 442 239 417T178 391Z" />
<glyph unicode="&#xa2;" horiz-adv-x="580" d="M351 68Q267 68 204 101T105 197T69 348Q69 438 108 501T213 596T361 629Q414 629 454 611T524 565L462 483Q440 503 417 512T368 522Q314 522 275 501T216 440T196 348Q196 296 216 257T274 196T364 174Q399 174
427 188T478 222L533 139Q494 104 446 86T351 68ZM304 -42V739H380V-42H304Z" />
<glyph unicode="&#xa3;" horiz-adv-x="580" d="M57 0V81Q111 108 144 157T177 268Q177 309 165 350T139 432T126 513Q126 581 154 630T234 705T351 732Q413 732 458 709T537 643L464 572Q444 597 420 611T363 625Q311 625 281 594T251 506Q251 468 261 430T282
352T293 267Q293 217 279 183T234 115V111H538V0H57ZM60 314V393L135 398H445V314H60Z" />
<glyph unicode="&#xa4;" horiz-adv-x="580" d="M93 104L26 172L97 244Q57 297 57 372Q57 447 96 500L26 572L93 639L171 561Q225 596 290 596Q355 596 409 561L487 639L554 572L482 500Q502 475 512 443T523 372Q523 334 512 302T483 244L554 172L487 104L408
183Q382 166 352 158T290 149Q223 149 171 183L93 104ZM290 242Q322 242 348 258T389 304T405 372Q405 411 390 440T348 486T290 502Q258 502 232 486T191 441T175 372Q175 333 190 304T232 259T290 242Z" />
<glyph unicode="&#xa5;" horiz-adv-x="580" d="M225 0V172H46V239H225V306H46V374H194L20 719H155L228 548Q243 511 258 474T289 398H294Q310 437 325 474T356 548L428 719H560L384 374H534V306H355V239H534V172H355V0H225Z" />
<glyph unicode="&#xa6;" horiz-adv-x="289" d="M101 341V847H188V341H101ZM101 -282V236H188V-282H101Z" />
<glyph unicode="&#xa7;" horiz-adv-x="1000" d="M676 658Q653 671 613 683T519 696Q483 696 458 686T420 660T407 625Q407 602 423 586T470 557T543 532Q604 515 650 492T722 434T748 347Q748 303 728 267T676 206Q692 194 707 167T722 104Q722 59 702 25T647
-31T570 -64T484 -75Q428 -75 376 -63T284 -25L315 59Q338 44 382 28T483 11Q539 11 571 33T604 91Q604 113 591 129T548 161T464 192Q401 211 353 234T278 292T251 378Q251 411 271 449T335 513Q318 528 305 555T293 611Q293 663 322 701T404 760T524 781Q578
781 623 770T702 742L676 658ZM355 399Q355 386 360 374T378 349T414 326T472 302Q506 291 532 282T578 265T608 251Q625 263 634 283T644 325Q644 352 627 371T581 404T520 429T455 450T399 473Q378 458 367 440T355 399Z" />
<glyph unicode="&#xa8;" horiz-adv-x="620" d="M194 653Q164 653 145 673T125 721Q125 751 144 770T194 790Q224 790 243 771T263 721Q263 693 244 673T194 653ZM426 653Q396 653 377 673T357 721Q357 751 376 770T426 790Q457 790 476 771T495 721Q495 693 476
673T426 653Z" />
<glyph unicode="&#xa9;" horiz-adv-x="844" d="M422 -10Q347 -10 281 16T164 91T83 210T54 366Q54 453 83 522T163 639T281 713T422 739Q496 739 563 714T681 640T761 522T791 366Q791 280 762 211T681 92T563 16T422 -10ZM422 47Q485 47 540 70T637 135T702 236T726
366Q726 438 703 496T637 595T540 659T422 682Q359 682 304 660T207 596T142 496T118 366Q118 294 141 236T207 136T304 70T422 47ZM433 143Q373 143 325 170T249 246T221 365Q221 431 251 479T330 554T435 581Q485 581 519 562T580 516L529 458Q509 478 489 489T442
500Q385 500 353 462T320 365Q320 300 351 262T437 223Q470 223 493 235T540 267L584 204Q552 178 517 161T433 143Z" />
<glyph unicode="&#xaa;" horiz-adv-x="398" d="M150 425Q99 425 68 456T37 535Q37 595 89 627T255 670Q253 700 240 718T193 736Q167 736 139 725T84 700L51 763Q83 783 123 797T208 811Q278 811 313 771T349 651V434H274L264 474H260Q238 454 211 440T150 425ZM180
499Q200 499 218 508T255 535V614Q184 606 156 588T128 543Q128 521 142 510T180 499Z" />
<glyph unicode="&#xab;" horiz-adv-x="515" d="M206 69L53 238V332L206 501L257 458L129 284L257 110L206 69ZM402 69L250 238V332L402 501L453 458L325 284L453 110L402 69Z" />
<glyph unicode="&#xac;" horiz-adv-x="580" d="M442 112V326H38V420H542V112H442Z" />
<glyph unicode="&#xad;" horiz-adv-x="364" d="M48 237V332H317V237H48Z" />
<glyph unicode="&#xae;" horiz-adv-x="501" d="M251 356Q190 356 141 385T61 464T31 581Q31 648 61 698T140 778T251 807Q311 807 360 778T439 699T469 581Q469 515 439 465T360 385T251 356ZM251 404Q298 404 335 426T394 488T415 581Q415 634 394 674T336 736T251
758Q203 758 166 736T107 674T85 581Q85 528 106 489T165 427T251 404ZM163 471V696H257Q294 696 320 679T347 623Q347 603 336 586T306 561L355 471H295L258 544H220V471H163ZM220 585H245Q265 585 276 594T287 619Q287 634 278 643T247 653H220V585Z" />
<glyph unicode="&#xaf;" horiz-adv-x="620" d="M152 673V760H469V673H152Z" />
<glyph unicode="&#xb0;" horiz-adv-x="394" d="M198 467Q156 467 121 486T66 540T45 620Q45 666 65 700T121 754T198 774Q240 774 274 755T329 701T350 620Q350 575 330 541T275 487T198 467ZM198 533Q233 533 255 557T278 620Q278 659 256 683T198 708Q162 708
140 684T118 620Q118 581 140 557T198 533Z" />
<glyph unicode="&#xb1;" horiz-adv-x="1000" d="M857 459H546V200H454V459H143V551H454V810H546V551H857V459ZM864 104V12H143V104H864Z" />
<glyph unicode="&#xb2;" horiz-adv-x="420" d="M55 434V488Q117 542 162 584T231 662T255 727Q255 764 236 786T181 808Q156 808 134 792T94 749L38 801Q67 843 107 866T196 889Q265 889 308 852T351 742Q351 704 333 668T283 596T211 517H370V434H55Z" />
<glyph unicode="&#xb3;" horiz-adv-x="420" d="M207 421Q152 421 108 444T35 508L97 556Q117 527 142 512T199 497Q230 497 252 514T274 562Q274 596 244 613T154 630V688Q202 688 229 706T257 755Q257 782 239 797T190 813Q168 813 147 799T110 764L53 814Q86
851 122 870T206 889Q246 889 279 875T333 833T354 768Q354 731 335 706T284 664Q320 651 345 624T371 556Q371 515 349 485T289 438T207 421Z" />
<glyph unicode="&#xb4;" horiz-adv-x="620" d="M308 647L242 711L410 909L500 822L308 647Z" />
<glyph unicode="&#xb5;" horiz-adv-x="654" d="M83 -201V555H214V223Q214 158 234 129T298 99Q320 99 339 106T378 133T417 188V555H549Q548 486 546 411T543 266T541 139Q541 114 553 104T586 94Q594 94 602 95T621 100L637 3Q622 -4 603 -9T554 -14Q501 -14
471 10T431 86H428Q403 39 368 15T293 -10Q266 -10 244 -2T205 29Q205 -6 205 -35T207 -90T211 -143T215 -201H83Z" />
<glyph unicode="&#xb6;" horiz-adv-x="1000" d="M444 298Q416 298 381 310T314 349T260 416T238 514Q237 559 251 604T301 688T400 748T560 771Q611 771 646 769T705 761V-56H620V687H537V-56H452V298H444Z" />
<glyph unicode="&#xb7;" horiz-adv-x="583" d="M289 281Q254 281 230 306T205 369Q205 408 229 433T289 458Q325 458 349 433T374 369Q374 332 350 307T289 281Z" />
<glyph unicode="&#xb8;" horiz-adv-x="620" d="M208 -264L197 -206Q265 -202 290 -190T316 -153Q316 -134 298 -122T229 -103L282 4H361L329 -70Q369 -80 391 -98T413 -152Q413 -206 360 -232T208 -264Z" />
<glyph unicode="&#xb9;" horiz-adv-x="420" d="M190 434V767H93V828Q134 835 159 846T210 875H289V434H190Z" />
<glyph unicode="&#xba;" horiz-adv-x="416" d="M208 425Q161 425 120 448T55 514T30 618Q30 679 54 722T120 788T208 811Q255 811 295 788T361 722T386 618Q386 558 361 515T296 448T208 425ZM208 501Q248 501 268 533T289 618Q289 671 269 703T208 736Q168 736
148 704T127 618Q127 566 147 534T208 501Z" />
<glyph unicode="&#xbb;" horiz-adv-x="515" d="M112 69L61 110L190 284L61 458L112 501L265 332V238L112 69ZM309 69L258 110L386 284L258 458L309 501L463 332V238L309 69Z" />
<glyph unicode="&#xbc;" horiz-adv-x="899" d="M160 298V630H62V691Q103 698 128 709T179 739H258V298H160ZM207 -14L610 752H690L287 -14H207ZM723 0V236L730 364H725L674 275L617 173H876V108H522V156L694 441H811V0H723Z" />
<glyph unicode="&#xbd;" horiz-adv-x="935" d="M160 298V630H62V691Q103 698 128 709T179 739H258V298H160ZM186 -14L589 752H670L267 -14H186ZM569 0V54Q631 108 676 150T745 227T770 293Q770 330 750 351T696 373Q671 373 649 357T609 314L552 366Q582 408 622
431T710 454Q780 454 822 417T865 308Q865 269 847 233T797 161T726 83H885V0H569Z" />
<glyph unicode="&#xbe;" horiz-adv-x="912" d="M205 285Q149 285 104 308T33 372L94 420Q115 391 140 376T196 360Q228 360 249 377T271 426Q271 460 241 477T150 494V552Q200 552 227 570T255 618Q255 645 237 660T188 676Q165 676 145 663T108 628L51 678Q83
714 119 733T204 752Q244 752 277 738T331 696T352 632Q352 595 333 570T281 527Q317 515 342 488T368 419Q368 379 345 349T286 302T205 285ZM241 -14L644 752H723L321 -14H241ZM736 0V236L743 364H738L687 275L629 173H889V108H535V156L706 441H823V0H736Z" />
<glyph unicode="&#xbf;" horiz-adv-x="503" d="M253 -215Q194 -215 148 -194T76 -131T50 -28Q50 15 67 48T111 111T161 170T200 234T210 311H325Q332 262 319 224T283 154T236 94T194 39T177 -19Q177 -45 188 -65T219 -97T269 -109Q303 -109 331 -93T384 -50L458
-117Q420 -160 369 -187T253 -215ZM267 391Q231 391 207 416T183 480Q183 518 207 543T267 569Q304 569 327 544T351 480Q351 442 328 417T267 391Z" />
<glyph unicode="&#xc0;" horiz-adv-x="632" d="M-2 0L239 739H393L633 0H494L382 393Q364 452 348 514T315 636H311Q296 575 279 514T245 393L132 0H-2ZM140 200V303H489V200H140ZM329 778L140 909L211 996L388 844L329 778Z" />
<glyph unicode="&#xc1;" horiz-adv-x="632" d="M-2 0L239 739H393L633 0H494L382 393Q364 452 348 514T315 636H311Q296 575 279 514T245 393L132 0H-2ZM140 200V303H489V200H140ZM299 778L241 844L418 996L489 909L299 778Z" />
<glyph unicode="&#xc2;" horiz-adv-x="632" d="M-2 0L239 739H393L633 0H494L382 393Q364 452 348 514T315 636H311Q296 575 279 514T245 393L132 0H-2ZM140 200V303H489V200H140ZM191 782L135 819L244 945H385L494 819L437 782L316 881H312L191 782Z" />
<glyph unicode="&#xc3;" horiz-adv-x="632" d="M-2 0L239 739H393L633 0H494L382 393Q364 452 348 514T315 636H311Q296 575 279 514T245 393L132 0H-2ZM140 200V303H489V200H140ZM397 791Q366 791 343 802T302 827T269 852T236 863Q218 863 205 848T188 799L103
806Q107 881 142 918T232 956Q262 956 285 946T326 921T360 895T393 884Q412 884 424 899T441 949L526 943Q523 867 488 829T397 791Z" />
<glyph unicode="&#xc4;" horiz-adv-x="632" d="M-2 0L239 739H393L633 0H494L382 393Q364 452 348 514T315 636H311Q296 575 279 514T245 393L132 0H-2ZM140 200V303H489V200H140ZM193 799Q164 799 145 818T126 867Q126 896 145 915T193 935Q223 935 242 916T261
867Q261 837 242 818T193 799ZM435 799Q405 799 386 818T367 867Q367 896 386 915T435 935Q465 935 484 916T503 867Q503 837 484 818T435 799Z" />
<glyph unicode="&#xc5;" horiz-adv-x="632" d="M-2 0L239 739H393L633 0H494L382 393Q364 452 348 514T315 636H311Q296 575 279 514T245 393L132 0H-2ZM140 200V303H489V200H140ZM314 787Q262 787 229 817T195 895Q195 945 228 973T314 1002Q367 1002 400 974T434
895Q434 847 401 817T314 787ZM314 841Q336 841 351 855T366 895Q366 920 351 935T314 950Q293 950 278 935T262 895Q262 869 277 855T314 841Z" />
<glyph unicode="&#xc6;" horiz-adv-x="942" d="M-3 0L365 739H874V628H577V440H826V329H577V111H885V0H444V638H440Q414 581 388 524T335 413L135 0H-3ZM167 192V294H517V192H167Z" />
<glyph unicode="&#xc7;" horiz-adv-x="651" d="M388 -14Q318 -14 258 11T152 85T81 205T55 367Q55 458 81 529T154 650T262 726T394 752Q464 752 518 724T607 658L537 574Q508 602 474 620T396 638Q337 638 290 606T217 514T191 371Q191 287 216 227T286 134T393
101Q442 101 481 122T551 177L621 94Q576 41 518 14T388 -14ZM285 -264L274 -206Q342 -202 367 -190T393 -153Q393 -134 375 -122T306 -103L358 4H438L405 -70Q446 -80 467 -98T489 -152Q489 -206 436 -232T285 -264Z" />
<glyph unicode="&#xc8;" horiz-adv-x="608" d="M94 0V739H539V628H226V440H491V329H226V111H550V0H94ZM343 778L153 909L224 996L401 844L343 778Z" />
<glyph unicode="&#xc9;" horiz-adv-x="608" d="M94 0V739H539V628H226V440H491V329H226V111H550V0H94ZM312 778L254 844L431 996L503 909L312 778Z" />
<glyph unicode="&#xca;" horiz-adv-x="608" d="M94 0V739H539V628H226V440H491V329H226V111H550V0H94ZM204 782L148 819L257 945H398L507 819L450 782L330 881H325L204 782Z" />
<glyph unicode="&#xcb;" horiz-adv-x="608" d="M94 0V739H539V628H226V440H491V329H226V111H550V0H94ZM206 799Q177 799 158 818T139 867Q139 896 158 915T206 935Q236 935 255 916T275 867Q275 837 256 818T206 799ZM449 799Q419 799 400 818T381 867Q381 896
400 915T449 935Q478 935 497 916T516 867Q516 837 497 818T449 799Z" />
<glyph unicode="&#xcc;" horiz-adv-x="319" d="M94 0V739H226V0H94ZM176 778L-14 909L57 996L235 844L176 778Z" />
<glyph unicode="&#xcd;" horiz-adv-x="319" d="M94 0V739H226V0H94ZM146 778L87 844L265 996L336 909L146 778Z" />
<glyph unicode="&#xce;" horiz-adv-x="319" d="M94 0V739H226V0H94ZM38 782L-18 819L90 945H231L341 819L284 782L163 881H159L38 782Z" />
<glyph unicode="&#xcf;" horiz-adv-x="319" d="M94 0V739H226V0H94ZM40 799Q10 799 -8 818T-27 867Q-27 896 -9 915T40 935Q70 935 89 916T108 867Q108 837 89 818T40 799ZM282 799Q252 799 233 818T214 867Q214 896 233 915T282 935Q312 935 331 916T350 867Q350
837 331 818T282 799Z" />
<glyph unicode="&#xd0;" horiz-adv-x="733" d="M34 351V413L123 417H407V351H34ZM121 0V739H318Q431 739 511 698T635 576T678 372Q678 250 636 167T514 42T325 0H121ZM253 107H309Q383 107 435 135T515 223T542 372Q542 464 515 521T436 605T309 632H253V107Z" />
<glyph unicode="&#xd1;" horiz-adv-x="742" d="M94 0V739H229L458 325L535 167H540Q534 224 528 290T522 419V739H647V0H512L284 415L207 571H203Q207 513 213 449T219 322V0H94ZM462 791Q432 791 409 802T368 827T334 852T301 863Q282 863 270 848T254 799L168
806Q172 881 207 918T297 956Q328 956 351 946T391 921T425 895T458 884Q477 884 489 899T506 949L592 943Q589 867 553 829T462 791Z" />
<glyph unicode="&#xd2;" horiz-adv-x="762" d="M381 -14Q285 -14 212 33T97 166T55 372Q55 492 96 577T211 707T381 752Q478 752 551 707T665 577T707 372Q707 253 666 167T551 33T381 -14ZM381 101Q439 101 482 134T548 229T572 372Q572 455 549 514T482 606T381
638Q323 638 280 606T214 515T191 372Q191 290 214 229T280 135T381 101ZM396 778L206 909L277 996L455 844L396 778Z" />
<glyph unicode="&#xd3;" horiz-adv-x="762" d="M381 -14Q285 -14 212 33T97 166T55 372Q55 492 96 577T211 707T381 752Q478 752 551 707T665 577T707 372Q707 253 666 167T551 33T381 -14ZM381 101Q439 101 482 134T548 229T572 372Q572 455 549 514T482 606T381
638Q323 638 280 606T214 515T191 372Q191 290 214 229T280 135T381 101ZM366 778L308 844L485 996L556 909L366 778Z" />
<glyph unicode="&#xd4;" horiz-adv-x="762" d="M381 -14Q285 -14 212 33T97 166T55 372Q55 492 96 577T211 707T381 752Q478 752 551 707T665 577T707 372Q707 253 666 167T551 33T381 -14ZM381 101Q439 101 482 134T548 229T572 372Q572 455 549 514T482 606T381
638Q323 638 280 606T214 515T191 372Q191 290 214 229T280 135T381 101ZM258 782L201 819L311 945H452L561 819L504 782L383 881H379L258 782Z" />
<glyph unicode="&#xd5;" horiz-adv-x="762" d="M381 -14Q285 -14 212 33T97 166T55 372Q55 492 96 577T211 707T381 752Q478 752 551 707T665 577T707 372Q707 253 666 167T551 33T381 -14ZM381 101Q439 101 482 134T548 229T572 372Q572 455 549 514T482 606T381
638Q323 638 280 606T214 515T191 372Q191 290 214 229T280 135T381 101ZM464 791Q433 791 410 802T369 827T336 852T303 863Q285 863 272 848T255 799L169 806Q173 881 208 918T298 956Q329 956 352 946T393 921T427 895T459 884Q478 884 490 899T507 949L594
943Q590 867 554 829T464 791Z" />
<glyph unicode="&#xd6;" horiz-adv-x="762" d="M381 -14Q285 -14 212 33T97 166T55 372Q55 492 96 577T211 707T381 752Q478 752 551 707T665 577T707 372Q707 253 666 167T551 33T381 -14ZM381 101Q439 101 482 134T548 229T572 372Q572 455 549 514T482 606T381
638Q323 638 280 606T214 515T191 372Q191 290 214 229T280 135T381 101ZM260 799Q231 799 212 818T193 867Q193 896 212 915T260 935Q290 935 309 916T328 867Q328 837 309 818T260 799ZM502 799Q472 799 453 818T434 867Q434 896 453 915T502 935Q532 935 550
916T569 867Q569 837 551 818T502 799Z" />
<glyph unicode="&#xd7;" horiz-adv-x="1000" d="M763 52L501 313L239 52L174 117L435 379L174 640L239 706L501 444L763 706L828 641L566 379L828 117L763 52Z" />
<glyph unicode="&#xd8;" horiz-adv-x="762" d="M120 -40L51 13L653 779L723 725L120 -40ZM383 -14Q287 -14 214 33T99 166T57 372Q57 492 98 577T213 707T383 752Q479 752 552 707T667 577T709 372Q709 253 668 167T553 33T383 -14ZM383 101Q442 101 484 134T549
229T573 372Q573 455 550 514T484 606T383 638Q326 638 283 606T216 515T192 372Q192 290 216 229T283 135T383 101Z" />
<glyph unicode="&#xd9;" horiz-adv-x="740" d="M371 -14Q307 -14 255 5T167 64T111 169T91 324V739H222V314Q222 235 241 188T293 121T371 101Q417 101 451 121T504 188T524 314V739H651V324Q651 234 632 169T576 64T488 5T371 -14ZM385 778L194 909L266 996L443
844L385 778Z" />
<glyph unicode="&#xda;" horiz-adv-x="740" d="M371 -14Q307 -14 255 5T167 64T111 169T91 324V739H222V314Q222 235 241 188T293 121T371 101Q417 101 451 121T504 188T524 314V739H651V324Q651 234 632 169T576 64T488 5T371 -14ZM354 778L297 844L473 996L545
909L354 778Z" />
<glyph unicode="&#xdb;" horiz-adv-x="740" d="M371 -14Q307 -14 255 5T167 64T111 169T91 324V739H222V314Q222 235 241 188T293 121T371 101Q417 101 451 121T504 188T524 314V739H651V324Q651 234 632 169T576 64T488 5T371 -14ZM247 782L190 819L299 945H441L550
819L492 782L372 881H367L247 782Z" />
<glyph unicode="&#xdc;" horiz-adv-x="740" d="M371 -14Q307 -14 255 5T167 64T111 169T91 324V739H222V314Q222 235 241 188T293 121T371 101Q417 101 451 121T504 188T524 314V739H651V324Q651 234 632 169T576 64T488 5T371 -14ZM249 799Q219 799 201 818T182
867Q182 896 200 915T249 935Q279 935 298 916T317 867Q317 837 298 818T249 799ZM491 799Q461 799 442 818T423 867Q423 896 442 915T491 935Q520 935 539 916T558 867Q558 837 539 818T491 799Z" />
<glyph unicode="&#xdd;" horiz-adv-x="566" d="M217 0V275L-5 739H136L215 550Q232 509 248 470T282 387H286Q304 430 320 469T354 550L434 739H571L349 275V0H217ZM268 778L209 844L387 996L458 909L268 778Z" />
<glyph unicode="&#xde;" horiz-adv-x="679" d="M94 0V739H226V621H343Q424 621 487 600T587 529T624 393Q624 311 587 258T487 179T343 153H226V0H94ZM226 259H332Q414 259 454 292T494 393Q494 462 453 489T332 516H226V259Z" />
<glyph unicode="&#xdf;" horiz-adv-x="684" d="M458 -14Q409 -14 370 0T292 40L340 130Q370 107 397 96T453 85Q490 85 511 106T532 157Q532 184 517 202T477 235T426 263T376 296T337 339T321 403Q321 438 334 464T365 512T396 560T410 618Q410 656 389 680T328
705Q272 705 242 664T212 547V0H83V565Q83 637 110 692T192 778T329 809Q397 809 443 785T513 720T537 632Q537 591 523 562T490 510T457 466T442 419Q442 396 457 380T496 351T547 324T598 289T637 238T652 163Q652 114 629 74T563 10T458 -14Z" />
<glyph unicode="&#xe0;" horiz-adv-x="583" d="M217 -14Q168 -14 132 7T74 64T53 149Q53 239 131 287T379 355Q378 385 369 409T338 448T279 463Q237 463 198 447T122 408L75 496Q106 515 141 531T217 558T302 569Q372 569 418 541T487 460T510 329V0H403L393
61H389Q352 30 309 8T217 -14ZM259 90Q292 90 320 105T379 149V273Q304 264 260 248T198 210T179 159Q179 122 201 106T259 90ZM309 647L118 822L207 909L375 711L309 647Z" />
<glyph unicode="&#xe1;" horiz-adv-x="583" d="M217 -14Q168 -14 132 7T74 64T53 149Q53 239 131 287T379 355Q378 385 369 409T338 448T279 463Q237 463 198 447T122 408L75 496Q106 515 141 531T217 558T302 569Q372 569 418 541T487 460T510 329V0H403L393
61H389Q352 30 309 8T217 -14ZM259 90Q292 90 320 105T379 149V273Q304 264 260 248T198 210T179 159Q179 122 201 106T259 90ZM306 647L240 711L407 909L497 822L306 647Z" />
<glyph unicode="&#xe2;" horiz-adv-x="583" d="M217 -14Q168 -14 132 7T74 64T53 149Q53 239 131 287T379 355Q378 385 369 409T338 448T279 463Q237 463 198 447T122 408L75 496Q106 515 141 531T217 558T302 569Q372 569 418 541T487 460T510 329V0H403L393
61H389Q352 30 309 8T217 -14ZM259 90Q292 90 320 105T379 149V273Q304 264 260 248T198 210T179 159Q179 122 201 106T259 90ZM116 686L241 838H373L499 686L448 638L310 752H306L168 638L116 686Z" />
<glyph unicode="&#xe3;" horiz-adv-x="583" d="M217 -14Q168 -14 132 7T74 64T53 149Q53 239 131 287T379 355Q378 385 369 409T338 448T279 463Q237 463 198 447T122 408L75 496Q106 515 141 531T217 558T302 569Q372 569 418 541T487 460T510 329V0H403L393
61H389Q352 30 309 8T217 -14ZM259 90Q292 90 320 105T379 149V273Q304 264 260 248T198 210T179 159Q179 122 201 106T259 90ZM386 650Q357 650 336 662T298 691T264 720T232 733Q211 733 200 714T186 657L103 662Q104 714 118 750T160 806T229 825Q257 825 279
813T318 784T351 756T384 743Q405 743 415 762T429 817L513 813Q511 761 497 725T455 670T386 650Z" />
<glyph unicode="&#xe4;" horiz-adv-x="583" d="M217 -14Q168 -14 132 7T74 64T53 149Q53 239 131 287T379 355Q378 385 369 409T338 448T279 463Q237 463 198 447T122 408L75 496Q106 515 141 531T217 558T302 569Q372 569 418 541T487 460T510 329V0H403L393
61H389Q352 30 309 8T217 -14ZM259 90Q292 90 320 105T379 149V273Q304 264 260 248T198 210T179 159Q179 122 201 106T259 90ZM191 653Q161 653 142 673T122 721Q122 751 141 770T191 790Q222 790 241 771T260 721Q260 693 241 673T191 653ZM424 653Q394 653 374
673T354 721Q354 751 374 770T424 790Q454 790 473 771T493 721Q493 693 474 673T424 653Z" />
<glyph unicode="&#xe5;" horiz-adv-x="583" d="M217 -14Q168 -14 132 7T74 64T53 149Q53 239 131 287T379 355Q378 385 369 409T338 448T279 463Q237 463 198 447T122 408L75 496Q106 515 141 531T217 558T302 569Q372 569 418 541T487 460T510 329V0H403L393
61H389Q352 30 309 8T217 -14ZM259 90Q292 90 320 105T379 149V273Q304 264 260 248T198 210T179 159Q179 122 201 106T259 90ZM308 632Q243 632 207 665T171 746Q171 795 207 827T308 860Q374 860 409 828T444 746Q444 698 409 665T308 632ZM308 684Q331 684 347
701T364 746Q364 775 348 792T308 809Q285 809 268 792T251 746Q251 718 268 701T308 684Z" />
<glyph unicode="&#xe6;" horiz-adv-x="887" d="M224 -14Q175 -14 138 7T80 64T59 149Q59 239 136 288T382 355Q380 385 371 409T341 448T282 463Q242 463 204 447T129 408L81 496Q111 515 146 531T219 558T299 569Q356 569 395 542T456 468Q490 516 533 542T629
569Q700 569 748 535T821 440T846 302Q846 284 844 269T840 242H501Q505 194 526 161T579 109T653 90Q688 90 718 102T778 133L825 46Q784 20 737 3T636 -14Q593 -14 558 -2T494 33T443 82Q385 33 332 10T224 -14ZM266 90Q298 90 334 107T399 155Q391 174 387 198T382
247L380 273Q275 260 231 231T186 159Q186 122 208 106T266 90ZM501 324H733Q733 391 706 429T624 467Q593 467 567 450T524 402T501 324Z" />
<glyph unicode="&#xe7;" horiz-adv-x="522" d="M314 -14Q238 -14 178 20T82 120T46 277Q46 370 85 435T187 534T325 569Q377 569 417 551T487 506L424 422Q402 441 380 451T332 461Q288 461 254 439T200 375T181 277Q181 222 200 181T252 117T327 94Q360 94 389
107T442 141L495 54Q456 20 409 3T314 -14ZM192 -264L181 -206Q249 -202 274 -190T299 -153Q299 -134 281 -122T213 -103L265 4H345L312 -70Q353 -80 374 -98T396 -152Q396 -206 343 -232T192 -264Z" />
<glyph unicode="&#xe8;" horiz-adv-x="573" d="M320 -14Q243 -14 181 21T83 121T46 277Q46 345 67 398T125 490T207 549T302 569Q377 569 428 536T505 443T531 305Q531 286 530 270T525 242H174Q179 193 201 159T257 107T337 88Q372 88 403 98T465 128L510 46Q471
20 422 3T320 -14ZM172 331H419Q419 394 390 430T304 467Q273 467 245 452T198 406T172 331ZM302 647L110 822L201 909L367 711L302 647Z" />
<glyph unicode="&#xe9;" horiz-adv-x="573" d="M320 -14Q243 -14 181 21T83 121T46 277Q46 345 67 398T125 490T207 549T302 569Q377 569 428 536T505 443T531 305Q531 286 530 270T525 242H174Q179 193 201 159T257 107T337 88Q372 88 403 98T465 128L510 46Q471
20 422 3T320 -14ZM172 331H419Q419 394 390 430T304 467Q273 467 245 452T198 406T172 331ZM300 647L234 711L401 909L490 822L300 647Z" />
<glyph unicode="&#xea;" horiz-adv-x="573" d="M320 -14Q243 -14 181 21T83 121T46 277Q46 345 67 398T125 490T207 549T302 569Q377 569 428 536T505 443T531 305Q531 286 530 270T525 242H174Q179 193 201 159T257 107T337 88Q372 88 403 98T465 128L510 46Q471
20 422 3T320 -14ZM172 331H419Q419 394 390 430T304 467Q273 467 245 452T198 406T172 331ZM109 686L234 838H367L493 686L440 638L303 752H298L161 638L109 686Z" />
<glyph unicode="&#xeb;" horiz-adv-x="573" d="M320 -14Q243 -14 181 21T83 121T46 277Q46 345 67 398T125 490T207 549T302 569Q377 569 428 536T505 443T531 305Q531 286 530 270T525 242H174Q179 193 201 159T257 107T337 88Q372 88 403 98T465 128L510 46Q471
20 422 3T320 -14ZM172 331H419Q419 394 390 430T304 467Q273 467 245 452T198 406T172 331ZM184 653Q154 653 135 673T115 721Q115 751 134 770T184 790Q214 790 233 771T253 721Q253 693 234 673T184 653ZM418 653Q387 653 368 673T348 721Q348 751 367 770T418
790Q447 790 466 771T486 721Q486 693 467 673T418 653Z" />
<glyph unicode="&#xec;" horiz-adv-x="296" d="M83 0V555H214V0H83ZM150 647L-42 822L48 909L215 711L150 647Z" />
<glyph unicode="&#xed;" horiz-adv-x="296" d="M83 0V555H214V0H83ZM148 647L81 711L248 909L339 822L148 647Z" />
<glyph unicode="&#xee;" horiz-adv-x="296" d="M83 0V555H214V0H83ZM-43 686L82 838H215L340 686L288 638L151 752H146L9 638L-43 686Z" />
<glyph unicode="&#xef;" horiz-adv-x="296" d="M83 0V555H214V0H83ZM32 653Q2 653 -17 673T-37 722Q-37 751 -18 770T32 790Q63 790 82 770T101 722Q101 693 82 673T32 653ZM265 653Q235 653 216 673T196 722Q196 751 215 770T265 790Q295 790 314 770T334 722Q334
693 315 673T265 653Z" />
<glyph unicode="&#xf0;" horiz-adv-x="624" d="M306 -14Q239 -14 182 18T89 111T54 255Q54 333 86 390T170 479T285 510Q332 510 375 487T442 413L444 337Q412 381 378 396T309 411Q268 411 238 393T192 339T175 255Q175 205 193 169T242 113T310 94Q351 94 380
117T423 183T438 289Q438 382 419 452T360 575T266 670T140 750L198 831Q267 795 332 748T449 637T531 490T562 297Q562 205 531 135T442 26T306 -14ZM151 550L116 610L514 813L550 753L151 550Z" />
<glyph unicode="&#xf1;" horiz-adv-x="632" d="M83 0V555H190L201 480H203Q240 517 284 543T385 569Q474 569 515 511T556 348V0H425V331Q425 400 405 428T339 456Q303 456 276 439T214 388V0H83ZM422 650Q393 650 372 662T334 691T301 720T268 733Q247 733 236
714T223 657L139 662Q140 714 154 750T196 806T266 825Q294 825 315 813T354 784T387 756T420 743Q441 743 451 762T465 817L549 813Q548 761 534 725T492 670T422 650Z" />
<glyph unicode="&#xf2;" horiz-adv-x="620" d="M310 -14Q241 -14 181 20T83 120T46 277Q46 370 83 435T180 534T310 569Q362 569 409 550T494 493T552 401T574 277Q574 186 537 121T440 21T310 -14ZM310 94Q351 94 380 116T424 180T440 277Q440 333 425 374T380
438T310 461Q270 461 241 439T197 375T181 277Q181 222 196 181T241 117T310 94ZM312 647L121 822L210 909L377 711L312 647Z" />
<glyph unicode="&#xf3;" horiz-adv-x="620" d="M310 -14Q241 -14 181 20T83 120T46 277Q46 370 83 435T180 534T310 569Q362 569 409 550T494 493T552 401T574 277Q574 186 537 121T440 21T310 -14ZM310 94Q351 94 380 116T424 180T440 277Q440 333 425 374T380
438T310 461Q270 461 241 439T197 375T181 277Q181 222 196 181T241 117T310 94ZM308 647L242 711L410 909L500 822L308 647Z" />
<glyph unicode="&#xf4;" horiz-adv-x="620" d="M310 -14Q241 -14 181 20T83 120T46 277Q46 370 83 435T180 534T310 569Q362 569 409 550T494 493T552 401T574 277Q574 186 537 121T440 21T310 -14ZM310 94Q351 94 380 116T424 180T440 277Q440 333 425 374T380
438T310 461Q270 461 241 439T197 375T181 277Q181 222 196 181T241 117T310 94ZM119 686L244 838H376L502 686L450 638L312 752H307L170 638L119 686Z" />
<glyph unicode="&#xf5;" horiz-adv-x="620" d="M310 -14Q241 -14 181 20T83 120T46 277Q46 370 83 435T180 534T310 569Q362 569 409 550T494 493T552 401T574 277Q574 186 537 121T440 21T310 -14ZM310 94Q351 94 380 116T424 180T440 277Q440 333 425 374T380
438T310 461Q270 461 241 439T197 375T181 277Q181 222 196 181T241 117T310 94ZM388 650Q360 650 339 662T300 691T267 720T234 733Q214 733 203 714T189 657L105 662Q107 714 121 750T163 806T232 825Q260 825 282 813T321 784T354 756T387 743Q407 743 418 762T432
817L516 813Q514 761 500 725T458 670T388 650Z" />
<glyph unicode="&#xf6;" horiz-adv-x="620" d="M310 -14Q241 -14 181 20T83 120T46 277Q46 370 83 435T180 534T310 569Q362 569 409 550T494 493T552 401T574 277Q574 186 537 121T440 21T310 -14ZM310 94Q351 94 380 116T424 180T440 277Q440 333 425 374T380
438T310 461Q270 461 241 439T197 375T181 277Q181 222 196 181T241 117T310 94ZM194 653Q164 653 145 673T125 721Q125 751 144 770T194 790Q224 790 243 771T263 721Q263 693 244 673T194 653ZM426 653Q396 653 377 673T357 721Q357 751 376 770T426 790Q457
790 476 771T495 721Q495 693 476 673T426 653Z" />
<glyph unicode="&#xf7;" horiz-adv-x="1000" d="M500 713Q534 713 558 689T583 631Q583 597 559 573T500 548Q466 548 442 572T417 631Q417 665 441 689T500 713ZM857 424V332H143V424H857ZM500 208Q534 208 558 184T583 126Q583 91 559 67T500 43Q466 43 442
67T417 125Q417 159 441 183T500 208Z" />
<glyph unicode="&#xf8;" horiz-adv-x="620" d="M310 -14Q241 -14 181 20T83 120T46 277Q46 370 83 435T180 534T310 569Q362 569 409 550T494 493T552 401T574 277Q574 186 537 121T440 21T310 -14ZM310 90Q351 90 381 112T429 175T446 270Q446 334 430 377T383
443T310 466Q270 466 239 443T191 379T174 284Q174 222 191 179T238 113T310 90ZM104 -27L52 13L516 583L568 542L104 -27Z" />
<glyph unicode="&#xf9;" horiz-adv-x="629" d="M248 -14Q158 -14 117 44T76 207V555H207V223Q207 156 227 128T293 99Q329 99 357 117T416 175V555H547V0H439L429 82H426Q389 39 347 13T248 -14ZM316 647L125 822L214 909L381 711L316 647Z" />
<glyph unicode="&#xfa;" horiz-adv-x="629" d="M248 -14Q158 -14 117 44T76 207V555H207V223Q207 156 227 128T293 99Q329 99 357 117T416 175V555H547V0H439L429 82H426Q389 39 347 13T248 -14ZM313 647L247 711L415 909L504 822L313 647Z" />
<glyph unicode="&#xfb;" horiz-adv-x="629" d="M248 -14Q158 -14 117 44T76 207V555H207V223Q207 156 227 128T293 99Q329 99 357 117T416 175V555H547V0H439L429 82H426Q389 39 347 13T248 -14ZM123 686L248 838H381L506 686L454 638L316 752H312L174 638L123 686Z" />
<glyph unicode="&#xfc;" horiz-adv-x="629" d="M248 -14Q158 -14 117 44T76 207V555H207V223Q207 156 227 128T293 99Q329 99 357 117T416 175V555H547V0H439L429 82H426Q389 39 347 13T248 -14ZM198 653Q168 653 149 673T129 721Q129 751 148 770T198 790Q228
790 247 771T267 721Q267 693 248 673T198 653ZM431 653Q401 653 382 673T362 721Q362 751 381 770T431 790Q461 790 480 771T500 721Q500 693 481 673T431 653Z" />
<glyph unicode="&#xfd;" horiz-adv-x="559" d="M120 -227Q97 -227 80 -224T47 -216L72 -115Q80 -117 90 -120T112 -123Q155 -123 181 -96T221 -28L232 7L14 555H147L242 284Q255 246 266 206T291 127H296Q305 166 316 205T337 284L420 555H546L346 -25Q323 -88
294 -133T223 -202T120 -227ZM287 647L221 711L389 909L479 822L287 647Z" />
<glyph unicode="&#xfe;" horiz-adv-x="637" d="M83 -219V797H214V593L211 505Q244 532 283 550T364 569Q436 569 486 534T562 435T589 286Q589 191 555 124T467 22T352 -14Q312 -14 278 1T211 44L214 -45V-219H83ZM324 95Q361 95 390 116T437 180T454 284Q454
340 442 379T403 440T334 461Q304 461 275 446T214 399V141Q244 115 272 105T324 95Z" />
<glyph unicode="&#xff;" horiz-adv-x="559" d="M120 -227Q97 -227 80 -224T47 -216L72 -115Q80 -117 90 -120T112 -123Q155 -123 181 -96T221 -28L232 7L14 555H147L242 284Q255 246 266 206T291 127H296Q305 166 316 205T337 284L420 555H546L346 -25Q323 -88
294 -133T223 -202T120 -227ZM172 653Q142 653 123 673T104 721Q104 751 123 770T172 790Q203 790 222 771T241 721Q241 693 222 673T172 653ZM405 653Q375 653 356 673T336 721Q336 751 355 770T405 790Q436 790 455 771T474 721Q474 693 455 673T405 653Z" />
<glyph unicode="&#x2013;" horiz-adv-x="542" d="M48 243V328H494V243H48Z" />
<glyph unicode="&#x2014;" horiz-adv-x="904" d="M48 243V328H855V243H48Z" />
<glyph unicode="&#x2018;" horiz-adv-x="311" d="M153 431Q109 431 86 464T63 557Q63 631 98 686T205 779L236 720Q189 693 166 660T142 577L151 490L99 557Q111 568 124 574T153 580Q183 580 204 562T226 509Q226 473 206 452T153 431Z" />
<glyph unicode="&#x2019;" horiz-adv-x="311" d="M107 440L75 499Q122 526 146 559T170 643L161 729L212 662Q201 652 188 646T160 640Q130 640 108 658T85 711Q85 746 106 766T160 787Q203 787 226 755T249 663Q249 589 214 533T107 440Z" />
<glyph unicode="&#x201a;" horiz-adv-x="311" d="M107 -178L75 -120Q122 -92 146 -59T170 24L161 110L212 43Q201 33 188 27T160 21Q130 21 108 40T85 92Q85 128 106 149T160 170Q203 170 226 137T249 44Q249 -29 214 -84T107 -178Z" />
<glyph unicode="&#x201c;" horiz-adv-x="546" d="M153 431Q109 431 86 464T63 557Q63 631 98 686T205 779L236 720Q189 693 166 660T142 577L151 490L99 557Q111 568 124 574T153 580Q183 580 204 562T226 509Q226 473 206 452T153 431ZM387 431Q344 431 321 464T297
557Q297 631 333 686T439 779L471 720Q424 693 401 660T377 577L385 490L334 557Q346 568 359 574T387 580Q417 580 439 562T461 509Q461 473 441 452T387 431Z" />
<glyph unicode="&#x201d;" horiz-adv-x="546" d="M107 440L75 499Q122 526 146 559T170 643L161 729L212 662Q201 652 188 646T160 640Q130 640 108 658T85 711Q85 746 106 766T160 787Q203 787 226 755T249 663Q249 589 214 533T107 440ZM342 440L310 499Q357
526 381 559T405 643L396 729L447 662Q436 652 423 646T394 640Q365 640 343 658T320 711Q320 746 341 766T394 787Q438 787 461 755T484 663Q484 589 449 533T342 440Z" />
<glyph unicode="&#x201e;" horiz-adv-x="546" d="M107 -178L75 -120Q122 -92 146 -59T170 24L161 110L212 43Q201 33 188 27T160 21Q130 21 108 40T85 92Q85 128 106 149T160 170Q203 170 226 137T249 44Q249 -29 214 -84T107 -178ZM342 -178L310 -120Q357 -92
381 -59T405 24L396 110L447 43Q436 33 423 27T394 21Q365 21 343 40T320 92Q320 128 341 149T394 170Q438 170 461 137T484 44Q484 -29 449 -84T342 -178Z" />
<glyph unicode="&#x2022;" horiz-adv-x="367" d="M184 150Q146 150 115 169T64 221T45 297Q45 340 64 373T114 425T184 444Q222 444 253 425T303 373T322 297Q322 254 303 221T253 169T184 150Z" />
<glyph unicode="&#x2039;" horiz-adv-x="318" d="M206 69L53 238V332L206 501L257 458L129 284L257 110L206 69Z" />
<glyph unicode="&#x203a;" horiz-adv-x="318" d="M112 69L61 110L190 284L61 458L112 501L265 332V238L112 69Z" />
</font>
</defs>
</svg>
