<?xml version="1.0" standalone="no"?>
<!DOCTYPE svg PUBLIC "-//W3C//DTD SVG 1.1//EN" "http://www.w3.org/Graphics/SVG/1.1/DTD/svg11.dtd">
<svg xmlns="http://www.w3.org/2000/svg">
<defs >
<font id="NotoSansKR" horiz-adv-x="944" ><font-face
    font-family="Noto Sans KR Thin"
    units-per-em="1000"
    panose-1="2 11 2 0 0 0 0 0 0 0"
    ascent="1160"
    descent="-288"
    alphabetic="0" />
<glyph unicode=" " horiz-adv-x="220" />
<glyph unicode="!" horiz-adv-x="275" d="M123 190L119 668V738H156V668L152 190H123ZM137 -13Q122 -13 110 -2T97 30Q97 52 109 63T137 75Q153 75 165 64T178 30Q178 10 166 -1T137 -13Z" />
<glyph unicode="&quot;" horiz-adv-x="374" d="M99 540L92 696V763H136V696L130 540H99ZM243 540L235 696V763H280V696L272 540H243Z" />
<glyph unicode="#" horiz-adv-x="521" d="M103 0L132 240H40V272H136L161 466H62V498H163L191 715H223L195 498H365L394 715H426L398 498H488V466H395L371 272H466V240H366L338 0H306L334 240H164L135 0H103ZM168 272H339L363 466H192L168 272Z" />
<glyph unicode="$" horiz-adv-x="521" d="M268 -13Q226 -13 189 0T121 32T68 73L89 99Q119 71 164 46T268 20Q341 20 379 59T417 162Q417 211 400 244T354 299T291 339T223 374T161 413T115 468T97 549Q97 598 120 636T182 695T269 717Q331 717 368 695T435 640L412
617Q381 649 351 666T267 684Q208 684 171 646T134 552Q134 508 151 480T197 431T260 395T328 360T390 318T436 256T454 164Q454 109 429 70T362 9T268 -13ZM251 -121V-8H285V-121H251ZM251 697V825H285V697H251Z" />
<glyph unicode="%" horiz-adv-x="880" d="M198 284Q151 284 117 310T64 388T46 513Q46 586 64 636T116 712T198 739Q246 739 280 713T333 636T351 513Q351 439 333 388T281 311T198 284ZM198 313Q253 313 284 366T316 513Q316 607 285 658T198 710Q144 710 112
659T80 513Q80 419 112 366T198 313ZM216 -13L623 739H659L253 -13H216ZM682 -13Q634 -13 600 13T548 91T529 216Q529 289 547 339T600 415T682 442Q729 442 763 416T815 339T834 216Q834 142 816 91T763 14T682 -13ZM682 16Q735 16 767 69T800 216Q800 310 768
361T682 413Q627 413 595 362T563 216Q563 122 595 69T682 16Z" />
<glyph unicode="&amp;" horiz-adv-x="621" d="M247 -13Q192 -13 145 11T70 78T42 183Q42 233 65 272T126 345T204 408T283 468T343 533T367 609Q367 633 359 655T333 692T285 707Q234 707 206 670T177 583Q177 526 201 463T265 336T355 217T453 118Q494 82 533
58T607 20L594 -13Q559 0 518 25T432 90Q379 137 328 197T235 322T168 454T143 581Q143 627 161 662T212 718T287 739Q343 739 372 703T402 612Q402 567 379 530T319 460T241 398T163 335T103 267T79 185Q79 135 102 98T165 41T250 20Q301 20 345 46T427 113Q473
166 505 233T559 377H595Q572 296 537 223T453 92Q412 46 362 17T247 -13Z" />
<glyph unicode="&apos;" horiz-adv-x="231" d="M99 540L92 696V763H136V696L130 540H99Z" />
<glyph unicode="(" horiz-adv-x="299" d="M244 -191Q177 -82 138 39T99 306Q99 451 138 573T244 804L265 790Q199 686 166 562T132 306Q132 174 165 50T265 -178L244 -191Z" />
<glyph unicode=")" horiz-adv-x="299" d="M55 -191L33 -178Q99 -74 133 50T167 306Q167 438 133 562T33 790L55 804Q123 695 161 573T200 306Q200 161 162 40T55 -191Z" />
<glyph unicode="*" horiz-adv-x="427" d="M143 524L119 541L178 637L80 674L90 702L191 673L198 784H228L235 675L336 702L345 674L248 637L308 541L283 524L214 614L143 524Z" />
<glyph unicode="+" horiz-adv-x="521" d="M242 123V347H37V379H242V604H279V379H484V347H279V123H242Z" />
<glyph unicode="," horiz-adv-x="231" d="M66 -166L53 -139Q88 -119 110 -85T133 -2L118 58L155 11Q148 0 139 -3T120 -7Q103 -7 91 4T79 34Q79 54 91 64T120 75Q142 75 155 56T169 5Q169 -51 140 -95T66 -166Z" />
<glyph unicode="-" horiz-adv-x="324" d="M44 256V291H283V256H44Z" />
<glyph unicode="." horiz-adv-x="231" d="M115 -13Q100 -13 88 -2T75 30Q75 52 87 63T115 75Q131 75 143 64T156 30Q156 10 144 -1T115 -13Z" />
<glyph unicode="/" horiz-adv-x="396" d="M9 -176L359 782H393L44 -176H9Z" />
<glyph unicode="0" horiz-adv-x="521" d="M261 -13Q197 -13 151 28T80 153T55 365Q55 492 79 574T150 698T261 739Q325 739 370 698T441 575T466 365Q466 237 441 153T371 28T261 -13ZM261 20Q312 20 350 60T408 177T429 365Q429 475 409 551T350 667T261 707Q210
707 172 668T113 552T92 365Q92 254 113 177T172 60T261 20Z" />
<glyph unicode="1" horiz-adv-x="521" d="M95 0V33H262V658H135V684Q177 691 210 702T266 726H297V33H453V0H95Z" />
<glyph unicode="2" horiz-adv-x="521" d="M46 0V23Q175 134 252 224T363 390T397 535Q397 582 381 621T329 683T238 706Q189 706 146 680T69 613L44 636Q82 679 129 709T241 739Q303 739 346 714T412 643T435 535Q435 456 397 376T285 211T106 28Q136 30 166 31T225
33H471V0H46Z" />
<glyph unicode="3" horiz-adv-x="521" d="M253 -13Q197 -13 156 2T85 40T33 86L56 112Q88 78 134 49T255 20Q305 20 343 41T404 100T426 189Q426 241 400 280T319 342T174 364V399Q258 399 307 421T377 482T399 567Q399 629 359 667T251 706Q202 706 159 684T87
629L64 655Q99 689 144 714T251 739Q303 739 345 719T413 660T438 569Q438 495 399 450T301 385V381Q345 372 382 347T441 283T464 191Q464 129 436 83T361 12T253 -13Z" />
<glyph unicode="4" horiz-adv-x="521" d="M343 0V544Q343 567 344 600T348 657H343Q330 634 316 610T286 561L66 245H486V213H18V232L353 726H378V0H343Z" />
<glyph unicode="5" horiz-adv-x="521" d="M247 -13Q191 -13 151 1T81 37T29 81L52 108Q73 86 99 66T162 33T249 20Q297 20 338 46T405 119T430 229Q430 322 382 376T251 430Q211 430 180 417T118 382L88 400L114 726H431V693H147L123 426Q151 443 182 453T254
464Q314 464 362 440T439 364T468 231Q468 153 436 99T353 16T247 -13Z" />
<glyph unicode="6" horiz-adv-x="521" d="M287 -13Q234 -13 193 10T122 79T78 190T62 339Q62 451 82 528T139 651T221 718T317 739Q364 739 398 721T460 673L436 648Q413 677 382 691T316 706Q258 706 209 672T129 557T99 339Q99 247 119 175T181 62T289 20Q332
20 365 46T417 117T437 216Q437 272 421 316T370 387T278 413Q238 413 189 386T94 295V340Q120 372 149 395T212 431T280 444Q342 444 385 418T452 342T475 216Q475 150 449 99T381 17T287 -13Z" />
<glyph unicode="7" horiz-adv-x="521" d="M210 0Q215 112 228 206T267 382T332 540T426 693H48V726H474V705Q410 618 368 537T302 373T267 198T251 0H210Z" />
<glyph unicode="8" horiz-adv-x="521" d="M265 -13Q201 -13 151 12T73 81T44 180Q44 231 66 272T121 344T187 392V396Q149 421 118 461T86 559Q86 611 110 650T174 712T265 735Q325 735 366 710T430 643T452 546Q452 506 435 470T395 407T352 362V357Q382 339
410 314T457 254T475 169Q475 119 449 78T375 12T265 -13ZM318 373Q365 411 390 454T416 546Q416 588 399 623T347 681T265 703Q202 703 163 662T123 559Q123 506 152 472T226 415T318 373ZM265 20Q318 20 356 40T416 94T437 169Q437 214 418 246T368 300T296 341T214
375Q156 342 119 293T81 180Q81 136 104 100T170 42T265 20Z" />
<glyph unicode="9" horiz-adv-x="521" d="M214 -13Q164 -13 128 5T64 53L87 79Q113 49 146 35T217 20Q258 20 295 40T362 105T408 225T425 409Q425 495 405 562T343 668T234 707Q192 707 159 681T106 610T86 510Q86 455 102 411T153 340T243 313Q286 313 334 341T428
432L429 386Q404 356 375 333T312 296T240 282Q180 282 137 308T71 386T48 510Q48 576 74 628T142 709T236 739Q289 739 331 717T402 653T446 549T462 409Q462 291 442 210T386 80T307 9T214 -13Z" />
<glyph unicode=":" horiz-adv-x="231" d="M115 415Q100 415 88 426T75 458Q75 480 87 491T115 503Q131 503 143 492T156 458Q156 437 144 426T115 415ZM115 -13Q100 -13 88 -2T75 30Q75 52 87 63T115 75Q131 75 143 64T156 30Q156 10 144 -1T115 -13Z" />
<glyph unicode=";" horiz-adv-x="231" d="M115 415Q100 415 88 426T75 458Q75 480 87 491T115 503Q131 503 143 492T156 458Q156 437 144 426T115 415ZM66 -166L53 -139Q88 -119 110 -85T133 -2L118 58L155 11Q148 0 139 -3T120 -7Q103 -7 91 4T79 34Q79 54 91
64T120 75Q142 75 155 56T169 5Q169 -51 140 -95T66 -166Z" />
<glyph unicode="&lt;" horiz-adv-x="521" d="M484 166L37 345V386L484 564V528L221 425L75 367V363L221 306L484 203V166Z" />
<glyph unicode="=" horiz-adv-x="521" d="M37 458V489H484V458H37ZM37 237V269H484V237H37Z" />
<glyph unicode="&gt;" horiz-adv-x="521" d="M37 166V203L300 306L446 363V367L300 425L37 528V564L484 386V345L37 166Z" />
<glyph unicode="?" horiz-adv-x="435" d="M180 190Q173 246 187 289T226 368T277 437T322 505T341 583Q341 618 327 648T285 698T210 718Q169 718 130 700T63 646L40 667Q71 702 113 726T212 751Q265 751 302 729T358 669T378 585Q378 539 360 502T314 430T262
360T221 283T213 190H180ZM201 -13Q185 -13 173 -2T161 30Q161 52 173 63T201 75Q217 75 229 64T242 30Q242 10 230 -1T201 -13Z" />
<glyph unicode="@" horiz-adv-x="885" d="M421 -157Q342 -157 276 -132T160 -57T84 62T57 222Q57 329 92 415T187 564T325 659T488 692Q593 692 669 649T786 529T828 348Q828 279 810 226T763 137T699 83T631 64Q588 64 559 84T527 147H525Q495 116 462 93T390
70Q341 70 304 107T266 218Q266 257 279 299T319 379T383 440T470 463Q499 463 522 450T562 410H564L573 454H603L565 251Q527 96 633 96Q669 96 706 125T768 210T793 345Q793 418 772 476T710 575T613 638T485 660Q409 660 339 629T212 541T124 404T91 224Q91
144 114 80T182 -29T287 -99T423 -124Q479 -124 525 -109T610 -70L627 -98Q580 -127 529 -142T421 -157ZM394 102Q421 102 452 120T518 179L553 374Q532 406 513 418T467 430Q429 430 398 411T346 361T313 293T301 220Q301 155 328 129T394 102Z" />
<glyph unicode="A" horiz-adv-x="574" d="M11 0L270 726H303L563 0H523L372 435Q349 501 329 560T289 688H285Q265 620 245 561T201 435L48 0H11ZM123 258V290H447V258H123Z" />
<glyph unicode="B" horiz-adv-x="632" d="M110 0V726H300Q373 726 425 707T507 649T536 550Q536 512 523 480T485 426T422 392V387Q494 376 538 332T582 211Q582 142 549 95T456 24T313 0H110ZM147 404H278Q397 404 447 442T498 548Q498 628 444 661T285 694H147V404ZM147
33H300Q413 33 479 75T545 209Q545 292 481 331T300 371H147V33Z" />
<glyph unicode="C" horiz-adv-x="619" d="M362 -13Q295 -13 240 13T145 90T84 209T62 365Q62 451 84 520T146 638T242 713T368 739Q431 739 478 713T553 653L530 628Q501 662 460 683T368 704Q285 704 225 663T133 545T101 365Q101 261 133 184T224 65T364 22Q421
22 466 45T552 114L575 90Q534 42 484 15T362 -13Z" />
<glyph unicode="D" horiz-adv-x="661" d="M110 0V726H273Q386 726 458 681T564 555T599 365Q599 257 565 175T458 46T274 0H110ZM147 33H268Q371 33 435 76T530 194T560 365Q560 461 530 535T436 651T268 693H147V33Z" />
<glyph unicode="E" horiz-adv-x="562" d="M110 0V726H500V693H147V404H443V371H147V33H511V0H110Z" />
<glyph unicode="F" horiz-adv-x="518" d="M110 0V726H498V693H147V390H443V358H147V0H110Z" />
<glyph unicode="G" horiz-adv-x="661" d="M368 -13Q276 -13 207 34T100 166T62 365Q62 451 84 520T149 638T249 713T379 739Q452 739 498 711T573 653L550 628Q522 659 481 681T379 704Q293 704 231 663T135 545T101 365Q101 261 133 184T226 65T371 22Q423 22
469 37T542 80V318H363V351H581V68Q547 32 493 10T368 -13Z" />
<glyph unicode="H" horiz-adv-x="698" d="M110 0V726H147V404H551V726H589V0H551V371H147V0H110Z" />
<glyph unicode="I" horiz-adv-x="257" d="M110 0V726H147V0H110Z" />
<glyph unicode="J" horiz-adv-x="503" d="M221 -13Q163 -13 119 14T47 91L78 110Q106 62 140 42T222 22Q292 22 325 64T358 197V726H396V192Q396 135 379 89T324 15T221 -13Z" />
<glyph unicode="K" horiz-adv-x="607" d="M110 0V726H147V310H149L516 726H563L330 460L594 0H550L302 431L147 256V0H110Z" />
<glyph unicode="L" horiz-adv-x="508" d="M110 0V726H147V33H487V0H110Z" />
<glyph unicode="M" horiz-adv-x="770" d="M110 0V726H169L324 288Q339 248 354 207T384 124H388Q403 165 417 206T445 288L601 726H660V0H623V502Q623 531 623 563T625 629T627 692H623L567 532L404 81H365L201 532L144 692H140Q142 663 143 630T144 564T145 502V0H110Z" />
<glyph unicode="N" horiz-adv-x="696" d="M110 0V726H149L469 197L552 54H557Q554 107 553 157T551 259V726H587V0H547L228 529L145 672H141Q143 621 144 573T145 473V0H110Z" />
<glyph unicode="O" horiz-adv-x="714" d="M357 -13Q271 -13 205 34T100 166T62 365Q62 480 100 563T204 693T357 739Q443 739 509 693T614 564T652 365Q652 251 614 166T510 34T357 -13ZM357 22Q434 22 491 64T581 184T613 365Q613 469 581 545T492 662T357 704Q281
704 223 663T133 545T101 365Q101 261 133 184T223 65T357 22Z" />
<glyph unicode="P" horiz-adv-x="598" d="M110 0V726H285Q368 726 426 707T514 644T545 528Q545 458 515 412T428 343T289 320H147V0H110ZM147 353H276Q392 353 448 393T505 528Q505 623 448 658T272 693H147V353Z" />
<glyph unicode="Q" horiz-adv-x="714" d="M357 -13Q271 -13 205 34T100 166T62 365Q62 480 100 563T204 693T357 739Q443 739 509 693T614 564T652 365Q652 251 614 166T510 34T357 -13ZM357 20Q434 20 491 63T581 183T613 365Q613 469 581 545T492 662T357 704Q281
704 223 663T133 545T101 365Q101 261 133 184T223 63T357 20ZM566 -168Q505 -168 458 -146T378 -86T330 0H372Q387 -41 414 -70T481 -115T570 -131Q595 -131 612 -129T642 -122L651 -156Q638 -160 615 -164T566 -168Z" />
<glyph unicode="R" horiz-adv-x="589" d="M110 0V726H311Q383 726 435 707T516 647T545 539Q545 475 517 431T436 365T311 342H147V0H110ZM147 374H298Q398 374 451 414T505 539Q505 624 452 658T298 693H147V374ZM513 0L301 353L343 357L556 0H513Z" />
<glyph unicode="S" horiz-adv-x="569" d="M295 -13Q215 -13 155 18T53 97L78 123Q118 77 174 50T295 22Q382 22 433 65T485 176Q485 225 467 254T418 301T351 336L240 386Q209 400 175 421T116 476T92 564Q92 617 119 656T192 717T298 739Q364 739 414 714T496
653L473 628Q442 662 398 683T298 704Q222 704 176 667T130 568Q130 523 151 495T202 450T257 421L368 371Q409 353 444 330T500 271T522 179Q522 124 494 81T415 12T295 -13Z" />
<glyph unicode="T" horiz-adv-x="573" d="M267 0V693H33V726H540V693H306V0H267Z" />
<glyph unicode="U" horiz-adv-x="694" d="M346 -13Q302 -13 260 0T183 45T129 132T108 272V726H145V280Q145 181 173 125T248 45T346 22Q400 22 446 45T522 124T551 280V726H587V272Q587 188 567 133T511 45T433 0T346 -13Z" />
<glyph unicode="V" horiz-adv-x="532" d="M248 0L7 726H46L186 292Q207 225 224 170T265 47H269Q292 114 309 169T349 292L488 726H526L286 0H248Z" />
<glyph unicode="W" horiz-adv-x="842" d="M201 0L33 726H72L168 288Q182 229 195 170T221 50H225Q239 110 253 169T283 288L400 726H442L560 288Q575 229 589 170T619 50H624Q637 110 649 169T673 288L770 726H807L641 0H602L463 518Q453 562 444 600T423 681H419Q409
638 398 600T377 518L240 0H201Z" />
<glyph unicode="X" horiz-adv-x="519" d="M20 0L240 376L35 726H76L201 504Q216 479 229 458T261 406H265Q282 436 293 457T320 504L447 726H485L280 374L500 0H460L327 232Q312 258 295 286T258 347H254Q236 314 221 286T190 232L58 0H20Z" />
<glyph unicode="Y" horiz-adv-x="482" d="M222 0V298L4 726H44L159 492Q179 452 198 414T239 335H243Q265 375 285 413T324 492L440 726H477L259 298V0H222Z" />
<glyph unicode="Z" horiz-adv-x="592" d="M57 0V22L486 693H95V726H533V705L104 33H538V0H57Z" />
<glyph unicode="[" horiz-adv-x="299" d="M110 -167V780H278V754H138V-142H278V-167H110Z" />
<glyph unicode="\" horiz-adv-x="396" d="M352 -176L3 782H37L387 -176H352Z" />
<glyph unicode="]" horiz-adv-x="299" d="M21 -167V-142H161V754H21V780H189V-167H21Z" />
<glyph unicode="^" horiz-adv-x="521" d="M75 321L240 738H281L446 321H409L320 555L263 700H258L201 555L112 321H75Z" />
<glyph unicode="_" horiz-adv-x="550" d="M13 -126V-90H537V-126H13Z" />
<glyph unicode="`" horiz-adv-x="586" d="M330 631L177 797L205 820L351 651L330 631Z" />
<glyph unicode="a" horiz-adv-x="536" d="M218 -13Q177 -13 143 2T87 48T66 130Q66 218 149 263T410 329Q412 372 403 412T365 480T282 507Q226 507 181 485T110 443L92 472Q109 484 137 500T203 528T284 540Q346 540 381 513T431 440T446 341V0H416L411 70H408Q368
37 320 12T218 -13ZM221 20Q268 20 313 42T410 109V298Q296 286 229 264T132 209T103 131Q103 70 138 45T221 20Z" />
<glyph unicode="b" horiz-adv-x="593" d="M302 -13Q265 -13 223 5T143 53H140L135 0H105V794H141V560L138 454Q179 489 227 514T324 540Q396 540 443 507T513 413T536 271Q536 182 504 118T418 21T302 -13ZM305 20Q361 20 404 52T473 141T498 271Q498 338 481
391T425 476T321 507Q281 507 236 484T141 416V91Q186 52 230 36T305 20Z" />
<glyph unicode="c" horiz-adv-x="492" d="M295 -13Q228 -13 175 19T90 113T59 262Q59 351 92 413T179 507T296 540Q350 540 387 520T450 474L427 448Q401 473 369 490T296 507Q240 507 195 476T124 390T97 262Q97 190 122 136T191 51T296 20Q340 20 377 38T442
83L463 57Q430 28 388 8T295 -13Z" />
<glyph unicode="d" horiz-adv-x="595" d="M277 -13Q211 -13 162 18T86 111T59 262Q59 347 91 409T177 506T295 540Q343 540 380 523T457 474L454 573V794H490V0H460L455 70H453Q420 37 376 12T277 -13ZM280 20Q326 20 368 44T454 111V435Q411 474 373 490T293
507Q238 507 194 474T123 386T97 262Q97 190 118 136T181 51T280 20Z" />
<glyph unicode="e" horiz-adv-x="527" d="M300 -13Q234 -13 179 20T92 114T59 262Q59 327 77 378T128 465T201 521T286 540Q347 540 391 512T460 430T485 297Q485 289 485 281T483 261H97Q97 192 122 138T194 52T302 20Q347 20 382 33T447 68L463 37Q433 19 396
3T300 -13ZM97 294H450Q450 401 405 454T286 507Q239 507 198 482T130 409T97 294Z" />
<glyph unicode="f" horiz-adv-x="279" d="M110 0V655Q110 707 124 740T166 790T232 807Q249 807 268 803T306 790L295 759Q263 775 231 775Q186 775 166 742T145 650V0H110ZM37 494V522L110 527H270V494H37Z" />
<glyph unicode="g" horiz-adv-x="530" d="M275 -257Q208 -257 160 -239T85 -187T59 -110Q59 -75 80 -41T139 20V24Q119 36 106 57T92 108Q92 144 112 168T150 205V209Q125 231 104 268T83 354Q83 408 107 450T172 516T264 540Q287 540 304 536T333 527H509V494H383Q411
471 428 435T445 354Q445 302 421 260T356 192T264 167Q242 167 218 173T175 191Q157 177 143 158T129 111Q129 81 150 60T232 38H349Q436 38 477 10T518 -80Q518 -124 488 -165T404 -231T275 -257ZM264 200Q303 200 335 219T388 274T408 354Q408 401 389 435T337
488T264 507Q225 507 193 489T141 436T121 354Q121 309 141 274T193 220T264 200ZM277 -225Q340 -225 385 -204T456 -151T481 -84Q481 -37 449 -18T354 2H234Q229 2 211 4T170 11Q131 -15 114 -46T97 -107Q97 -159 144 -192T277 -225Z" />
<glyph unicode="h" horiz-adv-x="575" d="M105 0V794H141V560V441Q183 484 226 512T325 540Q406 540 445 491T484 339V0H448V334Q448 421 419 464T321 507Q272 507 232 481T141 403V0H105Z" />
<glyph unicode="i" horiz-adv-x="245" d="M105 0V527H141V0H105ZM124 660Q108 660 98 671T88 701Q88 718 98 728T124 739Q139 739 149 729T160 701Q160 682 150 671T124 660Z" />
<glyph unicode="j" horiz-adv-x="245" d="M31 -256Q15 -256 -3 -252T-33 -243L-24 -214Q-14 -217 1 -221T33 -225Q79 -225 92 -191T105 -106V527H141V-110Q141 -160 129 -192T93 -240T31 -256ZM122 660Q106 660 96 671T86 701Q86 718 96 728T122 739Q137 739 147
729T158 701Q158 682 148 671T122 660Z" />
<glyph unicode="k" horiz-adv-x="499" d="M105 0V794H141V194H143L414 527H456L286 319L486 0H447L265 292L141 145V0H105Z" />
<glyph unicode="l" horiz-adv-x="254" d="M159 -13Q142 -13 130 -6T112 18T105 59V794H141V53Q141 37 147 29T163 20Q166 20 170 20T182 22L189 -9Q182 -10 176 -11T159 -13Z" />
<glyph unicode="m" horiz-adv-x="889" d="M105 0V527H135L141 443H143Q179 484 223 512T310 540Q375 540 408 510T455 430Q502 481 546 510T636 540Q713 540 752 491T792 339V0H757V334Q757 421 727 464T632 507Q593 507 553 481T466 403V0H431V334Q431 421 401
464T307 507Q269 507 228 481T141 403V0H105Z" />
<glyph unicode="n" horiz-adv-x="580" d="M105 0V527H135L141 443H143Q184 484 227 512T325 540Q406 540 445 491T484 339V0H448V334Q448 421 419 464T321 507Q272 507 232 481T141 403V0H105Z" />
<glyph unicode="o" horiz-adv-x="586" d="M293 -13Q230 -13 177 19T91 113T59 262Q59 351 91 413T176 507T293 540Q340 540 382 522T457 468T508 380T527 262Q527 175 495 114T409 20T293 -13ZM293 20Q349 20 393 50T464 135T490 262Q490 335 464 390T394 476T293
507Q237 507 193 476T123 390T97 262Q97 190 122 136T192 51T293 20Z" />
<glyph unicode="p" horiz-adv-x="595" d="M105 -243V527H135L141 459H143Q182 490 228 515T324 540Q396 540 443 507T513 413T536 271Q536 182 504 118T418 21T302 -13Q265 -13 224 4T141 53V-46V-243H105ZM305 20Q361 20 404 52T473 141T498 271Q498 338 481
391T425 476T321 507Q281 507 236 484T141 416V91Q188 52 231 36T305 20Z" />
<glyph unicode="q" horiz-adv-x="595" d="M454 -243V-35L457 73Q420 38 376 13T277 -13Q211 -13 162 18T86 111T59 262Q59 347 91 409T177 506T295 540Q343 540 379 524T453 478H455L460 527H490V-243H454ZM280 20Q326 20 368 44T454 111V435Q411 474 373 490T293
507Q238 507 194 474T123 386T97 262Q97 190 118 136T181 51T280 20Z" />
<glyph unicode="r" horiz-adv-x="339" d="M105 0V527H135L141 428H143Q169 476 207 508T292 540Q306 540 318 538T343 529L334 496Q321 501 312 503T287 505Q252 505 212 474T141 364V0H105Z" />
<glyph unicode="s" horiz-adv-x="441" d="M229 -13Q170 -13 121 8T37 59L60 88Q93 60 133 40T231 20Q297 20 330 53T364 131Q364 166 344 189T294 227T232 253Q192 268 154 285T91 330T66 403Q66 440 85 471T141 521T232 540Q272 540 311 525T378 486L357 459Q331
479 301 493T230 507Q165 507 134 476T103 405Q103 374 120 354T166 320T226 294Q258 282 289 270T345 240T385 198T401 133Q401 94 381 61T323 7T229 -13Z" />
<glyph unicode="t" horiz-adv-x="334" d="M241 -13Q192 -13 165 6T128 59T117 140V494H33V522L117 527L121 681H152V527H308V494H152V135Q152 84 169 52T244 20Q259 20 278 25T311 37L323 7Q300 -1 278 -7T241 -13Z" />
<glyph unicode="u" horiz-adv-x="577" d="M255 -13Q174 -13 135 36T96 188V527H132V192Q132 105 161 63T258 20Q307 20 347 47T437 133V527H473V0H442L438 90H436Q396 44 353 16T255 -13Z" />
<glyph unicode="v" horiz-adv-x="466" d="M213 0L13 527H53L177 187Q191 149 205 111T232 37H236Q250 72 264 110T291 187L416 527H453L256 0H213Z" />
<glyph unicode="w" horiz-adv-x="742" d="M185 0L26 527H66L167 174Q176 137 185 104T203 35H208Q218 70 227 103T247 174L348 527H396L497 174Q507 137 517 104T537 35H541Q550 70 560 103T580 174L678 527H716L562 0H513L415 341Q403 379 394 416T373 491H368Q358
453 348 415T325 339L229 0H185Z" />
<glyph unicode="x" horiz-adv-x="434" d="M15 0L196 275L31 527H71L160 387Q174 365 188 344T218 300H222Q236 323 249 344T278 387L365 527H403L238 273L419 0H378L280 151Q266 176 250 200T217 248H212Q196 225 181 201T149 151L54 0H15Z" />
<glyph unicode="y" horiz-adv-x="468" d="M74 -244Q61 -244 47 -241T23 -233L32 -200Q40 -204 52 -206T76 -209Q126 -209 160 -167T216 -61L231 -12L13 527H53L186 183Q199 149 214 110T245 35H250Q263 70 276 109T300 183L418 527H455L245 -74Q232 -115 209 -154T153
-218T74 -244Z" />
<glyph unicode="z" horiz-adv-x="438" d="M29 0V19L351 494H64V527H398V507L76 33H409V0H29Z" />
<glyph unicode="{" horiz-adv-x="299" d="M244 -167Q205 -167 179 -156T139 -114T125 -29Q125 12 127 50T131 126T134 202Q134 226 127 246T99 280T40 293V320Q79 320 99 333T126 366T134 408Q134 448 132 485T127 561T125 640Q125 723 155 751T244 780H278V754H243Q191
754 174 725T156 636Q156 581 159 532T163 421Q163 375 152 347T109 308V304Q141 294 152 265T163 191Q163 130 160 80T156 -24Q156 -82 173 -112T243 -142H278V-167H244Z" />
<glyph unicode="|" horiz-adv-x="243" d="M106 -275V826H137V-275H106Z" />
<glyph unicode="}" horiz-adv-x="299" d="M21 -167V-142H55Q108 -142 125 -112T143 -24Q143 30 140 80T136 191Q136 236 147 265T189 304V308Q158 318 147 346T136 421Q136 482 139 531T143 636Q143 695 126 724T55 754H21V780H54Q114 780 144 752T174 640Q174
600 172 562T167 486T165 408Q165 386 172 366T200 333T259 320V293Q221 293 201 280T173 247T165 202Q165 164 167 127T171 51T174 -29Q174 -111 144 -139T54 -167H21Z" />
<glyph unicode="~" horiz-adv-x="521" d="M360 297Q329 297 303 312T252 347T206 382T159 397Q134 397 113 382T71 327L46 341Q68 386 99 408T162 430Q193 430 219 415T269 380T315 345T362 329Q387 329 408 344T450 399L475 383Q453 340 422 319T360 297Z" />
<glyph unicode="&#xa0;" horiz-adv-x="220" />
<glyph unicode="&#xa1;" horiz-adv-x="275" d="M119 -211V-141L123 336H152L156 -141V-211H119ZM137 451Q122 451 110 463T97 497Q97 517 109 528T137 540Q153 540 165 529T178 497Q178 475 166 463T137 451Z" />
<glyph unicode="&#xa2;" horiz-adv-x="521" d="M305 91Q237 91 184 120T99 206T68 343Q68 425 101 481T188 566T305 595Q359 595 396 575T460 529L439 505Q413 530 380 546T306 562Q249 562 204 535T132 458T105 343Q105 278 130 229T200 152T306 124Q350 124
387 142T452 186L473 162Q439 132 398 112T305 91ZM278 -29V718H310V-29H278Z" />
<glyph unicode="&#xa3;" horiz-adv-x="521" d="M64 0V22Q126 57 153 117T180 241Q180 292 166 340T138 436T123 534Q123 591 145 632T207 695T305 717Q361 717 399 694T460 640L434 617Q412 646 381 665T303 684Q233 684 197 641T160 536Q160 487 174 442T201
348T215 241Q215 168 194 122T133 37V33H462V0H64ZM59 326V355L132 357H383V326H59Z" />
<glyph unicode="&#xa4;" horiz-adv-x="521" d="M58 129L35 154L108 229Q66 283 66 361Q66 442 108 496L35 572L58 597L131 521Q185 573 261 573Q335 573 390 521L463 597L486 572L412 496Q432 470 443 436T455 361Q455 322 444 289T413 229L486 154L463 129L389
204Q364 179 331 166T261 152Q185 152 130 204L58 129ZM261 184Q303 184 338 206T396 269T418 361Q418 414 396 454T339 517T261 540Q218 540 182 517T125 454T103 361Q103 309 124 269T182 207T261 184Z" />
<glyph unicode="&#xa5;" horiz-adv-x="521" d="M242 0V185H57V217H242V297H57V329H228L35 704H75L184 484Q202 447 220 410T258 332H263Q284 373 302 410T339 484L448 704H486L290 329H464V297H277V217H464V185H277V0H242Z" />
<glyph unicode="&#xa6;" horiz-adv-x="243" d="M106 302V826H137V302H106ZM106 -275V244H137V-275H106Z" />
<glyph unicode="&#xa7;" horiz-adv-x="1000" d="M660 685Q642 700 597 719T493 738Q452 738 421 721T371 678T353 628Q353 589 378 566T444 528T532 501Q591 487 630 466T690 417T710 351Q710 311 694 273T652 211Q667 198 677 172T688 116Q688 85 675 56T637
2T573 -36T485 -50Q420 -50 380 -36T316 1L340 30Q357 13 392 -3T491 -20Q570 -20 613 19T656 112Q656 144 642 167T589 210T475 253Q405 273 365 295T307 345T289 412Q289 435 304 468T356 536Q337 550 328 574T320 618Q320 656 341 690T405 746T509 768Q573 768
618 750T683 716L660 685ZM324 410Q324 395 328 381T347 351T395 320T485 286Q535 270 564 259T608 241T631 228Q653 250 664 280T675 339Q675 377 654 401T597 442T522 469T444 491T379 518Q348 489 336 462T324 410Z" />
<glyph unicode="&#xa8;" horiz-adv-x="586" d="M198 662Q182 662 172 672T162 698Q162 713 172 723T198 734Q213 734 223 724T234 698Q234 683 224 673T198 662ZM388 662Q372 662 362 672T352 698Q352 713 362 723T388 734Q403 734 413 724T424 698Q424 683 414
673T388 662Z" />
<glyph unicode="&#xa9;" horiz-adv-x="815" d="M407 -13Q336 -13 273 13T162 87T85 203T57 354Q57 437 85 504T161 619T273 692T407 718Q478 718 541 693T653 619T730 504T758 354Q758 271 730 204T654 88T542 13T407 -13ZM407 16Q470 16 527 40T629 110T698 217T724
354Q724 429 699 490T629 596T528 665T407 689Q344 689 287 665T186 597T117 491T91 354Q91 279 116 217T186 110T287 41T407 16ZM412 136Q361 136 318 162T249 236T222 354Q222 418 249 464T322 535T418 560Q462 560 492 543T549 499L528 475Q502 499 477 512T417
525Q350 525 306 479T262 354Q262 269 303 220T415 170Q456 170 487 187T546 228L564 202Q534 175 500 156T412 136Z" />
<glyph unicode="&#xaa;" horiz-adv-x="368" d="M154 442Q108 442 78 467T48 541Q48 599 103 629T276 671Q276 715 261 746T198 778Q164 778 130 764T77 736L64 761Q84 775 120 791T200 807Q263 807 286 770T309 672V451H284L277 494H273Q250 475 220 459T154 442ZM161
472Q187 472 216 485T276 528V646Q169 634 126 609T82 543Q82 506 103 489T161 472Z" />
<glyph unicode="&#xab;" horiz-adv-x="429" d="M198 81L46 261V294L198 474L221 453L85 277L221 99L198 81ZM346 81L195 261V294L346 474L369 453L233 277L369 99L346 81Z" />
<glyph unicode="&#xac;" horiz-adv-x="521" d="M447 123V347H37V379H484V123H447Z" />
<glyph unicode="&#xad;" horiz-adv-x="324" d="M44 256V291H283V256H44Z" />
<glyph unicode="&#xae;" horiz-adv-x="433" d="M217 359Q163 359 118 385T46 458T18 570Q18 634 45 682T118 757T217 784Q271 784 316 757T388 682T415 570Q415 506 388 459T316 385T217 359ZM217 387Q263 387 301 410T361 475T384 570Q384 623 362 664T301 730T217
755Q171 755 133 731T72 665T49 570Q49 517 71 476T132 411T217 387ZM144 460V689H217Q248 689 274 674T300 618Q300 597 287 580T256 557L311 460H274L230 546H175V460H144ZM175 574H208Q234 574 250 583T267 616Q267 636 256 648T212 660H175V574Z" />
<glyph unicode="&#xaf;" horiz-adv-x="586" d="M161 669V702H426V669H161Z" />
<glyph unicode="&#xb0;" horiz-adv-x="336" d="M168 498Q137 498 109 513T64 557T46 625Q46 666 63 694T109 738T168 753Q199 753 227 738T272 695T290 625Q290 586 273 558T227 514T168 498ZM168 528Q208 528 233 556T258 625Q258 668 233 696T168 724Q128 724
103 696T78 625Q78 584 103 556T168 528Z" />
<glyph unicode="&#xb1;" horiz-adv-x="1000" d="M872 464H518V167H482V464H128V500H482V797H518V500H872V464ZM872 63V27H128V63H872Z" />
<glyph unicode="&#xb2;" horiz-adv-x="397" d="M64 451V473Q140 544 187 593T256 681T278 756Q278 806 252 835T180 864Q149 864 122 843T77 793L55 814Q73 846 108 869T183 893Q242 893 277 860T313 759Q313 713 289 671T221 584T119 481H340V451H64Z" />
<glyph unicode="&#xb3;" horiz-adv-x="397" d="M194 438Q145 438 107 462T46 519L74 539Q94 508 126 488T196 467Q239 467 269 492T300 563Q300 608 258 631T143 655V682Q211 682 247 711T283 778Q283 816 257 840T187 864Q161 864 134 847T87 804L64 825Q85 853
117 873T189 893Q225 893 254 880T301 841T318 781Q318 740 293 713T232 671Q272 664 303 637T335 563Q335 524 317 496T266 453T194 438Z" />
<glyph unicode="&#xb4;" horiz-adv-x="586" d="M256 631L235 651L382 820L409 797L256 631Z" />
<glyph unicode="&#xb5;" horiz-adv-x="592" d="M105 -198V527H141V192Q141 112 169 66T263 20Q292 20 320 28T378 63T441 148V527H477Q477 448 477 371T476 216T475 59Q475 40 484 30T506 20Q514 20 520 21T537 26L543 -4Q536 -8 526 -10T503 -13Q466 -13 454
13T442 101H440Q404 42 360 15T267 -13Q224 -13 192 1T136 58Q136 12 136 -21T136 -82T138 -137T141 -198H105Z" />
<glyph unicode="&#xb6;" horiz-adv-x="1000" d="M501 289Q456 289 412 302T330 343T270 412T247 510Q247 552 261 595T309 675T403 733T555 755Q604 755 629 753T670 748V-58H635V721H546V-58H511V289H501Z" />
<glyph unicode="&#xb7;" horiz-adv-x="529" d="M258 311Q243 311 231 323T218 354Q218 377 230 388T258 400Q273 400 286 389T299 354Q299 335 286 323T258 311Z" />
<glyph unicode="&#xb8;" horiz-adv-x="586" d="M222 -239L216 -209Q287 -204 313 -190T340 -150Q340 -125 320 -112T254 -92L299 2H331L298 -73Q333 -81 354 -97T375 -147Q375 -189 336 -211T222 -239Z" />
<glyph unicode="&#xb9;" horiz-adv-x="397" d="M196 451V813H106V838Q135 845 157 855T198 880H229V451H196Z" />
<glyph unicode="&#xba;" horiz-adv-x="395" d="M196 442Q152 442 116 464T59 527T37 625Q37 683 58 723T116 785T196 807Q240 807 276 786T333 724T355 625Q355 568 334 527T276 464T196 442ZM196 472Q252 472 286 515T320 625Q320 693 286 735T196 778Q141 778
106 736T71 625Q71 558 106 515T196 472Z" />
<glyph unicode="&#xbb;" horiz-adv-x="429" d="M82 81L59 99L196 277L59 453L82 474L234 294V261L82 81ZM231 81L208 99L344 277L208 453L231 474L383 294V261L231 81Z" />
<glyph unicode="&#xbc;" horiz-adv-x="836" d="M174 297V659H83V684Q113 691 135 701T176 726H206V297H174ZM194 -13L601 739H637L230 -13H194ZM685 0V261L690 374H685L621 282L537 158H781V129H492V147L691 429H717V0H685Z" />
<glyph unicode="&#xbd;" horiz-adv-x="858" d="M174 297V659H83V684Q113 691 135 701T176 726H206V297H174ZM167 -13L574 739H611L204 -13H167ZM525 0V23Q600 94 647 143T717 230T740 306Q740 355 713 384T641 413Q610 413 584 392T539 342L516 363Q534 395 569
418T644 442Q702 442 738 409T774 308Q774 262 750 220T682 133T580 30H801V0H525Z" />
<glyph unicode="&#xbe;" horiz-adv-x="857" d="M194 284Q145 284 107 309T46 365L74 386Q94 355 126 334T196 313Q239 313 269 338T300 409Q300 454 258 478T143 502V529Q211 529 247 558T283 625Q283 662 257 686T187 710Q161 710 134 693T87 650L64 671Q85 699
117 719T189 739Q225 739 254 726T301 687T318 627Q318 586 293 559T232 517Q272 510 303 483T335 409Q335 370 316 342T266 299T194 284ZM249 -13L656 739H692L285 -13H249ZM707 0V261L712 374H707L643 282L559 158H803V129H514V147L713 429H739V0H707Z" />
<glyph unicode="&#xbf;" horiz-adv-x="435" d="M223 -224Q170 -224 133 -202T77 -142T57 -58Q57 -13 75 24T121 96T173 166T214 243T222 336H255Q262 280 248 237T209 159T158 90T113 22T94 -56Q94 -91 108 -122T151 -173T225 -192Q266 -192 305 -173T372 -119L396
-140Q364 -175 322 -199T223 -224ZM234 451Q218 451 206 463T194 497Q194 517 206 528T234 540Q250 540 262 529T275 497Q275 475 263 463T234 451Z" />
<glyph unicode="&#xc0;" horiz-adv-x="574" d="M11 0L270 726H303L563 0H523L372 435Q349 501 329 560T289 688H285Q265 620 245 561T201 435L48 0H11ZM123 258V290H447V258H123ZM310 781L171 904L196 933L328 800L310 781Z" />
<glyph unicode="&#xc1;" horiz-adv-x="574" d="M11 0L270 726H303L563 0H523L372 435Q349 501 329 560T289 688H285Q265 620 245 561T201 435L48 0H11ZM123 258V290H447V258H123ZM263 781L246 800L377 933L402 904L263 781Z" />
<glyph unicode="&#xc2;" horiz-adv-x="574" d="M11 0L270 726H303L563 0H523L372 435Q349 501 329 560T289 688H285Q265 620 245 561T201 435L48 0H11ZM123 258V290H447V258H123ZM159 781L143 800L270 925H303L431 800L415 781L289 891H285L159 781Z" />
<glyph unicode="&#xc3;" horiz-adv-x="574" d="M11 0L270 726H303L563 0H523L372 435Q349 501 329 560T289 688H285Q265 620 245 561T201 435L48 0H11ZM123 258V290H447V258H123ZM373 794Q341 794 319 807T279 838T243 869T201 883Q176 883 159 860T137 796L110
799Q112 846 135 881T201 916Q233 916 255 903T295 871T331 840T373 826Q398 826 414 850T436 914L464 912Q463 864 440 829T373 794Z" />
<glyph unicode="&#xc4;" horiz-adv-x="574" d="M11 0L270 726H303L563 0H523L372 435Q349 501 329 560T289 688H285Q265 620 245 561T201 435L48 0H11ZM123 258V290H447V258H123ZM180 801Q166 801 156 810T145 837Q145 854 155 863T180 873Q196 873 206 864T217
837Q217 820 207 811T180 801ZM393 801Q378 801 367 810T356 837Q356 854 367 863T393 873Q408 873 418 864T429 837Q429 820 419 811T393 801Z" />
<glyph unicode="&#xc5;" horiz-adv-x="574" d="M11 0L270 726H303L563 0H523L372 435Q349 501 329 560T289 688H285Q265 620 245 561T201 435L48 0H11ZM123 258V290H447V258H123ZM287 770Q247 770 221 796T194 863Q194 906 220 931T287 956Q325 956 352 931T379
863Q379 822 352 796T287 770ZM287 795Q313 795 331 812T350 863Q350 895 332 913T287 931Q260 931 241 913T221 863Q221 829 240 812T287 795Z" />
<glyph unicode="&#xc6;" horiz-adv-x="885" d="M28 0L436 726H824V693H493V404H768V371H493V33H835V0H455V692H451Q417 629 381 564T309 431L68 0H28ZM190 248V279H487V248H190Z" />
<glyph unicode="&#xc7;" horiz-adv-x="619" d="M362 -13Q295 -13 240 13T145 90T84 209T62 365Q62 451 84 520T146 638T242 713T368 739Q431 739 478 713T553 653L530 628Q501 662 460 683T368 704Q285 704 225 663T133 545T101 365Q101 261 133 184T224 65T364
22Q421 22 466 45T552 114L575 90Q534 42 484 15T362 -13ZM290 -239L284 -209Q357 -204 383 -190T409 -150Q409 -125 389 -112T323 -92L367 2H399L366 -73Q401 -81 422 -97T443 -147Q443 -189 404 -211T290 -239Z" />
<glyph unicode="&#xc8;" horiz-adv-x="562" d="M110 0V726H500V693H147V404H443V371H147V33H511V0H110ZM343 781L204 904L229 933L360 800L343 781Z" />
<glyph unicode="&#xc9;" horiz-adv-x="562" d="M110 0V726H500V693H147V404H443V371H147V33H511V0H110ZM295 781L278 800L410 933L435 904L295 781Z" />
<glyph unicode="&#xca;" horiz-adv-x="562" d="M110 0V726H500V693H147V404H443V371H147V33H511V0H110ZM191 781L175 800L303 925H336L463 800L447 781L321 891H317L191 781Z" />
<glyph unicode="&#xcb;" horiz-adv-x="562" d="M110 0V726H500V693H147V404H443V371H147V33H511V0H110ZM213 801Q198 801 188 810T177 837Q177 854 187 863T213 873Q228 873 239 864T250 837Q250 820 239 811T213 801ZM426 801Q410 801 400 810T389 837Q389 854
399 863T426 873Q440 873 450 864T461 837Q461 820 451 811T426 801Z" />
<glyph unicode="&#xcc;" horiz-adv-x="257" d="M110 0V726H147V0H110ZM153 781L12 904L38 933L169 800L153 781Z" />
<glyph unicode="&#xcd;" horiz-adv-x="257" d="M110 0V726H147V0H110ZM104 781L88 800L219 933L244 904L104 781Z" />
<glyph unicode="&#xce;" horiz-adv-x="257" d="M110 0V726H147V0H110ZM1 781L-15 800L111 925H145L273 800L256 781L131 891H126L1 781Z" />
<glyph unicode="&#xcf;" horiz-adv-x="257" d="M110 0V726H147V0H110ZM22 801Q7 801 -3 810T-13 837Q-13 854 -3 863T22 873Q38 873 48 864T58 837Q58 820 48 811T22 801ZM234 801Q219 801 209 810T198 837Q198 854 208 863T234 873Q250 873 260 864T270 837Q270
820 260 811T234 801Z" />
<glyph unicode="&#xd0;" horiz-adv-x="683" d="M42 370V398L134 400H353V370H42ZM132 0V726H296Q408 726 480 681T586 555T621 365Q621 257 587 175T480 46T296 0H132ZM169 33H290Q393 33 457 76T552 194T582 365Q582 461 552 535T458 651T290 693H169V33Z" />
<glyph unicode="&#xd1;" horiz-adv-x="696" d="M110 0V726H149L469 197L552 54H557Q554 107 553 157T551 259V726H587V0H547L228 529L145 672H141Q143 621 144 573T145 473V0H110ZM449 794Q417 794 395 807T355 838T320 869T278 883Q253 883 236 860T214 796L187
799Q189 846 212 881T278 916Q310 916 332 903T371 871T407 840T449 826Q475 826 491 850T513 914L540 912Q539 864 516 829T449 794Z" />
<glyph unicode="&#xd2;" horiz-adv-x="714" d="M357 -13Q271 -13 205 34T100 166T62 365Q62 480 100 563T204 693T357 739Q443 739 509 693T614 564T652 365Q652 251 614 166T510 34T357 -13ZM357 22Q434 22 491 64T581 184T613 365Q613 469 581 545T492 662T357
704Q281 704 223 663T133 545T101 365Q101 261 133 184T223 65T357 22ZM381 781L241 904L266 933L397 800L381 781Z" />
<glyph unicode="&#xd3;" horiz-adv-x="714" d="M357 -13Q271 -13 205 34T100 166T62 365Q62 480 100 563T204 693T357 739Q443 739 509 693T614 564T652 365Q652 251 614 166T510 34T357 -13ZM357 22Q434 22 491 64T581 184T613 365Q613 469 581 545T492 662T357
704Q281 704 223 663T133 545T101 365Q101 261 133 184T223 65T357 22ZM333 781L317 800L448 933L473 904L333 781Z" />
<glyph unicode="&#xd4;" horiz-adv-x="714" d="M357 -13Q271 -13 205 34T100 166T62 365Q62 480 100 563T204 693T357 739Q443 739 509 693T614 564T652 365Q652 251 614 166T510 34T357 -13ZM357 22Q434 22 491 64T581 184T613 365Q613 469 581 545T492 662T357
704Q281 704 223 663T133 545T101 365Q101 261 133 184T223 65T357 22ZM230 781L213 800L340 925H374L501 800L485 781L360 891H355L230 781Z" />
<glyph unicode="&#xd5;" horiz-adv-x="714" d="M357 -13Q271 -13 205 34T100 166T62 365Q62 480 100 563T204 693T357 739Q443 739 509 693T614 564T652 365Q652 251 614 166T510 34T357 -13ZM357 22Q434 22 491 64T581 184T613 365Q613 469 581 545T492 662T357
704Q281 704 223 663T133 545T101 365Q101 261 133 184T223 65T357 22ZM443 794Q411 794 389 807T349 838T313 869T272 883Q247 883 229 860T208 796L180 799Q182 846 205 881T272 916Q304 916 326 903T365 871T400 840T442 826Q468 826 484 850T506 914L534 912Q532
864 509 829T443 794Z" />
<glyph unicode="&#xd6;" horiz-adv-x="714" d="M357 -13Q271 -13 205 34T100 166T62 365Q62 480 100 563T204 693T357 739Q443 739 509 693T614 564T652 365Q652 251 614 166T510 34T357 -13ZM357 22Q434 22 491 64T581 184T613 365Q613 469 581 545T492 662T357
704Q281 704 223 663T133 545T101 365Q101 261 133 184T223 65T357 22ZM251 801Q236 801 226 810T215 837Q215 854 225 863T251 873Q267 873 277 864T287 837Q287 820 277 811T251 801ZM463 801Q448 801 438 810T427 837Q427 854 437 863T463 873Q479 873 489 864T499
837Q499 820 489 811T463 801Z" />
<glyph unicode="&#xd7;" horiz-adv-x="1000" d="M790 57L500 347L210 57L185 82L475 372L185 661L211 687L500 397L790 687L815 662L525 372L815 82L790 57Z" />
<glyph unicode="&#xd8;" horiz-adv-x="714" d="M89 -22L64 -4L621 749L647 730L89 -22ZM362 -13Q276 -13 209 34T104 166T66 365Q66 480 104 563T209 693T362 739Q448 739 514 693T619 564T657 365Q657 251 619 166T515 34T362 -13ZM362 22Q439 22 496 64T585
184T617 365Q617 469 585 545T496 662T362 704Q286 704 228 663T138 545T105 365Q105 261 137 184T228 65T362 22Z" />
<glyph unicode="&#xd9;" horiz-adv-x="694" d="M346 -13Q302 -13 260 0T183 45T129 132T108 272V726H145V280Q145 181 173 125T248 45T346 22Q400 22 446 45T522 124T551 280V726H587V272Q587 188 567 133T511 45T433 0T346 -13ZM370 781L230 904L255 933L386
800L370 781Z" />
<glyph unicode="&#xda;" horiz-adv-x="694" d="M346 -13Q302 -13 260 0T183 45T129 132T108 272V726H145V280Q145 181 173 125T248 45T346 22Q400 22 446 45T522 124T551 280V726H587V272Q587 188 567 133T511 45T433 0T346 -13ZM322 781L306 800L437 933L462
904L322 781Z" />
<glyph unicode="&#xdb;" horiz-adv-x="694" d="M346 -13Q302 -13 260 0T183 45T129 132T108 272V726H145V280Q145 181 173 125T248 45T346 22Q400 22 446 45T522 124T551 280V726H587V272Q587 188 567 133T511 45T433 0T346 -13ZM219 781L202 800L329 925H363L490
800L473 781L349 891H344L219 781Z" />
<glyph unicode="&#xdc;" horiz-adv-x="694" d="M346 -13Q302 -13 260 0T183 45T129 132T108 272V726H145V280Q145 181 173 125T248 45T346 22Q400 22 446 45T522 124T551 280V726H587V272Q587 188 567 133T511 45T433 0T346 -13ZM240 801Q225 801 215 810T204
837Q204 854 214 863T240 873Q256 873 266 864T276 837Q276 820 266 811T240 801ZM452 801Q437 801 427 810T416 837Q416 854 426 863T452 873Q467 873 477 864T488 837Q488 820 478 811T452 801Z" />
<glyph unicode="&#xdd;" horiz-adv-x="482" d="M222 0V298L4 726H44L159 492Q179 452 198 414T239 335H243Q265 375 285 413T324 492L440 726H477L259 298V0H222ZM217 781L200 800L331 933L357 904L217 781Z" />
<glyph unicode="&#xde;" horiz-adv-x="614" d="M110 0V726H147V595H300Q382 595 439 576T526 513T556 396Q556 326 526 280T439 211T300 188H147V0H110ZM147 221H287Q403 221 459 262T516 396Q516 491 460 526T287 562H147V221Z" />
<glyph unicode="&#xdf;" horiz-adv-x="586" d="M398 -13Q355 -13 317 2T250 44L270 72Q302 46 332 33T397 20Q456 20 485 55T515 135Q515 175 498 200T455 243T398 274T341 306T297 348T280 414Q280 455 297 484T336 539T375 593T392 659Q392 709 365 740T283
772Q219 772 180 725T141 575V0H105V591Q105 659 127 706T191 779T285 805Q330 805 362 787T412 736T430 661Q430 618 413 587T374 530T335 477T318 416Q318 383 335 362T378 326T435 297T492 263T536 214T553 137Q553 94 533 60T477 7T398 -13Z" />
<glyph unicode="&#xe0;" horiz-adv-x="536" d="M218 -13Q177 -13 143 2T87 48T66 130Q66 218 149 263T410 329Q412 372 403 412T365 480T282 507Q226 507 181 485T110 443L92 472Q109 484 137 500T203 528T284 540Q346 540 381 513T431 440T446 341V0H416L411
70H408Q368 37 320 12T218 -13ZM221 20Q268 20 313 42T410 109V298Q296 286 229 264T132 209T103 131Q103 70 138 45T221 20ZM323 631L171 797L198 820L344 651L323 631Z" />
<glyph unicode="&#xe1;" horiz-adv-x="536" d="M218 -13Q177 -13 143 2T87 48T66 130Q66 218 149 263T410 329Q412 372 403 412T365 480T282 507Q226 507 181 485T110 443L92 472Q109 484 137 500T203 528T284 540Q346 540 381 513T431 440T446 341V0H416L411
70H408Q368 37 320 12T218 -13ZM221 20Q268 20 313 42T410 109V298Q296 286 229 264T132 209T103 131Q103 70 138 45T221 20ZM250 631L229 651L375 820L402 797L250 631Z" />
<glyph unicode="&#xe2;" horiz-adv-x="536" d="M218 -13Q177 -13 143 2T87 48T66 130Q66 218 149 263T410 329Q412 372 403 412T365 480T282 507Q226 507 181 485T110 443L92 472Q109 484 137 500T203 528T284 540Q346 540 381 513T431 440T446 341V0H416L411
70H408Q368 37 320 12T218 -13ZM221 20Q268 20 313 42T410 109V298Q296 286 229 264T132 209T103 131Q103 70 138 45T221 20ZM140 650L270 811H303L433 650L412 631L289 773H285L161 631L140 650Z" />
<glyph unicode="&#xe3;" horiz-adv-x="536" d="M218 -13Q177 -13 143 2T87 48T66 130Q66 218 149 263T410 329Q412 372 403 412T365 480T282 507Q226 507 181 485T110 443L92 472Q109 484 137 500T203 528T284 540Q346 540 381 513T431 440T446 341V0H416L411
70H408Q368 37 320 12T218 -13ZM221 20Q268 20 313 42T410 109V298Q296 286 229 264T132 209T103 131Q103 70 138 45T221 20ZM371 638Q340 638 318 654T279 693T243 731T201 748Q170 748 156 717T140 640L110 643Q112 675 120 706T148 757T203 778Q234 778 256
762T295 724T331 686T373 669Q404 669 418 700T433 775L463 773Q461 742 453 711T426 659T371 638Z" />
<glyph unicode="&#xe4;" horiz-adv-x="536" d="M218 -13Q177 -13 143 2T87 48T66 130Q66 218 149 263T410 329Q412 372 403 412T365 480T282 507Q226 507 181 485T110 443L92 472Q109 484 137 500T203 528T284 540Q346 540 381 513T431 440T446 341V0H416L411
70H408Q368 37 320 12T218 -13ZM221 20Q268 20 313 42T410 109V298Q296 286 229 264T132 209T103 131Q103 70 138 45T221 20ZM191 662Q176 662 166 672T155 698Q155 713 165 723T191 734Q207 734 217 724T228 698Q228 683 218 673T191 662ZM382 662Q367 662 356
672T345 698Q345 713 356 723T382 734Q397 734 407 724T418 698Q418 683 408 673T382 662Z" />
<glyph unicode="&#xe5;" horiz-adv-x="536" d="M218 -13Q177 -13 143 2T87 48T66 130Q66 218 149 263T410 329Q412 372 403 412T365 480T282 507Q226 507 181 485T110 443L92 472Q109 484 137 500T203 528T284 540Q346 540 381 513T431 440T446 341V0H416L411
70H408Q368 37 320 12T218 -13ZM221 20Q268 20 313 42T410 109V298Q296 286 229 264T132 209T103 131Q103 70 138 45T221 20ZM287 602Q244 602 215 630T185 705Q185 752 214 780T287 808Q330 808 359 780T388 705Q388 659 359 631T287 602ZM287 626Q318 626 339
647T361 705Q361 741 340 762T287 784Q256 784 234 763T212 705Q212 669 234 648T287 626Z" />
<glyph unicode="&#xe6;" horiz-adv-x="863" d="M227 -13Q186 -13 152 2T96 48T75 129Q75 218 158 263T413 329Q414 372 405 412T367 480T284 507Q233 507 189 485T119 443L100 472Q117 484 145 500T210 528T286 540Q352 540 390 502T440 402Q469 464 518 502T627
540Q688 540 731 512T798 430T822 297Q822 289 822 281T819 261H448Q447 192 472 138T542 52T642 20Q687 20 720 33T783 68L800 37Q769 19 734 3T640 -13Q592 -13 557 3T496 46T451 99Q400 48 339 18T227 -13ZM230 20Q274 20 332 48T437 129Q425 153 419 191T413
267V298Q250 279 181 239T112 131Q112 70 147 45T230 20ZM448 291H787Q787 399 744 453T627 507Q582 507 543 480T479 404T448 291Z" />
<glyph unicode="&#xe7;" horiz-adv-x="492" d="M295 -13Q228 -13 175 19T90 113T59 262Q59 351 92 413T179 507T296 540Q350 540 387 520T450 474L427 448Q401 473 369 490T296 507Q240 507 195 476T124 390T97 262Q97 190 122 136T191 51T296 20Q340 20 377 38T442
83L463 57Q430 28 388 8T295 -13ZM215 -239L208 -209Q281 -204 307 -190T333 -150Q333 -125 313 -112T248 -92L292 2H324L291 -73Q326 -81 347 -97T368 -147Q368 -189 329 -211T215 -239Z" />
<glyph unicode="&#xe8;" horiz-adv-x="527" d="M300 -13Q234 -13 179 20T92 114T59 262Q59 327 77 378T128 465T201 521T286 540Q347 540 391 512T460 430T485 297Q485 289 485 281T483 261H97Q97 192 122 138T194 52T302 20Q347 20 382 33T447 68L463 37Q433
19 396 3T300 -13ZM97 294H450Q450 401 405 454T286 507Q239 507 198 482T130 409T97 294ZM322 631L170 797L198 820L344 651L322 631Z" />
<glyph unicode="&#xe9;" horiz-adv-x="527" d="M300 -13Q234 -13 179 20T92 114T59 262Q59 327 77 378T128 465T201 521T286 540Q347 540 391 512T460 430T485 297Q485 289 485 281T483 261H97Q97 192 122 138T194 52T302 20Q347 20 382 33T447 68L463 37Q433
19 396 3T300 -13ZM97 294H450Q450 401 405 454T286 507Q239 507 198 482T130 409T97 294ZM250 631L229 651L375 820L402 797L250 631Z" />
<glyph unicode="&#xea;" horiz-adv-x="527" d="M300 -13Q234 -13 179 20T92 114T59 262Q59 327 77 378T128 465T201 521T286 540Q347 540 391 512T460 430T485 297Q485 289 485 281T483 261H97Q97 192 122 138T194 52T302 20Q347 20 382 33T447 68L463 37Q433
19 396 3T300 -13ZM97 294H450Q450 401 405 454T286 507Q239 507 198 482T130 409T97 294ZM140 650L270 811H303L433 650L412 631L288 773H284L161 631L140 650Z" />
<glyph unicode="&#xeb;" horiz-adv-x="527" d="M300 -13Q234 -13 179 20T92 114T59 262Q59 327 77 378T128 465T201 521T286 540Q347 540 391 512T460 430T485 297Q485 289 485 281T483 261H97Q97 192 122 138T194 52T302 20Q347 20 382 33T447 68L463 37Q433
19 396 3T300 -13ZM97 294H450Q450 401 405 454T286 507Q239 507 198 482T130 409T97 294ZM191 662Q176 662 166 672T155 698Q155 713 165 723T191 734Q206 734 217 724T228 698Q228 683 217 673T191 662ZM382 662Q366 662 356 672T345 698Q345 713 355 723T382
734Q396 734 407 724T418 698Q418 683 407 673T382 662Z" />
<glyph unicode="&#xec;" horiz-adv-x="245" d="M105 0V527H141V0H105ZM161 631L8 797L35 820L181 651L161 631Z" />
<glyph unicode="&#xed;" horiz-adv-x="245" d="M105 0V527H141V0H105ZM88 631L66 651L212 820L241 797L88 631Z" />
<glyph unicode="&#xee;" horiz-adv-x="245" d="M105 0V527H141V0H105ZM-23 650L107 811H141L270 650L250 631L126 773H122L-2 631L-23 650Z" />
<glyph unicode="&#xef;" horiz-adv-x="245" d="M105 0V527H141V0H105ZM29 662Q14 662 3 672T-8 698Q-8 713 3 723T29 734Q44 734 54 724T65 698Q65 683 55 673T29 662ZM219 662Q204 662 194 672T183 698Q183 713 193 723T219 734Q235 734 245 724T255 698Q255
683 245 673T219 662Z" />
<glyph unicode="&#xf0;" horiz-adv-x="586" d="M293 -13Q236 -13 185 17T101 104T68 240Q68 312 96 367T176 454T297 485Q350 485 396 459T476 382V339Q431 409 385 430T295 452Q232 452 190 423T127 345T105 240Q105 176 130 126T199 48T293 20Q356 20 396 54T455
147T474 275Q474 382 450 459T384 593T287 691T171 769L189 795Q253 761 311 716T414 609T485 465T511 276Q511 188 483 123T406 23T293 -13ZM177 571L164 596L497 771L511 746L177 571Z" />
<glyph unicode="&#xf1;" horiz-adv-x="580" d="M105 0V527H135L141 443H143Q184 484 227 512T325 540Q406 540 445 491T484 339V0H448V334Q448 421 419 464T321 507Q272 507 232 481T141 403V0H105ZM394 638Q362 638 340 654T301 693T265 731T223 748Q192 748
179 717T163 640L132 643Q134 675 142 706T170 757T225 778Q257 778 278 762T317 724T353 686T396 669Q426 669 440 700T455 775L486 773Q484 742 476 711T448 659T394 638Z" />
<glyph unicode="&#xf2;" horiz-adv-x="586" d="M293 -13Q230 -13 177 19T91 113T59 262Q59 351 91 413T176 507T293 540Q340 540 382 522T457 468T508 380T527 262Q527 175 495 114T409 20T293 -13ZM293 20Q349 20 393 50T464 135T490 262Q490 335 464 390T394
476T293 507Q237 507 193 476T123 390T97 262Q97 190 122 136T192 51T293 20ZM330 631L177 797L205 820L351 651L330 631Z" />
<glyph unicode="&#xf3;" horiz-adv-x="586" d="M293 -13Q230 -13 177 19T91 113T59 262Q59 351 91 413T176 507T293 540Q340 540 382 522T457 468T508 380T527 262Q527 175 495 114T409 20T293 -13ZM293 20Q349 20 393 50T464 135T490 262Q490 335 464 390T394
476T293 507Q237 507 193 476T123 390T97 262Q97 190 122 136T192 51T293 20ZM256 631L235 651L382 820L409 797L256 631Z" />
<glyph unicode="&#xf4;" horiz-adv-x="586" d="M293 -13Q230 -13 177 19T91 113T59 262Q59 351 91 413T176 507T293 540Q340 540 382 522T457 468T508 380T527 262Q527 175 495 114T409 20T293 -13ZM293 20Q349 20 393 50T464 135T490 262Q490 335 464 390T394
476T293 507Q237 507 193 476T123 390T97 262Q97 190 122 136T192 51T293 20ZM146 650L276 811H310L440 650L419 631L295 773H290L167 631L146 650Z" />
<glyph unicode="&#xf5;" horiz-adv-x="586" d="M293 -13Q230 -13 177 19T91 113T59 262Q59 351 91 413T176 507T293 540Q340 540 382 522T457 468T508 380T527 262Q527 175 495 114T409 20T293 -13ZM293 20Q349 20 393 50T464 135T490 262Q490 335 464 390T394
476T293 507Q237 507 193 476T123 390T97 262Q97 190 122 136T192 51T293 20ZM377 638Q346 638 324 654T285 693T250 731T208 748Q177 748 163 717T146 640L117 643Q119 675 127 706T155 757T210 778Q241 778 263 762T302 724T338 686T380 669Q410 669 424 700T440
775L470 773Q468 742 460 711T432 659T377 638Z" />
<glyph unicode="&#xf6;" horiz-adv-x="586" d="M293 -13Q230 -13 177 19T91 113T59 262Q59 351 91 413T176 507T293 540Q340 540 382 522T457 468T508 380T527 262Q527 175 495 114T409 20T293 -13ZM293 20Q349 20 393 50T464 135T490 262Q490 335 464 390T394
476T293 507Q237 507 193 476T123 390T97 262Q97 190 122 136T192 51T293 20ZM198 662Q182 662 172 672T162 698Q162 713 172 723T198 734Q213 734 223 724T234 698Q234 683 224 673T198 662ZM388 662Q372 662 362 672T352 698Q352 713 362 723T388 734Q403 734
413 724T424 698Q424 683 414 673T388 662Z" />
<glyph unicode="&#xf7;" horiz-adv-x="1000" d="M500 688Q524 688 541 671T558 630Q558 606 541 589T500 572Q476 572 459 589T442 630Q442 654 459 671T500 688ZM872 390V354H128V390H872ZM500 172Q524 172 541 155T558 114Q558 90 541 73T500 56Q476 56 459
73T442 114Q442 138 459 155T500 172Z" />
<glyph unicode="&#xf8;" horiz-adv-x="586" d="M293 -13Q230 -13 177 19T91 113T59 262Q59 351 91 413T176 507T293 540Q340 540 382 522T457 468T508 380T527 262Q527 175 495 114T409 20T293 -13ZM293 20Q349 20 393 50T464 135T490 262Q490 335 464 390T394
476T293 507Q237 507 193 476T123 390T97 263Q97 191 122 136T192 51T293 20ZM76 -24L51 -4L510 549L536 528L76 -24Z" />
<glyph unicode="&#xf9;" horiz-adv-x="577" d="M255 -13Q174 -13 135 36T96 188V527H132V192Q132 105 161 63T258 20Q307 20 347 47T437 133V527H473V0H442L438 90H436Q396 44 353 16T255 -13ZM323 631L171 797L198 820L344 651L323 631Z" />
<glyph unicode="&#xfa;" horiz-adv-x="577" d="M255 -13Q174 -13 135 36T96 188V527H132V192Q132 105 161 63T258 20Q307 20 347 47T437 133V527H473V0H442L438 90H436Q396 44 353 16T255 -13ZM251 631L229 651L375 820L403 797L251 631Z" />
<glyph unicode="&#xfb;" horiz-adv-x="577" d="M255 -13Q174 -13 135 36T96 188V527H132V192Q132 105 161 63T258 20Q307 20 347 47T437 133V527H473V0H442L438 90H436Q396 44 353 16T255 -13ZM141 650L270 811H303L433 650L412 631L289 773H285L161 631L141 650Z" />
<glyph unicode="&#xfc;" horiz-adv-x="577" d="M255 -13Q174 -13 135 36T96 188V527H132V192Q132 105 161 63T258 20Q307 20 347 47T437 133V527H473V0H442L438 90H436Q396 44 353 16T255 -13ZM191 662Q177 662 166 672T155 698Q155 713 166 723T191 734Q207 734
217 724T228 698Q228 683 218 673T191 662ZM382 662Q367 662 356 672T345 698Q345 713 356 723T382 734Q397 734 407 724T418 698Q418 683 408 673T382 662Z" />
<glyph unicode="&#xfd;" horiz-adv-x="468" d="M74 -244Q61 -244 47 -241T23 -233L32 -200Q40 -204 52 -206T76 -209Q126 -209 160 -167T216 -61L231 -12L13 527H53L186 183Q199 149 214 110T245 35H250Q263 70 276 109T300 183L418 527H455L245 -74Q232 -115
209 -154T153 -218T74 -244ZM211 631L190 651L335 820L364 797L211 631Z" />
<glyph unicode="&#xfe;" horiz-adv-x="595" d="M105 -243V794H141V562V459Q182 490 228 515T324 540Q396 540 443 507T513 413T536 271Q536 182 504 118T418 21T302 -13Q265 -13 224 4T141 53V-46V-243H105ZM305 20Q361 20 404 52T473 141T498 271Q498 338 481
391T425 476T321 507Q281 507 236 484T141 416V91Q188 52 231 36T305 20Z" />
<glyph unicode="&#xff;" horiz-adv-x="468" d="M74 -244Q61 -244 47 -241T23 -233L32 -200Q40 -204 52 -206T76 -209Q126 -209 160 -167T216 -61L231 -12L13 527H53L186 183Q199 149 214 110T245 35H250Q263 70 276 109T300 183L418 527H455L245 -74Q232 -115
209 -154T153 -218T74 -244ZM153 662Q137 662 127 672T117 698Q117 713 127 723T153 734Q168 734 178 724T188 698Q188 683 178 673T153 662ZM343 662Q327 662 317 672T307 698Q307 713 317 723T343 734Q358 734 368 724T378 698Q378 683 368 673T343 662Z" />
<glyph unicode="&#x2013;" horiz-adv-x="528" d="M44 260V291H484V260H44Z" />
<glyph unicode="&#x2014;" horiz-adv-x="881" d="M44 260V291H836V260H44Z" />
<glyph unicode="&#x2018;" horiz-adv-x="231" d="M107 547Q88 547 76 564T64 613Q64 669 87 709T151 777L169 756Q134 726 116 696T98 619L118 563L78 606Q86 616 91 619T107 622Q121 622 133 614T145 585Q145 566 135 557T107 547Z" />
<glyph unicode="&#x2019;" horiz-adv-x="231" d="M80 540L62 561Q97 591 115 621T133 699L113 754L154 712Q145 702 140 699T124 696Q111 696 99 704T86 732Q86 751 96 760T124 770Q143 770 155 754T167 705Q167 648 144 609T80 540Z" />
<glyph unicode="&#x201a;" horiz-adv-x="231" d="M80 -140L62 -119Q97 -89 115 -59T133 18L113 74L154 31Q145 21 140 18T124 15Q111 15 99 24T86 52Q86 71 96 80T124 90Q143 90 155 74T167 25Q167 -32 144 -71T80 -140Z" />
<glyph unicode="&#x201c;" horiz-adv-x="374" d="M107 547Q88 547 76 564T64 613Q64 669 87 709T151 777L169 756Q134 726 116 696T98 619L118 563L78 606Q86 616 91 619T107 622Q121 622 133 614T145 585Q145 566 135 557T107 547ZM250 547Q231 547 219 564T207
613Q207 669 230 709T294 777L312 756Q278 726 260 696T242 619L260 563L221 606Q229 616 234 619T250 622Q264 622 276 614T288 585Q288 566 278 557T250 547Z" />
<glyph unicode="&#x201d;" horiz-adv-x="374" d="M80 540L62 561Q97 591 115 621T133 699L113 754L154 712Q145 702 140 699T124 696Q111 696 99 704T86 732Q86 751 96 760T124 770Q143 770 155 754T167 705Q167 648 144 609T80 540ZM223 540L205 561Q240 591
258 621T276 699L257 754L297 712Q289 702 283 699T267 696Q254 696 242 704T229 732Q229 751 240 760T267 770Q286 770 298 754T310 705Q310 648 287 609T223 540Z" />
<glyph unicode="&#x201e;" horiz-adv-x="374" d="M80 -140L62 -119Q97 -89 115 -59T133 18L113 74L154 31Q145 21 140 18T124 15Q111 15 99 24T86 52Q86 71 96 80T124 90Q143 90 155 74T167 25Q167 -32 144 -71T80 -140ZM223 -140L205 -119Q240 -89 258 -59T276
18L257 74L297 31Q289 21 283 18T267 15Q254 15 242 24T229 52Q229 71 240 80T267 90Q286 90 298 74T310 25Q310 -32 287 -71T223 -140Z" />
<glyph unicode="&#x2022;" horiz-adv-x="301" d="M151 173Q124 173 100 187T60 227T44 290Q44 327 59 353T99 393T151 408Q177 408 201 394T241 353T257 290Q257 254 242 228T202 187T151 173Z" />
<glyph unicode="&#x2039;" horiz-adv-x="280" d="M198 81L46 261V294L198 474L221 453L85 277L221 99L198 81Z" />
<glyph unicode="&#x203a;" horiz-adv-x="280" d="M82 81L59 99L196 277L59 453L82 474L234 294V261L82 81Z" />
</font>
</defs>
</svg>
