<?xml version="1.0" standalone="no"?>
<!DOCTYPE svg PUBLIC "-//W3C//DTD SVG 1.1//EN" "http://www.w3.org/Graphics/SVG/1.1/DTD/svg11.dtd">
<svg xmlns="http://www.w3.org/2000/svg">
<defs >
<font id="NotoSansKR" horiz-adv-x="944" ><font-face
    font-family="Noto Sans KR ExtraLight"
    units-per-em="1000"
    panose-1="2 11 2 0 0 0 0 0 0 0"
    ascent="1160"
    descent="-288"
    alphabetic="0" />
<glyph unicode=" " horiz-adv-x="221" />
<glyph unicode="!" horiz-adv-x="285" d="M124 196L119 663L118 740H167L166 663L160 196H124ZM142 -13Q124 -13 111 0T97 35Q97 59 110 72T142 86Q160 86 174 73T188 35Q188 13 174 0T142 -13Z" />
<glyph unicode="&quot;" horiz-adv-x="395" d="M101 528L92 690V765H146V690L138 528H101ZM256 528L246 690L245 765H301V690L291 528H256Z" />
<glyph unicode="#" horiz-adv-x="528" d="M103 0L131 238H40V276H136L160 464H62V503H163L191 717H228L201 503H366L395 717H432L405 503H495V464H401L378 276H473V238H372L344 0H307L334 238H169L140 0H103ZM174 276H340L363 464H197L174 276Z" />
<glyph unicode="$" horiz-adv-x="528" d="M269 -13Q228 -13 190 -1T121 32T66 73L91 107Q123 78 168 54T269 29Q340 29 376 66T413 165Q413 212 396 244T350 298T288 337T220 371T158 411T113 466T95 547Q95 597 118 636T182 697T272 719Q335 719 373 696T443
640L415 611Q384 643 354 660T271 677Q214 677 178 641T142 550Q142 508 159 481T205 434T268 398T335 363T397 321T443 259T461 168Q461 112 436 72T367 9T269 -13ZM251 -121V-3H291V-121H251ZM251 696V827H291V696H251Z" />
<glyph unicode="%" horiz-adv-x="888" d="M199 284Q152 284 117 310T64 388T45 514Q45 587 63 637T117 714T199 741Q248 741 283 714T336 637T355 514Q355 440 337 389T283 311T199 284ZM199 319Q252 319 282 370T313 514Q313 607 283 656T199 706Q148 706 117
657T86 514Q86 421 117 370T199 319ZM218 -13L625 741H666L260 -13H218ZM689 -13Q641 -13 606 13T552 91T533 217Q533 290 552 340T606 416T689 443Q737 443 771 417T825 340T844 217Q844 143 825 92T772 14T689 -13ZM689 22Q740 22 771 73T803 217Q803 309 772
359T689 409Q636 409 605 359T574 217Q574 124 605 73T689 22Z" />
<glyph unicode="&amp;" horiz-adv-x="633" d="M250 -13Q192 -13 145 11T69 80T41 184Q41 235 64 275T125 347T204 409T283 469T344 532T368 607Q368 631 360 652T335 688T288 702Q239 702 212 666T184 581Q184 525 208 463T273 339T363 222T463 124Q505 89 544
65T619 29L603 -13Q566 0 524 25T435 90Q381 137 329 197T234 322T166 453T141 579Q141 626 160 662T212 719T290 741Q348 741 379 704T411 610Q411 565 388 528T328 458T250 396T172 334T112 267T88 187Q88 139 111 104T171 48T254 28Q304 28 348 54T429 120Q475
172 507 238T561 381H607Q584 299 548 226T463 94Q421 47 369 17T250 -13Z" />
<glyph unicode="&apos;" horiz-adv-x="241" d="M101 528L92 690V765H146V690L138 528H101Z" />
<glyph unicode="(" horiz-adv-x="307" d="M243 -192Q176 -82 137 39T98 307Q98 452 137 574T243 807L271 790Q206 686 173 562T139 307Q139 176 172 52T271 -176L243 -192Z" />
<glyph unicode=")" horiz-adv-x="307" d="M64 -192L35 -176Q101 -72 134 52T168 307Q168 438 135 562T35 790L64 807Q132 697 171 575T210 307Q210 161 171 40T64 -192Z" />
<glyph unicode="*" horiz-adv-x="435" d="M145 513L117 533L177 631L77 670L88 702L192 673L200 786H235L242 675L346 702L356 670L257 631L318 533L289 513L218 604L145 513Z" />
<glyph unicode="+" horiz-adv-x="528" d="M242 122V344H37V384H242V608H286V384H491V344H286V122H242Z" />
<glyph unicode="," horiz-adv-x="241" d="M68 -171L53 -138Q90 -118 113 -84T137 -1L123 64L162 12Q154 1 145 -2T124 -6Q106 -6 92 6T78 40Q78 62 92 74T125 86Q150 86 165 65T180 8Q180 -51 149 -97T68 -171Z" />
<glyph unicode="-" horiz-adv-x="329" d="M44 254V296H287V254H44Z" />
<glyph unicode="." horiz-adv-x="241" d="M120 -13Q102 -13 89 0T75 35Q75 59 88 72T120 86Q138 86 152 73T166 35Q166 13 152 0T120 -13Z" />
<glyph unicode="/" horiz-adv-x="395" d="M9 -177L349 784H390L51 -177H9Z" />
<glyph unicode="0" horiz-adv-x="528" d="M265 -13Q199 -13 152 28T79 153T54 366Q54 493 79 575T151 699T265 741Q330 741 376 700T448 576T474 366Q474 238 449 154T377 28T265 -13ZM265 28Q314 28 350 66T407 180T427 366Q427 475 407 549T351 662T265 700Q216
700 179 662T122 550T101 366Q101 256 121 181T179 67T265 28Z" />
<glyph unicode="1" horiz-adv-x="528" d="M94 0V42H260V651H132V683Q176 691 209 702T267 728H306V42H461V0H94Z" />
<glyph unicode="2" horiz-adv-x="528" d="M46 0V29Q172 138 248 227T359 391T393 533Q393 579 377 617T327 677T239 699Q191 699 149 674T74 608L43 637Q82 681 130 711T244 741Q307 741 351 715T418 643T442 534Q442 456 404 377T295 215T122 37Q151 39 181 40T241
42H478V0H46Z" />
<glyph unicode="3" horiz-adv-x="528" d="M255 -13Q199 -13 158 2T86 40T32 86L60 119Q92 85 137 57T255 29Q304 29 341 49T400 105T422 191Q422 241 397 279T318 339T175 360V403Q257 403 305 424T374 483T395 565Q395 625 357 662T252 699Q204 699 162 677T91
623L62 656Q99 691 145 716T253 741Q307 741 350 720T419 661T445 568Q445 495 407 450T310 385V381Q354 372 390 347T449 283T471 192Q471 129 443 83T365 12T255 -13Z" />
<glyph unicode="4" horiz-adv-x="528" d="M342 0V535Q342 559 344 593T347 652H343Q329 628 315 603T285 554L76 251H494V211H18V238L347 728H388V0H342Z" />
<glyph unicode="5" horiz-adv-x="528" d="M250 -13Q194 -13 153 1T82 37T29 82L56 115Q77 94 103 74T165 42T250 29Q297 29 337 54T401 124T426 230Q426 320 379 372T252 424Q213 424 183 411T122 377L88 398L113 728H438V685H156L133 430Q160 446 190 456T259
466Q320 466 368 442T446 366T475 233Q475 154 442 99T358 16T250 -13Z" />
<glyph unicode="6" horiz-adv-x="528" d="M290 -13Q237 -13 195 10T123 79T77 190T61 341Q61 452 81 529T138 652T221 720T319 741Q368 741 404 722T468 673L438 641Q416 670 385 684T319 699Q262 699 214 666T137 554T108 341Q108 249 127 179T188 68T291 28Q333
28 365 53T416 122T435 218Q435 273 419 315T370 383T281 408Q242 408 195 382T103 293V344Q128 376 157 399T219 434T286 446Q348 446 392 420T459 344T483 218Q483 151 456 99T386 17T290 -13Z" />
<glyph unicode="7" horiz-adv-x="528" d="M208 0Q213 110 226 203T264 377T328 533T422 685H48V728H481V699Q417 613 376 533T310 371T275 198T260 0H208Z" />
<glyph unicode="8" horiz-adv-x="528" d="M268 -13Q203 -13 153 12T73 81T44 180Q44 231 65 272T120 342T186 390V395Q147 420 116 461T85 559Q85 612 109 652T175 714T269 737Q329 737 371 712T435 645T458 547Q458 507 442 472T402 409T359 365V360Q389 342
417 317T464 256T482 171Q482 120 455 78T380 12T268 -13ZM320 378Q365 415 389 457T414 546Q414 587 397 621T347 676T268 698Q208 698 170 659T131 559Q131 508 159 475T230 419T320 378ZM268 27Q319 27 356 46T413 98T434 171Q434 214 416 245T367 298T297 337T217
371Q162 339 127 292T91 182Q91 139 113 104T176 48T268 27Z" />
<glyph unicode="9" horiz-adv-x="528" d="M218 -13Q166 -13 129 5T63 55L91 87Q117 58 150 44T220 29Q260 29 296 48T361 112T406 228T423 407Q423 494 403 560T343 663T238 700Q198 700 166 675T114 607T95 510Q95 456 110 413T160 345T247 320Q289 320 335 347T426
435L427 384Q403 354 374 331T311 295T241 281Q181 281 138 307T71 385T47 510Q47 577 73 629T144 711T240 741Q293 741 335 719T408 654T454 550T470 407Q470 290 449 210T393 80T312 9T218 -13Z" />
<glyph unicode=":" horiz-adv-x="241" d="M120 410Q102 410 89 422T75 458Q75 482 88 495T120 509Q138 509 152 496T166 458Q166 435 152 423T120 410ZM120 -13Q102 -13 89 0T75 35Q75 59 88 72T120 86Q138 86 152 73T166 35Q166 13 152 0T120 -13Z" />
<glyph unicode=";" horiz-adv-x="241" d="M120 410Q102 410 89 422T75 458Q75 482 88 495T120 509Q138 509 152 496T166 458Q166 435 152 423T120 410ZM68 -171L53 -138Q90 -118 113 -84T137 -1L123 64L162 12Q154 1 145 -2T124 -6Q106 -6 92 6T78 40Q78 62 92
74T125 86Q150 86 165 65T180 8Q180 -51 149 -97T68 -171Z" />
<glyph unicode="&lt;" horiz-adv-x="528" d="M491 162L37 343V390L491 570V526L233 426L87 368V364L233 307L491 208V162Z" />
<glyph unicode="=" horiz-adv-x="528" d="M37 457V496H491V457H37ZM37 233V272H491V233H37Z" />
<glyph unicode="&gt;" horiz-adv-x="528" d="M37 162V208L295 307L442 364V368L295 426L37 526V570L491 390V343L37 162Z" />
<glyph unicode="?" horiz-adv-x="443" d="M180 196Q173 252 186 294T225 372T276 440T320 506T339 582Q339 616 326 645T285 693T213 712Q173 712 135 694T70 641L41 668Q72 704 116 728T216 753Q270 753 308 731T366 671T387 585Q387 539 369 502T323 432T271
363T231 288T222 196H180ZM205 -13Q187 -13 174 0T160 35Q160 59 173 72T205 86Q224 86 237 73T251 35Q251 13 238 0T205 -13Z" />
<glyph unicode="@" horiz-adv-x="897" d="M427 -160Q347 -160 280 -135T162 -60T85 61T57 223Q57 331 92 418T189 568T329 664T495 698Q602 698 679 655T798 533T841 349Q841 279 823 226T774 136T708 81T638 62Q595 62 565 82T532 146H530Q500 114 466 92T395
69Q344 69 306 106T268 219Q268 259 282 302T322 383T387 444T475 467Q504 467 527 454T566 413H568L578 458H614L575 251Q538 100 641 100Q677 100 713 129T775 213T800 346Q800 418 779 475T717 574T620 638T491 660Q415 660 345 629T219 542T131 405T98 225Q98
145 121 81T189 -28T295 -97T430 -121Q485 -121 531 -107T616 -68L634 -102Q587 -131 535 -145T427 -160ZM401 107Q428 107 458 125T521 182L556 373Q536 404 518 415T472 427Q435 427 405 409T355 360T323 293T311 221Q311 159 337 133T401 107Z" />
<glyph unicode="A" horiz-adv-x="581" d="M9 0L266 728H314L571 0H520L373 430Q351 495 332 555T292 682H288Q269 615 249 555T206 430L58 0H9ZM125 251V292H452V251H125Z" />
<glyph unicode="B" horiz-adv-x="637" d="M108 0V728H304Q377 728 430 709T513 651T543 551Q543 513 530 481T493 427T430 393V388Q501 376 544 332T588 212Q588 142 555 95T461 24T317 0H108ZM156 408H283Q397 408 445 445T494 547Q494 624 442 655T289 687H156V408ZM156
41H304Q413 41 476 82T540 211Q540 291 478 329T304 367H156V41Z" />
<glyph unicode="C" horiz-adv-x="623" d="M365 -13Q298 -13 243 13T146 89T83 209T61 365Q61 452 83 521T147 639T245 715T371 741Q435 741 483 714T559 654L531 622Q502 655 462 675T371 696Q291 696 233 656T143 541T112 366Q112 264 143 189T231 73T368 31Q424
31 468 54T552 122L581 90Q539 42 488 15T365 -13Z" />
<glyph unicode="D" horiz-adv-x="666" d="M108 0V728H275Q388 728 461 684T569 558T605 366Q605 256 570 174T462 46T277 0H108ZM156 42H270Q369 42 432 83T525 197T555 366Q555 461 525 533T432 645T270 686H156V42Z" />
<glyph unicode="E" horiz-adv-x="567" d="M108 0V728H505V685H156V408H449V366H156V42H516V0H108Z" />
<glyph unicode="F" horiz-adv-x="525" d="M108 0V728H503V685H156V393H449V352H156V0H108Z" />
<glyph unicode="G" horiz-adv-x="667" d="M372 -13Q279 -13 209 33T100 165T61 365Q61 452 84 521T150 639T251 715T382 741Q456 741 503 713T580 654L551 622Q523 652 483 674T383 696Q299 696 238 656T145 541T112 366Q112 264 143 189T234 73T377 31Q426 31
470 46T539 86V315H365V357H588V69Q554 33 499 10T372 -13Z" />
<glyph unicode="H" horiz-adv-x="704" d="M108 0V728H156V409H548V728H597V0H548V366H156V0H108Z" />
<glyph unicode="I" horiz-adv-x="264" d="M108 0V728H156V0H108Z" />
<glyph unicode="J" horiz-adv-x="510" d="M224 -13Q164 -13 119 14T45 94L83 118Q110 71 144 51T223 31Q291 31 323 72T355 203V728H405V197Q405 139 387 91T330 15T224 -13Z" />
<glyph unicode="K" horiz-adv-x="615" d="M108 0V728H156V321H159L513 728H572L340 459L604 0H548L306 421L156 251V0H108Z" />
<glyph unicode="L" horiz-adv-x="515" d="M108 0V728H156V42H492V0H108Z" />
<glyph unicode="M" horiz-adv-x="779" d="M108 0V728H178L330 299Q345 259 359 219T388 137H392Q407 178 420 218T448 299L601 728H671V0H623V482Q623 512 624 545T626 613T629 678H625L569 516L411 80H367L208 516L151 678H147Q149 648 150 614T152 546T153 482V0H108Z" />
<glyph unicode="N" horiz-adv-x="701" d="M108 0V728H159L468 212L550 68H555Q552 121 550 173T547 278V728H594V0H543L235 515L152 660H148Q151 608 152 558T154 455V0H108Z" />
<glyph unicode="O" horiz-adv-x="720" d="M360 -13Q273 -13 206 34T100 166T61 366Q61 481 99 565T205 695T360 741Q447 741 514 695T620 565T659 366Q659 251 621 166T515 34T360 -13ZM360 31Q435 31 490 72T577 189T608 366Q608 467 577 541T491 655T360 696Q286
696 230 656T143 541T112 366Q112 264 143 189T230 73T360 31Z" />
<glyph unicode="P" horiz-adv-x="605" d="M108 0V728H290Q373 728 431 708T521 644T553 526Q553 454 522 408T434 338T294 314H156V0H108ZM156 356H281Q393 356 447 395T502 526Q502 618 447 652T277 686H156V356Z" />
<glyph unicode="Q" horiz-adv-x="720" d="M360 -13Q273 -13 206 34T100 166T61 366Q61 481 99 565T205 695T360 741Q447 741 514 695T620 565T659 366Q659 251 621 166T515 34T360 -13ZM360 29Q435 29 490 71T577 188T608 366Q608 467 577 541T491 655T360 696Q286
696 230 656T143 541T112 366Q112 264 143 189T230 71T360 29ZM572 -171Q509 -171 460 -149T378 -87T328 0L381 2Q396 -38 423 -67T490 -111T577 -126Q602 -126 619 -124T650 -117L661 -158Q647 -163 623 -167T572 -171Z" />
<glyph unicode="R" horiz-adv-x="599" d="M108 0V728H315Q387 728 441 709T524 648T553 537Q553 471 524 426T441 359T315 336H156V0H108ZM156 376H302Q399 376 451 415T503 537Q503 619 451 652T302 686H156V376ZM511 0L303 349L351 362L567 0H511Z" />
<glyph unicode="S" horiz-adv-x="575" d="M297 -13Q217 -13 156 17T52 97L83 130Q123 85 178 58T297 31Q381 31 430 72T480 178Q480 225 462 253T415 298T348 332L238 381Q207 396 173 417T114 473T90 562Q90 615 117 655T193 718T301 741Q367 741 418 716T503
654L474 622Q443 655 400 675T301 696Q228 696 184 661T140 566Q140 523 160 496T210 452T265 424L375 375Q416 357 451 333T507 274T528 182Q528 127 500 83T419 13T297 -13Z" />
<glyph unicode="T" horiz-adv-x="578" d="M264 0V685H33V728H546V685H314V0H264Z" />
<glyph unicode="U" horiz-adv-x="700" d="M349 -13Q303 -13 259 0T181 47T127 136T106 278V728H154V284Q154 187 181 132T253 54T349 31Q402 31 447 54T520 132T548 284V728H595V278Q595 193 575 137T519 47T440 1T349 -13Z" />
<glyph unicode="V" horiz-adv-x="541" d="M245 0L6 728H57L192 301Q213 235 230 179T270 57H274Q296 123 313 179T352 301L487 728H536L297 0H245Z" />
<glyph unicode="W" horiz-adv-x="849" d="M197 0L32 728H82L174 297Q188 238 200 179T225 60H229Q243 120 257 179T286 297L400 728H451L565 297Q580 239 594 180T623 60H628Q641 120 652 179T675 297L768 728H816L653 0H599L466 502Q456 546 447 584T427 666H423Q413
623 403 585T382 502L250 0H197Z" />
<glyph unicode="X" horiz-adv-x="530" d="M19 0L238 377L34 728H88L208 513Q222 487 235 465T267 413H271Q288 443 299 465T326 513L447 728H497L293 374L512 0H459L331 225Q316 251 300 279T263 341H259Q242 308 227 280T196 225L70 0H19Z" />
<glyph unicode="Y" horiz-adv-x="492" d="M221 0V295L3 728H55L166 499Q185 459 204 421T244 341H248Q270 382 290 420T328 499L439 728H488L270 295V0H221Z" />
<glyph unicode="Z" horiz-adv-x="594" d="M56 0V29L476 685H93V728H537V700L116 42H542V0H56Z" />
<glyph unicode="[" horiz-adv-x="307" d="M109 -168V782H283V751H145V-137H283V-168H109Z" />
<glyph unicode="\" horiz-adv-x="395" d="M344 -177L6 784H46L386 -177H344Z" />
<glyph unicode="]" horiz-adv-x="307" d="M24 -168V-137H162V751H24V782H198V-168H24Z" />
<glyph unicode="^" horiz-adv-x="528" d="M73 320L239 740H289L455 320H409L323 547L267 692H262L205 547L119 320H73Z" />
<glyph unicode="_" horiz-adv-x="552" d="M13 -129V-88H539V-129H13Z" />
<glyph unicode="`" horiz-adv-x="590" d="M328 633L170 800L206 831L354 658L328 633Z" />
<glyph unicode="a" horiz-adv-x="542" d="M218 -13Q176 -13 141 2T85 50T64 132Q64 220 146 266T406 332Q408 374 399 412T362 476T282 502Q227 502 183 481T111 439L90 475Q109 488 138 504T205 531T286 543Q349 543 386 516T438 442T454 340V0H414L409 69H406Q366
36 318 12T218 -13ZM225 28Q271 28 314 50T406 114V295Q297 283 233 262T140 209T112 134Q112 76 145 52T225 28Z" />
<glyph unicode="b" horiz-adv-x="598" d="M308 -13Q271 -13 229 5T150 54H147L141 0H102V794H150V564L147 459Q187 494 234 518T329 543Q401 543 448 510T519 416T542 273Q542 183 510 119T424 21T308 -13ZM307 29Q361 29 403 59T469 145T493 273Q493 338 476
390T422 471T323 501Q284 501 241 479T150 414V97Q193 60 235 45T307 29Z" />
<glyph unicode="c" horiz-adv-x="496" d="M297 -13Q229 -13 175 19T89 114T57 264Q57 353 91 415T180 510T299 543Q353 543 390 523T454 478L427 445Q401 469 370 485T300 502Q246 502 202 472T133 388T107 264Q107 194 131 141T199 59T300 29Q342 29 378 47T442
90L467 57Q433 27 391 7T297 -13Z" />
<glyph unicode="d" horiz-adv-x="600" d="M277 -13Q211 -13 162 19T85 113T58 264Q58 349 90 412T176 509T294 543Q342 543 378 527T454 478L450 576V794H498V0H459L453 69H451Q418 36 375 12T277 -13ZM283 29Q328 29 368 52T450 117V433Q409 470 372 485T295
501Q243 501 200 470T132 385T107 264Q107 193 128 141T188 59T283 29Z" />
<glyph unicode="e" horiz-adv-x="533" d="M302 -13Q235 -13 179 20T90 115T57 264Q57 329 76 380T128 468T202 524T288 543Q351 543 396 515T466 431T491 298Q491 289 491 280T488 259H106Q107 192 132 140T201 58T306 28Q350 28 384 41T449 75L469 38Q437 19
399 3T302 -13ZM106 298H446Q446 400 403 451T288 502Q243 502 204 478T138 409T106 298Z" />
<glyph unicode="f" horiz-adv-x="289" d="M109 0V650Q109 703 124 737T168 789T239 807Q257 807 277 803T316 790L303 751Q272 767 240 767Q196 767 176 735T156 646V0H109ZM36 489V525L110 530H279V489H36Z" />
<glyph unicode="g" horiz-adv-x="537" d="M275 -256Q208 -256 159 -238T84 -186T57 -109Q57 -74 78 -40T137 20V24Q117 36 104 57T90 109Q90 144 110 169T148 207V211Q123 233 102 270T81 356Q81 411 105 453T172 519T266 543Q289 543 307 540T337 530H515V490H393Q419
468 435 433T451 355Q451 302 427 260T360 193T266 168Q245 168 221 174T179 191Q162 177 149 159T135 114Q135 85 156 65T237 44H351Q440 44 482 15T524 -76Q524 -122 494 -163T407 -230T275 -256ZM266 207Q304 207 335 225T385 278T404 356Q404 401 386 434T336
486T266 504Q229 504 198 486T148 435T129 356Q129 312 148 278T198 226T266 207ZM279 -217Q340 -217 384 -197T452 -146T477 -82Q477 -37 446 -19T353 0H239Q231 0 213 2T173 9Q136 -16 120 -46T104 -104Q104 -154 150 -185T279 -217Z" />
<glyph unicode="h" horiz-adv-x="582" d="M102 0V794H150V564L149 446Q190 488 233 515T332 543Q414 543 453 493T493 340V0H445V334Q445 418 417 459T323 501Q276 501 237 476T150 401V0H102Z" />
<glyph unicode="i" horiz-adv-x="251" d="M102 0V530H150V0H102ZM127 659Q109 659 98 671T86 704Q86 723 97 734T127 746Q144 746 156 735T168 704Q168 683 156 671T127 659Z" />
<glyph unicode="j" horiz-adv-x="251" d="M32 -253Q14 -253 -5 -249T-35 -240L-24 -203Q-14 -206 1 -210T32 -214Q76 -214 89 -181T102 -97V530H150V-100Q150 -151 138 -185T99 -236T32 -253ZM125 659Q107 659 96 671T84 704Q84 723 95 734T125 746Q143 746 154
735T166 704Q166 683 155 671T125 659Z" />
<glyph unicode="k" horiz-adv-x="510" d="M102 0V794H149V207H152L414 530H469L296 320L497 0H446L269 286L149 145V0H102Z" />
<glyph unicode="l" horiz-adv-x="260" d="M165 -13Q144 -13 131 -4T110 23T102 69V794H150V63Q150 46 156 38T172 29Q176 29 180 29T192 31L200 -8Q192 -10 185 -11T165 -13Z" />
<glyph unicode="m" horiz-adv-x="897" d="M102 0V530H142L148 447H150Q186 488 229 515T318 543Q382 543 416 514T464 435Q510 485 554 514T644 543Q723 543 762 493T802 340V0H756V334Q756 418 727 459T635 501Q598 501 560 476T475 401V0H429V334Q429 418 400
459T310 501Q273 501 233 476T150 401V0H102Z" />
<glyph unicode="n" horiz-adv-x="586" d="M102 0V530H142L148 447H150Q191 488 234 515T332 543Q414 543 453 493T493 340V0H445V334Q445 418 417 459T323 501Q276 501 237 476T150 401V0H102Z" />
<glyph unicode="o" horiz-adv-x="590" d="M295 -13Q231 -13 177 19T90 114T57 264Q57 353 90 415T177 510T295 543Q343 543 386 525T462 471T514 383T533 264Q533 176 500 114T413 20T295 -13ZM295 29Q349 29 392 58T459 141T484 264Q484 335 460 388T392 471T295
502Q241 502 199 472T132 388T107 264Q107 194 131 141T198 59T295 29Z" />
<glyph unicode="p" horiz-adv-x="600" d="M102 -240V530H142L148 463H150Q189 494 235 518T330 543Q401 543 448 510T519 416T542 273Q542 183 510 119T424 21T308 -13Q271 -13 231 4T149 52L150 -46V-240H102ZM307 29Q361 29 403 59T469 145T493 273Q493 338
476 390T422 471T323 501Q284 501 241 479T150 414V97Q195 60 236 45T307 29Z" />
<glyph unicode="q" horiz-adv-x="600" d="M450 -240V-35L454 71Q417 37 374 12T277 -13Q211 -13 162 19T85 113T58 264Q58 349 90 412T176 509T294 543Q342 543 378 527T451 481H453L459 530H498V-240H450ZM283 29Q328 29 368 52T450 117V433Q409 470 372 485T295
501Q243 501 200 470T132 385T107 264Q107 193 128 141T188 59T283 29Z" />
<glyph unicode="r" horiz-adv-x="349" d="M102 0V530H142L148 431H150Q177 480 215 511T300 543Q315 543 327 541T353 532L342 490Q329 495 320 497T294 499Q259 499 220 468T150 361V0H102Z" />
<glyph unicode="s" horiz-adv-x="447" d="M230 -13Q171 -13 122 8T36 60L63 95Q97 67 136 48T232 28Q296 28 328 59T360 133Q360 167 341 189T291 226T229 252Q190 266 153 283T90 329T65 403Q65 441 84 473T142 524T235 543Q278 543 317 528T386 488L360 455Q334
475 304 489T234 503Q172 503 142 473T112 405Q112 376 129 356T175 323T234 298Q266 286 296 274T352 244T392 201T407 136Q407 96 387 62T327 8T230 -13Z" />
<glyph unicode="t" horiz-adv-x="343" d="M245 -13Q195 -13 167 6T127 62T115 146V489H32V525L116 530L121 684H162V530H316V489H162V141Q162 91 179 60T252 28Q267 28 285 33T318 45L331 7Q308 -1 285 -7T245 -13Z" />
<glyph unicode="u" horiz-adv-x="583" d="M254 -13Q172 -13 133 37T94 190V530H141V196Q141 111 169 70T262 29Q310 29 349 55T434 138V530H482V0H442L437 89H435Q395 43 352 15T254 -13Z" />
<glyph unicode="v" horiz-adv-x="477" d="M212 0L13 530H64L184 197Q198 158 211 119T238 45H242Q256 80 269 119T296 197L416 530H464L268 0H212Z" />
<glyph unicode="w" horiz-adv-x="754" d="M184 0L26 530H77L174 185Q183 148 192 114T209 44H214Q224 79 233 113T253 185L350 530H407L504 185Q514 148 524 114T544 44H548Q557 79 566 113T586 185L680 530H728L576 0H514L420 331Q408 369 399 406T379 482H374Q364
444 355 406T332 329L240 0H184Z" />
<glyph unicode="x" horiz-adv-x="447" d="M15 0L196 277L31 530H83L168 395Q182 372 196 351T225 307H230Q243 330 256 351T284 395L367 530H417L252 273L432 0H379L285 146Q271 171 255 195T223 243H218Q202 220 187 196T156 146L66 0H15Z" />
<glyph unicode="y" horiz-adv-x="479" d="M80 -242Q65 -242 51 -239T26 -231L37 -190Q45 -194 56 -196T80 -199Q130 -199 163 -158T217 -57L231 -10L13 530H64L193 195Q206 161 221 122T250 46H255Q268 81 280 121T304 195L418 530H466L257 -68Q243 -112 219 -151T161
-216T80 -242Z" />
<glyph unicode="z" horiz-adv-x="446" d="M30 0V25L345 489H64V530H406V504L91 41H417V0H30Z" />
<glyph unicode="{" horiz-adv-x="307" d="M246 -168Q206 -168 179 -156T139 -114T125 -27Q125 14 127 51T131 126T134 200Q134 224 127 244T99 278T40 291V324Q79 324 99 337T126 370T134 412Q134 451 132 488T127 562T125 640Q125 724 155 753T246 782H283V751H250Q199
751 182 723T165 636Q165 582 168 533T172 424Q172 376 160 348T115 309V305Q148 295 160 266T172 190Q172 130 169 81T165 -22Q165 -79 182 -108T250 -137H283V-168H246Z" />
<glyph unicode="|" horiz-adv-x="248" d="M105 -276V829H143V-276H105Z" />
<glyph unicode="}" horiz-adv-x="307" d="M24 -168V-137H57Q108 -137 125 -108T142 -22Q142 31 139 80T136 190Q136 237 147 266T191 305V309Q159 319 148 347T136 424Q136 484 139 533T142 636Q142 694 125 722T57 751H24V782H60Q121 782 151 753T182 640Q182
600 180 563T175 488T173 412Q173 390 180 370T209 337T267 324V291Q230 291 209 278T181 245T173 200Q173 163 175 126T179 52T182 -27Q182 -110 152 -139T60 -168H24Z" />
<glyph unicode="~" horiz-adv-x="528" d="M363 295Q332 295 306 310T255 344T209 379T163 394Q138 394 117 379T75 324L45 343Q69 389 101 411T166 434Q197 434 223 419T273 385T319 350T365 335Q390 335 411 350T453 404L483 384Q459 339 427 317T363 295Z" />
<glyph unicode="&#xa0;" horiz-adv-x="221" />
<glyph unicode="&#xa1;" horiz-adv-x="285" d="M118 -210L119 -133L124 333H160L166 -133L167 -210H118ZM142 444Q124 444 111 457T97 495Q97 517 110 530T142 543Q160 543 174 530T188 495Q188 471 174 458T142 444Z" />
<glyph unicode="&#xa2;" horiz-adv-x="528" d="M310 88Q241 88 186 118T100 205T68 344Q68 427 102 483T191 569T312 599Q366 599 403 579T468 533L442 502Q416 527 385 542T313 557Q257 557 212 531T142 456T116 344Q116 280 140 232T209 157T313 130Q356 130
392 148T455 190L480 159Q446 129 404 109T310 88ZM281 -31V721H318V-31H281Z" />
<glyph unicode="&#xa3;" horiz-adv-x="528" d="M63 0V29Q124 63 152 122T180 244Q180 294 166 341T138 435T123 531Q123 590 146 632T210 696T311 719Q367 719 406 696T469 640L438 612Q416 640 386 658T310 677Q242 677 207 635T171 532Q171 485 184 441T211
349T224 244Q224 174 204 129T145 46V42H471V0H63ZM59 325V359L132 362H390V325H59Z" />
<glyph unicode="&#xa4;" horiz-adv-x="528" d="M62 126L34 156L107 231Q65 285 65 362Q65 443 107 496L34 572L62 602L136 526Q190 576 265 576Q337 576 392 526L466 602L494 572L420 496Q440 471 451 437T463 362Q463 323 452 290T421 231L494 156L466 126L391
202Q366 177 333 165T265 152Q190 152 135 202L62 126ZM265 191Q305 191 339 212T395 273T416 362Q416 414 395 452T340 513T265 536Q223 536 188 514T133 453T112 362Q112 312 132 273T188 213T265 191Z" />
<glyph unicode="&#xa5;" horiz-adv-x="528" d="M240 0V183H56V220H240V298H56V334H224L33 706H85L189 492Q207 455 225 418T262 340H267Q287 381 304 418T341 492L446 706H495L301 334H472V298H286V220H472V183H286V0H240Z" />
<glyph unicode="&#xa6;" horiz-adv-x="248" d="M105 307V829H143V307H105ZM105 -276V243H143V-276H105Z" />
<glyph unicode="&#xa7;" horiz-adv-x="1000" d="M662 682Q643 697 599 715T496 733Q456 733 425 717T377 676T359 628Q359 591 383 568T447 531T533 505Q593 490 633 469T694 419T715 351Q715 310 699 272T655 210Q670 198 681 172T692 115Q692 82 678 52T638
-2T573 -39T485 -53Q421 -53 379 -39T312 -2L337 33Q355 17 391 1T490 -16Q566 -16 608 21T650 110Q650 140 636 162T584 204T474 246Q405 266 364 288T303 339T284 408Q284 432 300 466T354 533Q335 547 326 572T317 617Q317 657 339 691T405 748T511 770Q574
770 619 752T685 719L662 682ZM328 409Q328 394 332 380T351 351T397 321T483 288Q532 272 560 262T604 244T628 231Q650 252 660 280T671 337Q671 374 650 398T595 437T522 464T446 486T381 513Q352 485 340 459T328 409Z" />
<glyph unicode="&#xa8;" horiz-adv-x="590" d="M198 661Q180 661 169 672T158 701Q158 717 169 729T198 741Q214 741 225 729T237 701Q237 684 226 673T198 661ZM393 661Q375 661 364 672T353 701Q353 717 364 729T393 741Q409 741 420 729T432 701Q432 684 421
673T393 661Z" />
<glyph unicode="&#xa9;" horiz-adv-x="819" d="M409 -13Q337 -13 274 13T162 88T85 204T57 355Q57 439 85 506T162 621T274 695T409 721Q480 721 544 696T657 622T734 506T762 355Q762 272 734 205T657 88T544 13T409 -13ZM409 20Q472 20 529 44T630 113T699 219T724
355Q724 430 699 491T630 596T529 664T409 688Q346 688 289 665T189 597T120 491T94 355Q94 281 119 220T188 113T289 44T409 20ZM415 137Q362 137 319 163T249 237T222 355Q222 420 250 466T323 537T420 563Q465 563 496 546T553 501L528 473Q503 497 478 509T420
522Q354 522 312 477T269 355Q269 273 309 225T418 176Q458 176 488 192T545 233L566 202Q536 175 502 156T415 137Z" />
<glyph unicode="&#xaa;" horiz-adv-x="372" d="M154 440Q107 440 77 466T47 540Q47 599 101 629T273 671Q273 713 258 743T197 773Q164 773 131 760T78 732L62 761Q84 776 121 791T201 807Q265 807 289 770T314 670V449H283L275 492H271Q249 472 219 456T154 440ZM163
475Q189 475 216 488T273 529V642Q171 631 130 606T88 543Q88 508 108 492T163 475Z" />
<glyph unicode="&#xab;" horiz-adv-x="439" d="M199 80L47 258V299L199 477L225 454L90 278L225 100L199 80ZM353 80L202 258V299L353 477L379 454L244 278L379 100L353 80Z" />
<glyph unicode="&#xac;" horiz-adv-x="528" d="M446 122V344H37V384H491V122H446Z" />
<glyph unicode="&#xad;" horiz-adv-x="329" d="M44 254V296H287V254H44Z" />
<glyph unicode="&#xae;" horiz-adv-x="441" d="M221 359Q166 359 121 385T48 459T20 571Q20 636 47 684T120 759T221 787Q276 787 321 760T394 684T421 571Q421 507 394 459T322 385T221 359ZM221 389Q267 389 305 412T365 477T388 571Q388 624 366 665T305 731T221
755Q175 755 137 731T76 666T53 571Q53 518 75 477T136 413T221 389ZM146 461V690H222Q254 690 280 675T306 619Q306 598 293 581T262 557L316 461H277L233 546H180V461H146ZM180 575H212Q238 575 253 584T269 616Q269 636 258 647T216 659H180V575Z" />
<glyph unicode="&#xaf;" horiz-adv-x="590" d="M160 669V709H431V669H160Z" />
<glyph unicode="&#xb0;" horiz-adv-x="343" d="M172 494Q139 494 111 510T64 555T46 624Q46 666 64 695T110 740T172 756Q204 756 232 740T279 695T297 624Q297 585 279 556T233 510T172 494ZM172 529Q211 529 235 556T260 624Q260 667 236 694T172 722Q132 722
108 695T83 624Q83 584 107 557T172 529Z" />
<glyph unicode="&#xb1;" horiz-adv-x="1000" d="M870 463H521V171H479V463H130V506H479V799H521V506H870V463ZM871 68V25H130V68H871Z" />
<glyph unicode="&#xb2;" horiz-adv-x="400" d="M63 449V475Q137 544 184 592T253 678T275 752Q275 801 250 829T180 857Q150 857 124 837T79 788L53 812Q72 846 108 869T185 893Q245 893 281 859T317 757Q317 712 294 671T228 585T130 485H344V449H63Z" />
<glyph unicode="&#xb3;" horiz-adv-x="400" d="M196 436Q146 436 107 460T45 518L77 541Q97 510 128 491T196 471Q238 471 267 495T297 563Q297 607 257 629T144 652V683Q210 683 245 711T280 775Q280 812 255 835T187 858Q162 858 136 842T90 799L63 824Q85 853
117 873T191 893Q228 893 258 879T305 840T322 779Q322 739 298 712T238 670Q278 662 308 635T339 562Q339 523 320 495T269 451T196 436Z" />
<glyph unicode="&#xb4;" horiz-adv-x="590" d="M262 633L236 658L385 831L420 800L262 633Z" />
<glyph unicode="&#xb5;" horiz-adv-x="599" d="M102 -198V530H150V196Q150 118 177 74T267 29Q295 29 322 37T378 71T438 153V530H486Q485 452 485 375T484 222T483 69Q483 49 492 39T516 29Q524 29 530 30T547 35L554 -3Q546 -8 535 -10T509 -13Q470 -13 456
13T441 99H439Q404 42 361 15T270 -13Q229 -13 198 0T144 55Q144 10 144 -23T145 -83T147 -138T150 -198H102Z" />
<glyph unicode="&#xb6;" horiz-adv-x="1000" d="M494 290Q451 290 408 303T328 344T269 413T246 510Q246 553 260 596T308 676T402 735T556 757Q605 757 631 755T674 750V-58H633V717H545V-58H504V290H494Z" />
<glyph unicode="&#xb7;" horiz-adv-x="535" d="M262 307Q244 307 230 321T216 356Q216 381 230 394T262 407Q279 407 293 394T308 356Q308 335 294 321T262 307Z" />
<glyph unicode="&#xb8;" horiz-adv-x="590" d="M220 -242L214 -209Q284 -204 310 -190T337 -150Q337 -126 318 -113T251 -93L297 2H335L302 -73Q337 -81 358 -97T379 -148Q379 -191 338 -214T220 -242Z" />
<glyph unicode="&#xb9;" horiz-adv-x="400" d="M195 449V807H104V837Q135 844 158 854T199 879H236V449H195Z" />
<glyph unicode="&#xba;" horiz-adv-x="398" d="M197 440Q153 440 117 462T58 525T36 624Q36 683 58 723T116 785T197 807Q242 807 278 786T337 724T359 624Q359 567 337 526T279 462T197 440ZM197 476Q252 476 284 517T316 624Q316 690 284 731T197 773Q144 773
111 732T78 624Q78 559 111 518T197 476Z" />
<glyph unicode="&#xbb;" horiz-adv-x="439" d="M86 80L59 100L195 278L59 454L86 477L238 299V258L86 80ZM240 80L214 100L349 278L214 454L240 477L393 299V258L240 80Z" />
<glyph unicode="&#xbc;" horiz-adv-x="844" d="M172 297V656H80V685Q112 692 134 702T176 728H212V297H172ZM196 -13L602 741H643L237 -13H196ZM690 0V258L695 373H690L627 281L547 160H792V126H496V148L691 430H728V0H690Z" />
<glyph unicode="&#xbd;" horiz-adv-x="867" d="M172 297V656H80V685Q112 692 134 702T176 728H212V297H172ZM169 -13L576 741H618L212 -13H169ZM530 0V27Q604 96 651 144T721 230T744 304Q744 352 718 380T648 408Q617 408 591 388T547 339L520 363Q540 397 575
420T652 443Q711 443 748 410T785 308Q785 263 761 222T695 136T597 36H811V0H530Z" />
<glyph unicode="&#xbe;" horiz-adv-x="864" d="M195 284Q145 284 106 309T44 366L76 390Q96 359 127 339T196 319Q238 319 267 343T297 411Q297 455 256 478T144 501V532Q210 532 245 559T280 624Q280 660 255 683T187 706Q161 706 135 690T89 647L62 672Q85 701
117 721T191 741Q227 741 257 727T304 688T322 628Q322 587 298 560T238 518Q277 511 308 484T339 410Q339 371 320 343T268 299T195 284ZM248 -13L655 741H696L289 -13H248ZM711 0V258L716 373H711L648 281L567 160H813V126H517V148L712 430H749V0H711Z" />
<glyph unicode="&#xbf;" horiz-adv-x="443" d="M227 -223Q173 -223 135 -201T77 -140T56 -54Q56 -10 74 27T120 98T172 167T212 242T221 333H263Q270 278 257 236T218 158T167 91T123 24T104 -52Q104 -86 117 -116T159 -164T230 -182Q270 -182 308 -163T373 -111L403
-137Q371 -173 328 -198T227 -223ZM238 444Q220 444 207 457T193 495Q193 517 206 530T238 543Q256 543 270 530T284 495Q284 471 270 458T238 444Z" />
<glyph unicode="&#xc0;" horiz-adv-x="581" d="M9 0L266 728H314L571 0H520L373 430Q351 495 332 555T292 682H288Q269 615 249 555T206 430L58 0H9ZM125 251V292H452V251H125ZM312 781L167 905L198 941L335 805L312 781Z" />
<glyph unicode="&#xc1;" horiz-adv-x="581" d="M9 0L266 728H314L571 0H520L373 430Q351 495 332 555T292 682H288Q269 615 249 555T206 430L58 0H9ZM125 251V292H452V251H125ZM267 781L245 805L382 941L412 905L267 781Z" />
<glyph unicode="&#xc2;" horiz-adv-x="581" d="M9 0L266 728H314L571 0H520L373 430Q351 495 332 555T292 682H288Q269 615 249 555T206 430L58 0H9ZM125 251V292H452V251H125ZM163 781L142 802L267 927H313L439 802L418 781L292 890H288L163 781Z" />
<glyph unicode="&#xc3;" horiz-adv-x="581" d="M9 0L266 728H314L571 0H520L373 430Q351 495 332 555T292 682H288Q269 615 249 555T206 430L58 0H9ZM125 251V292H452V251H125ZM376 794Q344 794 322 807T282 837T246 867T205 881Q181 881 164 859T143 796L109
800Q111 850 135 885T205 921Q237 921 259 908T299 877T334 846T375 833Q400 833 416 856T437 918L471 916Q470 864 445 829T376 794Z" />
<glyph unicode="&#xc4;" horiz-adv-x="581" d="M9 0L266 728H314L571 0H520L373 430Q351 495 332 555T292 682H288Q269 615 249 555T206 430L58 0H9ZM125 251V292H452V251H125ZM182 801Q166 801 155 811T143 841Q143 859 154 869T182 880Q199 880 210 870T222
841Q222 822 211 812T182 801ZM398 801Q381 801 369 811T357 841Q357 859 369 869T398 880Q415 880 426 870T438 841Q438 822 427 812T398 801Z" />
<glyph unicode="&#xc5;" horiz-adv-x="581" d="M9 0L266 728H314L571 0H520L373 430Q351 495 332 555T292 682H288Q269 615 249 555T206 430L58 0H9ZM125 251V292H452V251H125ZM290 772Q249 772 222 798T194 867Q194 911 221 936T290 962Q330 962 358 937T386
867Q386 825 358 799T290 772ZM290 800Q316 800 334 817T352 867Q352 898 334 915T290 933Q264 933 245 916T226 867Q226 834 245 817T290 800Z" />
<glyph unicode="&#xc6;" horiz-adv-x="892" d="M24 0L428 728H830V685H503V408H775V366H503V42H841V0H454V686H450Q417 623 382 559T312 429L76 0H24ZM187 241V281H491V241H187Z" />
<glyph unicode="&#xc7;" horiz-adv-x="623" d="M365 -13Q298 -13 243 13T146 89T83 209T61 365Q61 452 83 521T147 639T245 715T371 741Q435 741 483 714T559 654L531 622Q502 655 462 675T371 696Q291 696 233 656T143 541T112 366Q112 264 143 189T231 73T368
31Q424 31 468 54T552 122L581 90Q539 42 488 15T365 -13ZM289 -242L283 -209Q355 -204 381 -190T407 -150Q407 -126 387 -113T321 -93L366 2H404L371 -73Q406 -81 427 -97T449 -148Q449 -191 408 -214T289 -242Z" />
<glyph unicode="&#xc8;" horiz-adv-x="567" d="M108 0V728H505V685H156V408H449V366H156V42H516V0H108ZM343 781L198 905L228 941L365 805L343 781Z" />
<glyph unicode="&#xc9;" horiz-adv-x="567" d="M108 0V728H505V685H156V408H449V366H156V42H516V0H108ZM297 781L275 805L413 941L443 905L297 781Z" />
<glyph unicode="&#xca;" horiz-adv-x="567" d="M108 0V728H505V685H156V408H449V366H156V42H516V0H108ZM193 781L172 802L297 927H343L468 802L447 781L322 890H318L193 781Z" />
<glyph unicode="&#xcb;" horiz-adv-x="567" d="M108 0V728H505V685H156V408H449V366H156V42H516V0H108ZM212 801Q196 801 185 811T173 841Q173 859 184 869T212 880Q229 880 241 870T253 841Q253 822 241 812T212 801ZM429 801Q411 801 400 811T388 841Q388 859
399 869T429 880Q445 880 456 870T468 841Q468 822 457 812T429 801Z" />
<glyph unicode="&#xcc;" horiz-adv-x="264" d="M108 0V728H156V0H108ZM156 781L9 905L40 941L177 805L156 781Z" />
<glyph unicode="&#xcd;" horiz-adv-x="264" d="M108 0V728H156V0H108ZM109 781L88 805L225 941L255 905L109 781Z" />
<glyph unicode="&#xce;" horiz-adv-x="264" d="M108 0V728H156V0H108ZM5 781L-15 802L109 927H155L281 802L259 781L135 890H130L5 781Z" />
<glyph unicode="&#xcf;" horiz-adv-x="264" d="M108 0V728H156V0H108ZM24 801Q7 801 -4 811T-15 841Q-15 859 -4 869T24 880Q42 880 53 870T64 841Q64 822 53 812T24 801ZM240 801Q223 801 212 811T200 841Q200 859 211 869T240 880Q257 880 268 870T280 841Q280
822 269 812T240 801Z" />
<glyph unicode="&#xd0;" horiz-adv-x="689" d="M41 368V400L133 402H359V368H41ZM131 0V728H299Q411 728 484 684T592 558T628 366Q628 256 593 174T484 46T299 0H131ZM179 42H292Q392 42 455 83T547 197T577 366Q577 461 548 533T455 645T292 686H179V42Z" />
<glyph unicode="&#xd1;" horiz-adv-x="701" d="M108 0V728H159L468 212L550 68H555Q552 121 550 173T547 278V728H594V0H543L235 515L152 660H148Q151 608 152 558T154 455V0H108ZM451 794Q419 794 397 807T357 837T322 867T281 881Q257 881 240 859T219 796L185
800Q187 850 211 885T280 921Q312 921 334 908T373 877T409 846T450 833Q475 833 491 856T512 918L546 916Q545 864 521 829T451 794Z" />
<glyph unicode="&#xd2;" horiz-adv-x="720" d="M360 -13Q273 -13 206 34T100 166T61 366Q61 481 99 565T205 695T360 741Q447 741 514 695T620 565T659 366Q659 251 621 166T515 34T360 -13ZM360 31Q435 31 490 72T577 189T608 366Q608 467 577 541T491 655T360
696Q286 696 230 656T143 541T112 366Q112 264 143 189T230 73T360 31ZM383 781L237 905L267 941L404 805L383 781Z" />
<glyph unicode="&#xd3;" horiz-adv-x="720" d="M360 -13Q273 -13 206 34T100 166T61 366Q61 481 99 565T205 695T360 741Q447 741 514 695T620 565T659 366Q659 251 621 166T515 34T360 -13ZM360 31Q435 31 490 72T577 189T608 366Q608 467 577 541T491 655T360
696Q286 696 230 656T143 541T112 366Q112 264 143 189T230 73T360 31ZM337 781L316 805L452 941L483 905L337 781Z" />
<glyph unicode="&#xd4;" horiz-adv-x="720" d="M360 -13Q273 -13 206 34T100 166T61 366Q61 481 99 565T205 695T360 741Q447 741 514 695T620 565T659 366Q659 251 621 166T515 34T360 -13ZM360 31Q435 31 490 72T577 189T608 366Q608 467 577 541T491 655T360
696Q286 696 230 656T143 541T112 366Q112 264 143 189T230 73T360 31ZM233 781L212 802L336 927H383L508 802L487 781L363 890H358L233 781Z" />
<glyph unicode="&#xd5;" horiz-adv-x="720" d="M360 -13Q273 -13 206 34T100 166T61 366Q61 481 99 565T205 695T360 741Q447 741 514 695T620 565T659 366Q659 251 621 166T515 34T360 -13ZM360 31Q435 31 490 72T577 189T608 366Q608 467 577 541T491 655T360
696Q286 696 230 656T143 541T112 366Q112 264 143 189T230 73T360 31ZM445 794Q414 794 391 807T351 837T316 867T276 881Q251 881 234 859T214 796L179 800Q181 850 205 885T275 921Q307 921 329 908T368 877T403 846T444 833Q469 833 485 856T506 918L541 916Q539
864 515 829T445 794Z" />
<glyph unicode="&#xd6;" horiz-adv-x="720" d="M360 -13Q273 -13 206 34T100 166T61 366Q61 481 99 565T205 695T360 741Q447 741 514 695T620 565T659 366Q659 251 621 166T515 34T360 -13ZM360 31Q435 31 490 72T577 189T608 366Q608 467 577 541T491 655T360
696Q286 696 230 656T143 541T112 366Q112 264 143 189T230 73T360 31ZM252 801Q235 801 224 811T212 841Q212 859 223 869T252 880Q270 880 281 870T292 841Q292 822 281 812T252 801ZM468 801Q451 801 440 811T428 841Q428 859 439 869T468 880Q485 880 496 870T507
841Q507 822 496 812T468 801Z" />
<glyph unicode="&#xd7;" horiz-adv-x="1000" d="M787 56L500 343L213 56L184 86L470 373L184 659L214 689L500 403L787 689L817 659L530 373L817 86L787 56Z" />
<glyph unicode="&#xd8;" horiz-adv-x="720" d="M93 -24L62 -2L625 753L656 729L93 -24ZM365 -13Q277 -13 210 34T104 166T65 366Q65 481 103 565T209 695T365 741Q452 741 519 695T624 565T663 366Q663 251 625 166T519 34T365 -13ZM365 31Q439 31 494 72T581
189T612 366Q612 467 581 541T495 655T365 696Q291 696 235 656T147 541T115 366Q115 264 146 189T234 73T365 31Z" />
<glyph unicode="&#xd9;" horiz-adv-x="700" d="M349 -13Q303 -13 259 0T181 47T127 136T106 278V728H154V284Q154 187 181 132T253 54T349 31Q402 31 447 54T520 132T548 284V728H595V278Q595 193 575 137T519 47T440 1T349 -13ZM372 781L226 905L256 941L393
805L372 781Z" />
<glyph unicode="&#xda;" horiz-adv-x="700" d="M349 -13Q303 -13 259 0T181 47T127 136T106 278V728H154V284Q154 187 181 132T253 54T349 31Q402 31 447 54T520 132T548 284V728H595V278Q595 193 575 137T519 47T440 1T349 -13ZM326 781L305 805L441 941L472
905L326 781Z" />
<glyph unicode="&#xdb;" horiz-adv-x="700" d="M349 -13Q303 -13 259 0T181 47T127 136T106 278V728H154V284Q154 187 181 132T253 54T349 31Q402 31 447 54T520 132T548 284V728H595V278Q595 193 575 137T519 47T440 1T349 -13ZM222 781L201 802L325 927H372L497
802L475 781L352 890H347L222 781Z" />
<glyph unicode="&#xdc;" horiz-adv-x="700" d="M349 -13Q303 -13 259 0T181 47T127 136T106 278V728H154V284Q154 187 181 132T253 54T349 31Q402 31 447 54T520 132T548 284V728H595V278Q595 193 575 137T519 47T440 1T349 -13ZM241 801Q224 801 213 811T201
841Q201 859 212 869T241 880Q259 880 270 870T281 841Q281 822 270 812T241 801ZM457 801Q440 801 429 811T417 841Q417 859 428 869T457 880Q473 880 484 870T496 841Q496 822 485 812T457 801Z" />
<glyph unicode="&#xdd;" horiz-adv-x="492" d="M221 0V295L3 728H55L166 499Q185 459 204 421T244 341H248Q270 382 290 420T328 499L439 728H488L270 295V0H221ZM223 781L201 805L338 941L369 905L223 781Z" />
<glyph unicode="&#xde;" horiz-adv-x="622" d="M108 0V728H156V598H305Q387 598 445 579T533 515T564 396Q564 324 533 277T445 207T305 184H156V0H108ZM156 225H292Q404 225 458 265T513 396Q513 488 459 522T292 556H156V225Z" />
<glyph unicode="&#xdf;" horiz-adv-x="598" d="M405 -13Q361 -13 323 2T255 44L278 79Q310 53 339 41T404 28Q460 28 488 61T517 138Q517 176 500 200T457 242T401 273T345 305T302 347T285 413Q285 453 301 482T339 536T377 589T394 654Q394 703 368 733T288
764Q225 764 187 718T149 572V0H102V588Q102 656 125 704T191 779T290 805Q338 805 372 786T424 734T443 658Q443 615 426 584T388 528T350 476T333 416Q333 385 349 365T392 329T449 300T505 266T548 217T565 140Q565 96 544 62T487 7T405 -13Z" />
<glyph unicode="&#xe0;" horiz-adv-x="542" d="M218 -13Q176 -13 141 2T85 50T64 132Q64 220 146 266T406 332Q408 374 399 412T362 476T282 502Q227 502 183 481T111 439L90 475Q109 488 138 504T205 531T286 543Q349 543 386 516T438 442T454 340V0H414L409
69H406Q366 36 318 12T218 -13ZM225 28Q271 28 314 50T406 114V295Q297 283 233 262T140 209T112 134Q112 76 145 52T225 28ZM321 633L165 800L199 831L348 658L321 633Z" />
<glyph unicode="&#xe1;" horiz-adv-x="542" d="M218 -13Q176 -13 141 2T85 50T64 132Q64 220 146 266T406 332Q408 374 399 412T362 476T282 502Q227 502 183 481T111 439L90 475Q109 488 138 504T205 531T286 543Q349 543 386 516T438 442T454 340V0H414L409
69H406Q366 36 318 12T218 -13ZM225 28Q271 28 314 50T406 114V295Q297 283 233 262T140 209T112 134Q112 76 145 52T225 28ZM257 633L230 658L379 831L413 800L257 633Z" />
<glyph unicode="&#xe2;" horiz-adv-x="542" d="M218 -13Q176 -13 141 2T85 50T64 132Q64 220 146 266T406 332Q408 374 399 412T362 476T282 502Q227 502 183 481T111 439L90 475Q109 488 138 504T205 531T286 543Q349 543 386 516T438 442T454 340V0H414L409
69H406Q366 36 318 12T218 -13ZM225 28Q271 28 314 50T406 114V295Q297 283 233 262T140 209T112 134Q112 76 145 52T225 28ZM137 654L267 814H311L441 654L416 632L291 771H287L162 632L137 654Z" />
<glyph unicode="&#xe3;" horiz-adv-x="542" d="M218 -13Q176 -13 141 2T85 50T64 132Q64 220 146 266T406 332Q408 374 399 412T362 476T282 502Q227 502 183 481T111 439L90 475Q109 488 138 504T205 531T286 543Q349 543 386 516T438 442T454 340V0H414L409
69H406Q366 36 318 12T218 -13ZM225 28Q271 28 314 50T406 114V295Q297 283 233 262T140 209T112 134Q112 76 145 52T225 28ZM373 639Q342 639 320 655T281 692T246 730T205 746Q175 746 162 716T146 642L109 645Q111 680 120 711T149 763T206 784Q237 784 259
768T298 731T333 694T374 678Q404 678 417 708T433 780L469 778Q467 744 458 713T429 660T373 639Z" />
<glyph unicode="&#xe4;" horiz-adv-x="542" d="M218 -13Q176 -13 141 2T85 50T64 132Q64 220 146 266T406 332Q408 374 399 412T362 476T282 502Q227 502 183 481T111 439L90 475Q109 488 138 504T205 531T286 543Q349 543 386 516T438 442T454 340V0H414L409
69H406Q366 36 318 12T218 -13ZM225 28Q271 28 314 50T406 114V295Q297 283 233 262T140 209T112 134Q112 76 145 52T225 28ZM191 661Q174 661 163 672T151 701Q151 717 162 729T191 741Q209 741 220 729T232 701Q232 684 221 673T191 661ZM387 661Q370 661 358
672T346 701Q346 717 358 729T387 741Q404 741 415 729T427 701Q427 684 416 673T387 661Z" />
<glyph unicode="&#xe5;" horiz-adv-x="542" d="M218 -13Q176 -13 141 2T85 50T64 132Q64 220 146 266T406 332Q408 374 399 412T362 476T282 502Q227 502 183 481T111 439L90 475Q109 488 138 504T205 531T286 543Q349 543 386 516T438 442T454 340V0H414L409
69H406Q366 36 318 12T218 -13ZM225 28Q271 28 314 50T406 114V295Q297 283 233 262T140 209T112 134Q112 76 145 52T225 28ZM289 606Q244 606 214 635T183 710Q183 757 213 785T289 814Q335 814 365 786T395 710Q395 664 365 635T289 606ZM289 633Q320 633 340
654T361 710Q361 745 341 766T289 787Q259 787 238 766T217 710Q217 675 238 654T289 633Z" />
<glyph unicode="&#xe6;" horiz-adv-x="866" d="M227 -13Q185 -13 150 2T94 50T73 131Q73 220 155 266T409 332Q410 374 401 412T364 476T284 502Q234 502 191 481T120 439L98 475Q116 488 145 504T211 531T288 543Q352 543 391 507T442 410Q472 470 520 506T627
543Q689 543 733 515T801 431T825 298Q825 288 825 279T821 259H454Q454 192 479 140T547 58T643 28Q687 28 720 41T782 76L803 38Q771 19 735 3T640 -13Q592 -13 557 3T495 44T450 97Q398 46 338 17T227 -13ZM234 28Q277 28 332 55T433 132Q421 155 415 191T409
265V295Q253 277 187 238T121 134Q121 76 154 52T234 28ZM454 295H781Q781 398 740 450T627 502Q583 502 546 476T484 404T454 295Z" />
<glyph unicode="&#xe7;" horiz-adv-x="496" d="M297 -13Q229 -13 175 19T89 114T57 264Q57 353 91 415T180 510T299 543Q353 543 390 523T454 478L427 445Q401 469 370 485T300 502Q246 502 202 472T133 388T107 264Q107 194 131 141T199 59T300 29Q342 29 378
47T442 90L467 57Q433 27 391 7T297 -13ZM212 -242L205 -209Q277 -204 303 -190T329 -150Q329 -126 309 -113T244 -93L289 2H326L294 -73Q329 -81 350 -97T371 -148Q371 -191 331 -214T212 -242Z" />
<glyph unicode="&#xe8;" horiz-adv-x="533" d="M302 -13Q235 -13 179 20T90 115T57 264Q57 329 76 380T128 468T202 524T288 543Q351 543 396 515T466 431T491 298Q491 289 491 280T488 259H106Q107 192 132 140T201 58T306 28Q350 28 384 41T449 75L469 38Q437
19 399 3T302 -13ZM106 298H446Q446 400 403 451T288 502Q243 502 204 478T138 409T106 298ZM320 633L163 800L198 831L347 658L320 633Z" />
<glyph unicode="&#xe9;" horiz-adv-x="533" d="M302 -13Q235 -13 179 20T90 115T57 264Q57 329 76 380T128 468T202 524T288 543Q351 543 396 515T466 431T491 298Q491 289 491 280T488 259H106Q107 192 132 140T201 58T306 28Q350 28 384 41T449 75L469 38Q437
19 399 3T302 -13ZM106 298H446Q446 400 403 451T288 502Q243 502 204 478T138 409T106 298ZM256 633L230 658L378 831L413 800L256 633Z" />
<glyph unicode="&#xea;" horiz-adv-x="533" d="M302 -13Q235 -13 179 20T90 115T57 264Q57 329 76 380T128 468T202 524T288 543Q351 543 396 515T466 431T491 298Q491 289 491 280T488 259H106Q107 192 132 140T201 58T306 28Q350 28 384 41T449 75L469 38Q437
19 399 3T302 -13ZM106 298H446Q446 400 403 451T288 502Q243 502 204 478T138 409T106 298ZM136 654L266 814H311L440 654L415 632L290 771H286L161 632L136 654Z" />
<glyph unicode="&#xeb;" horiz-adv-x="533" d="M302 -13Q235 -13 179 20T90 115T57 264Q57 329 76 380T128 468T202 524T288 543Q351 543 396 515T466 431T491 298Q491 289 491 280T488 259H106Q107 192 132 140T201 58T306 28Q350 28 384 41T449 75L469 38Q437
19 399 3T302 -13ZM106 298H446Q446 400 403 451T288 502Q243 502 204 478T138 409T106 298ZM190 661Q173 661 162 672T150 701Q150 717 161 729T190 741Q207 741 219 729T231 701Q231 684 219 673T190 661ZM386 661Q369 661 357 672T345 701Q345 717 357 729T386
741Q402 741 414 729T426 701Q426 684 414 673T386 661Z" />
<glyph unicode="&#xec;" horiz-adv-x="251" d="M102 0V530H150V0H102ZM160 633L2 800L37 831L185 658L160 633Z" />
<glyph unicode="&#xed;" horiz-adv-x="251" d="M102 0V530H150V0H102ZM95 633L68 658L216 831L253 800L95 633Z" />
<glyph unicode="&#xee;" horiz-adv-x="251" d="M102 0V530H150V0H102ZM-25 654L104 814H150L278 654L255 632L129 771H125L-1 632L-25 654Z" />
<glyph unicode="&#xef;" horiz-adv-x="251" d="M102 0V530H150V0H102ZM29 661Q13 661 1 672T-11 701Q-11 717 1 729T29 741Q46 741 57 729T69 701Q69 684 58 673T29 661ZM225 661Q208 661 197 672T185 701Q185 717 196 729T225 741Q242 741 253 729T264 701Q264
684 253 673T225 661Z" />
<glyph unicode="&#xf0;" horiz-adv-x="591" d="M295 -13Q236 -13 184 17T99 104T66 242Q66 315 95 370T175 457T296 488Q348 488 393 463T472 386V339Q429 406 385 426T297 447Q236 447 196 419T134 344T113 242Q113 179 138 131T204 56T295 29Q355 29 394 62T451
151T470 277Q470 382 447 458T381 591T284 689T167 767L190 799Q255 765 313 720T418 612T490 468T517 278Q517 190 489 125T410 23T295 -13ZM174 568L158 598L499 776L516 747L174 568Z" />
<glyph unicode="&#xf1;" horiz-adv-x="586" d="M102 0V530H142L148 447H150Q191 488 234 515T332 543Q414 543 453 493T493 340V0H445V334Q445 418 417 459T323 501Q276 501 237 476T150 401V0H102ZM397 639Q366 639 344 655T305 692T269 730T228 746Q199 746
186 716T170 642L133 645Q135 680 144 711T173 763T230 784Q261 784 282 768T321 731T357 694T399 678Q428 678 441 708T456 780L494 778Q492 744 483 713T453 660T397 639Z" />
<glyph unicode="&#xf2;" horiz-adv-x="590" d="M295 -13Q231 -13 177 19T90 114T57 264Q57 353 90 415T177 510T295 543Q343 543 386 525T462 471T514 383T533 264Q533 176 500 114T413 20T295 -13ZM295 29Q349 29 392 58T459 141T484 264Q484 335 460 388T392
471T295 502Q241 502 199 472T132 388T107 264Q107 194 131 141T198 59T295 29ZM328 633L170 800L206 831L354 658L328 633Z" />
<glyph unicode="&#xf3;" horiz-adv-x="590" d="M295 -13Q231 -13 177 19T90 114T57 264Q57 353 90 415T177 510T295 543Q343 543 386 525T462 471T514 383T533 264Q533 176 500 114T413 20T295 -13ZM295 29Q349 29 392 58T459 141T484 264Q484 335 460 388T392
471T295 502Q241 502 199 472T132 388T107 264Q107 194 131 141T198 59T295 29ZM262 633L236 658L385 831L420 800L262 633Z" />
<glyph unicode="&#xf4;" horiz-adv-x="590" d="M295 -13Q231 -13 177 19T90 114T57 264Q57 353 90 415T177 510T295 543Q343 543 386 525T462 471T514 383T533 264Q533 176 500 114T413 20T295 -13ZM295 29Q349 29 392 58T459 141T484 264Q484 335 460 388T392
471T295 502Q241 502 199 472T132 388T107 264Q107 194 131 141T198 59T295 29ZM143 654L272 814H318L447 654L423 632L297 771H292L167 632L143 654Z" />
<glyph unicode="&#xf5;" horiz-adv-x="590" d="M295 -13Q231 -13 177 19T90 114T57 264Q57 353 90 415T177 510T295 543Q343 543 386 525T462 471T514 383T533 264Q533 176 500 114T413 20T295 -13ZM295 29Q349 29 392 58T459 141T484 264Q484 335 460 388T392
471T295 502Q241 502 199 472T132 388T107 264Q107 194 131 141T198 59T295 29ZM378 639Q348 639 326 655T287 692T252 730T211 746Q181 746 167 716T151 642L116 645Q118 680 127 711T156 763T213 784Q243 784 265 768T304 731T340 694T381 678Q410 678 424 708T439
780L475 778Q474 744 465 713T435 660T378 639Z" />
<glyph unicode="&#xf6;" horiz-adv-x="590" d="M295 -13Q231 -13 177 19T90 114T57 264Q57 353 90 415T177 510T295 543Q343 543 386 525T462 471T514 383T533 264Q533 176 500 114T413 20T295 -13ZM295 29Q349 29 392 58T459 141T484 264Q484 335 460 388T392
471T295 502Q241 502 199 472T132 388T107 264Q107 194 131 141T198 59T295 29ZM198 661Q180 661 169 672T158 701Q158 717 169 729T198 741Q214 741 225 729T237 701Q237 684 226 673T198 661ZM393 661Q375 661 364 672T353 701Q353 717 364 729T393 741Q409 741
420 729T432 701Q432 684 421 673T393 661Z" />
<glyph unicode="&#xf7;" horiz-adv-x="1000" d="M500 691Q525 691 543 673T561 630Q561 605 543 587T500 569Q475 569 457 587T439 630Q439 655 457 673T500 691ZM870 394V351H130V394H870ZM500 176Q525 176 543 159T561 115Q561 90 543 72T500 54Q475 54 457
72T439 115Q439 141 457 158T500 176Z" />
<glyph unicode="&#xf8;" horiz-adv-x="590" d="M295 -13Q231 -13 177 19T90 114T57 264Q57 353 90 415T177 510T295 543Q343 543 386 525T462 471T514 383T533 264Q533 176 500 114T413 20T295 -13ZM295 28Q349 28 392 57T460 140T485 263Q485 335 460 388T392
472T295 502Q241 502 198 472T131 389T106 266Q106 195 130 141T198 58T295 28ZM79 -24L51 -2L511 553L540 530L79 -24Z" />
<glyph unicode="&#xf9;" horiz-adv-x="583" d="M254 -13Q172 -13 133 37T94 190V530H141V196Q141 111 169 70T262 29Q310 29 349 55T434 138V530H482V0H442L437 89H435Q395 43 352 15T254 -13ZM322 633L165 800L200 831L348 658L322 633Z" />
<glyph unicode="&#xfa;" horiz-adv-x="583" d="M254 -13Q172 -13 133 37T94 190V530H141V196Q141 111 169 70T262 29Q310 29 349 55T434 138V530H482V0H442L437 89H435Q395 43 352 15T254 -13ZM258 633L231 658L380 831L415 800L258 633Z" />
<glyph unicode="&#xfb;" horiz-adv-x="583" d="M254 -13Q172 -13 133 37T94 190V530H141V196Q141 111 169 70T262 29Q310 29 349 55T434 138V530H482V0H442L437 89H435Q395 43 352 15T254 -13ZM139 654L267 814H312L442 654L417 632L292 771H288L163 632L139 654Z" />
<glyph unicode="&#xfc;" horiz-adv-x="583" d="M254 -13Q172 -13 133 37T94 190V530H141V196Q141 111 169 70T262 29Q310 29 349 55T434 138V530H482V0H442L437 89H435Q395 43 352 15T254 -13ZM192 661Q176 661 164 672T152 701Q152 717 164 729T192 741Q210 741
221 729T233 701Q233 684 222 673T192 661ZM388 661Q371 661 359 672T347 701Q347 717 359 729T388 741Q405 741 416 729T428 701Q428 684 417 673T388 661Z" />
<glyph unicode="&#xfd;" horiz-adv-x="479" d="M80 -242Q65 -242 51 -239T26 -231L37 -190Q45 -194 56 -196T80 -199Q130 -199 163 -158T217 -57L231 -10L13 530H64L193 195Q206 161 221 122T250 46H255Q268 81 280 121T304 195L418 530H466L257 -68Q243 -112
219 -151T161 -216T80 -242ZM220 633L194 658L341 831L378 800L220 633Z" />
<glyph unicode="&#xfe;" horiz-adv-x="600" d="M102 -240V794H150V566L149 465Q189 495 235 519T329 543Q401 543 448 510T519 416T542 273Q542 183 510 119T424 21T308 -13Q271 -13 231 4T149 52L150 -46V-240H102ZM307 29Q361 29 403 59T469 145T493 273Q493
338 476 390T422 471T323 501Q284 501 241 479T150 414V97Q195 60 236 45T307 29Z" />
<glyph unicode="&#xff;" horiz-adv-x="479" d="M80 -242Q65 -242 51 -239T26 -231L37 -190Q45 -194 56 -196T80 -199Q130 -199 163 -158T217 -57L231 -10L13 530H64L193 195Q206 161 221 122T250 46H255Q268 81 280 121T304 195L418 530H466L257 -68Q243 -112
219 -151T161 -216T80 -242ZM155 661Q138 661 127 672T115 701Q115 717 126 729T155 741Q172 741 183 729T194 701Q194 684 183 673T155 661ZM350 661Q333 661 322 672T311 701Q311 717 322 729T350 741Q367 741 378 729T389 701Q389 684 378 673T350 661Z" />
<glyph unicode="&#x2013;" horiz-adv-x="530" d="M44 258V295H485V258H44Z" />
<glyph unicode="&#x2014;" horiz-adv-x="884" d="M44 258V295H838V258H44Z" />
<glyph unicode="&#x2018;" horiz-adv-x="241" d="M112 533Q91 533 78 552T64 606Q64 665 89 706T157 777L177 752Q141 722 122 692T103 614L122 554L81 600Q89 610 95 613T112 617Q128 617 141 608T155 576Q155 555 143 544T112 533Z" />
<glyph unicode="&#x2019;" horiz-adv-x="241" d="M83 528L64 554Q100 583 118 614T137 692L119 751L161 706Q152 696 146 693T128 689Q113 689 100 699T86 729Q86 750 97 761T128 772Q150 772 163 754T177 700Q177 641 153 600T83 528Z" />
<glyph unicode="&#x201a;" horiz-adv-x="241" d="M83 -145L64 -119Q100 -89 118 -59T137 19L119 78L161 32Q152 22 146 19T128 16Q113 16 100 26T86 57Q86 78 97 89T128 100Q150 100 163 82T177 27Q177 -32 153 -73T83 -145Z" />
<glyph unicode="&#x201c;" horiz-adv-x="395" d="M112 533Q91 533 78 552T64 606Q64 665 89 706T157 777L177 752Q141 722 122 692T103 614L122 554L81 600Q89 610 95 613T112 617Q128 617 141 608T155 576Q155 555 143 544T112 533ZM266 533Q245 533 232 552T218
606Q218 665 243 706T311 777L331 752Q295 722 277 692T258 614L275 554L235 600Q243 610 249 613T266 617Q282 617 295 608T309 576Q309 555 297 544T266 533Z" />
<glyph unicode="&#x201d;" horiz-adv-x="395" d="M83 528L64 554Q100 583 118 614T137 692L119 751L161 706Q152 696 146 693T128 689Q113 689 100 699T86 729Q86 750 97 761T128 772Q150 772 163 754T177 700Q177 641 153 600T83 528ZM237 528L218 554Q254 583
272 614T291 692L274 751L315 706Q307 696 300 693T282 689Q267 689 254 699T240 729Q240 750 252 761T282 772Q304 772 317 754T331 700Q331 641 307 600T237 528Z" />
<glyph unicode="&#x201e;" horiz-adv-x="395" d="M83 -145L64 -119Q100 -89 118 -59T137 19L119 78L161 32Q152 22 146 19T128 16Q113 16 100 26T86 57Q86 78 97 89T128 100Q150 100 163 82T177 27Q177 -32 153 -73T83 -145ZM237 -145L218 -119Q254 -89 272 -59T291
19L274 78L315 32Q307 22 300 19T282 16Q267 16 254 26T240 57Q240 78 252 89T282 100Q304 100 317 82T331 27Q331 -32 307 -73T237 -145Z" />
<glyph unicode="&#x2022;" horiz-adv-x="309" d="M155 170Q127 170 102 184T60 226T44 291Q44 329 60 355T101 397T155 412Q182 412 207 397T249 356T265 291Q265 254 249 227T208 185T155 170Z" />
<glyph unicode="&#x2039;" horiz-adv-x="285" d="M199 80L47 258V299L199 477L225 454L90 278L225 100L199 80Z" />
<glyph unicode="&#x203a;" horiz-adv-x="285" d="M86 80L59 100L195 278L59 454L86 477L238 299V258L86 80Z" />
</font>
</defs>
</svg>
