<svg width="20" height="20" viewBox="0 0 20 20" fill="none" xmlns="http://www.w3.org/2000/svg">
<g clip-path="url(#clip0_2638_7989)">
<mask id="mask0_2638_7989" style="mask-type:luminance" maskUnits="userSpaceOnUse" x="0" y="0" width="20" height="20">
<path d="M19.4475 10.0001C19.4475 4.78409 15.2191 0.555664 10.003 0.555664C4.78702 0.555664 0.558594 4.78409 0.558594 10.0001C0.558594 15.2161 4.78702 19.4446 10.003 19.4446C15.2191 19.4446 19.4475 15.2161 19.4475 10.0001Z" fill="white"/>
</mask>
<g mask="url(#mask0_2638_7989)">
<path d="M19.446 -2.77762H-2.2207V20.5557H19.446V-2.77762Z" fill="#DE2910"/>
<path d="M37.7799 2.22238H1.11328V21.6668H37.7799V2.22238Z" fill="#DD2910"/>
<path d="M5.95584 4.15073L6.62251 6.20628H8.78251L7.03529 7.47628L7.70195 9.53184L5.95473 8.26184L4.20751 9.53184L4.87418 7.47628L3.12695 6.20628H5.28917L5.95584 4.15073Z" fill="#FEDE02"/>
<path d="M11.1565 3.36899L11.0887 4.0551L11.7198 4.33288L11.0465 4.4801L10.9787 5.16621L10.6304 4.57121L9.95703 4.71843L10.4148 4.20343L10.0665 3.60843L10.6976 3.88621L11.1565 3.36899Z" fill="#FEDE02"/>
<path d="M13.3937 5.51898L13.0732 6.13009L13.5543 6.62342L12.8748 6.50676L12.5543 7.11787L12.4548 6.43565L11.7754 6.31897L12.3932 6.01398L12.2937 5.33176L12.7748 5.82509L13.3937 5.51898Z" fill="#FEDE02"/>
<path d="M12.6933 8.1268L12.9283 8.77737L13.6194 8.75458L13.0739 9.17903L13.3089 9.82958L12.7367 9.4407L12.1911 9.86513L12.3828 9.19848L11.8105 8.80958L12.5016 8.78681L12.6933 8.1268Z" fill="#FEDE02"/>
<path d="M11.1188 10.1046L11.0816 10.7951L11.7266 11.044L11.0599 11.2218L11.0227 11.9123L10.6471 11.3318L9.98047 11.5095L10.4166 10.9729L10.041 10.3923L10.686 10.6412L11.1188 10.1046Z" fill="#FEDE02"/>
</g>
<mask id="mask1_2638_7989" style="mask-type:luminance" maskUnits="userSpaceOnUse" x="0" y="0" width="20" height="20">
<path d="M19.4475 10.0001C19.4475 4.78409 15.2191 0.555664 10.003 0.555664C4.78702 0.555664 0.558594 4.78409 0.558594 10.0001C0.558594 15.2161 4.78702 19.4446 10.003 19.4446C15.2191 19.4446 19.4475 15.2161 19.4475 10.0001Z" fill="white"/>
</mask>
<g mask="url(#mask1_2638_7989)">
<path d="M31.3589 0.626221H-4.43945V19.3746H31.3589V0.626221Z" fill="white"/>
<path d="M31.3289 0.555664H-4.43945V2.039H31.3289V0.555664Z" fill="#F80200"/>
<path d="M31.3289 3.45679H-4.43945V4.93956H31.3289V3.45679Z" fill="#F80200"/>
<path d="M31.3289 6.35791H-4.43945V7.84124H31.3289V6.35791Z" fill="#F80200"/>
<path d="M31.3289 9.25842H-4.43945V10.7418H31.3289V9.25842Z" fill="#F80200"/>
<path d="M31.3289 12.1595H-4.43945V13.6429H31.3289V12.1595Z" fill="#F80200"/>
<path d="M31.3289 15.0607H-4.43945V16.544H31.3289V15.0607Z" fill="#F80200"/>
<path d="M31.3289 17.9613H-4.43945V19.4446H31.3289V17.9613Z" fill="#F80200"/>
<path d="M9.84415 0.555664H-4.44141V10.7423H9.84415V0.555664Z" fill="#060BAC"/>
<path d="M0.33509 1.99072L0.468977 2.40683H0.90175L0.551748 2.66406L0.685635 3.07961L0.335632 2.82239L-0.0143535 3.07961L0.119534 2.66406L-0.230469 2.40683H0.202304L0.33509 1.99072Z" fill="white"/>
<path d="M0.33509 4.03296L0.468977 4.44852H0.90175L0.551748 4.70574L0.685635 5.1213L0.335632 4.86407L-0.0143535 5.1213L0.119534 4.70574L-0.230469 4.44852H0.202304L0.33509 4.03296Z" fill="white"/>
<path d="M0.33509 6.0752L0.468977 6.49074H0.90175L0.551748 6.74797L0.685635 7.16352L0.335632 6.90629L-0.0143535 7.16352L0.119534 6.74797L-0.230469 6.49074H0.202304L0.33509 6.0752Z" fill="white"/>
<path d="M0.33509 8.11633L0.468977 8.53188H0.90175L0.551748 8.78911L0.685635 9.20466L0.335632 8.94743L-0.0143535 9.20466L0.119534 8.78911L-0.230469 8.53188H0.202304L0.33509 8.11633Z" fill="white"/>
<path d="M2.72376 1.99072L2.85765 2.40683H3.29042L2.94042 2.66406L3.07432 3.07961L2.72432 2.82239L2.37432 3.07961L2.50821 2.66406L2.1582 2.40683H2.59098L2.72376 1.99072Z" fill="white"/>
<path d="M2.72376 4.03296L2.85765 4.44852H3.29042L2.94042 4.70574L3.07432 5.1213L2.72432 4.86407L2.37432 5.1213L2.50821 4.70574L2.1582 4.44852H2.59098L2.72376 4.03296Z" fill="white"/>
<path d="M2.72376 6.0752L2.85765 6.49074H3.29042L2.94042 6.74797L3.07432 7.16352L2.72432 6.90629L2.37432 7.16352L2.50821 6.74797L2.1582 6.49074H2.59098L2.72376 6.0752Z" fill="white"/>
<path d="M2.72376 8.11633L2.85765 8.53188H3.29042L2.94042 8.78911L3.07432 9.20466L2.72432 8.94743L2.37432 9.20466L2.50821 8.78911L2.1582 8.53188H2.59098L2.72376 8.11633Z" fill="white"/>
<path d="M5.11048 1.99072L5.24435 2.40683H5.67712L5.32716 2.66406L5.46103 3.07961L5.11102 2.82239L4.76102 3.07961L4.89492 2.66406L4.54492 2.40683H4.9777L5.11048 1.99072Z" fill="white"/>
<path d="M5.11048 4.03296L5.24435 4.44852H5.67712L5.32716 4.70574L5.46103 5.1213L5.11102 4.86407L4.76102 5.1213L4.89492 4.70574L4.54492 4.44852H4.9777L5.11048 4.03296Z" fill="white"/>
<path d="M5.11048 6.0752L5.24435 6.49074H5.67712L5.32716 6.74797L5.46103 7.16352L5.11102 6.90629L4.76102 7.16352L4.89492 6.74797L4.54492 6.49074H4.9777L5.11048 6.0752Z" fill="white"/>
<path d="M5.11102 8.11633L5.24489 8.53188H5.67767L5.3277 8.78911L5.46157 9.20466L5.11102 8.94967L4.76102 9.2069L4.89489 8.79135L4.54492 8.53412H4.9777L5.11102 8.11633Z" fill="white"/>
<path d="M7.4972 1.99072L7.63107 2.40683H8.06384L7.71384 2.66406L7.84774 3.07961L7.49774 2.82239L7.14774 3.07961L7.28164 2.66406L6.93164 2.40683H7.36441L7.4972 1.99072Z" fill="white"/>
<path d="M7.4972 4.03296L7.63107 4.44852H8.06384L7.71384 4.70574L7.84774 5.1213L7.49774 4.86407L7.14774 5.1213L7.28164 4.70574L6.93164 4.44852H7.36441L7.4972 4.03296Z" fill="white"/>
<path d="M7.4972 6.0752L7.63107 6.49074H8.06384L7.71384 6.74797L7.84774 7.16352L7.49774 6.90629L7.14774 7.16352L7.28164 6.74797L6.93164 6.49074H7.36441L7.4972 6.0752Z" fill="white"/>
<path d="M7.4972 8.11633L7.63107 8.53188H8.06384L7.71384 8.78911L7.84774 9.20466L7.49774 8.94743L7.14774 9.20466L7.28164 8.78911L6.93164 8.53188H7.36441L7.4972 8.11633Z" fill="white"/>
<path d="M1.54601 0.945679L1.6799 1.36123H2.11269L1.76269 1.61846L1.89657 2.034L1.54657 1.77679L1.19657 2.034L1.33045 1.61846L0.980469 1.36123H1.41324L1.54601 0.945679Z" fill="white"/>
<path d="M1.54601 2.98792L1.6799 3.40402H2.11269L1.76269 3.66125L1.89657 4.0768L1.54657 3.81957L1.19657 4.0768L1.33045 3.66125L0.980469 3.40402H1.41324L1.54601 2.98792Z" fill="white"/>
<path d="M1.54601 5.03015L1.6799 5.4457H2.11269L1.76269 5.70293L1.89657 6.11905L1.54657 5.86182L1.19657 6.11905L1.33045 5.70293L0.980469 5.4457H1.41324L1.54601 5.03015Z" fill="white"/>
<path d="M1.54601 7.07178L1.6799 7.48733H2.11269L1.76269 7.74455L1.89657 8.16064L1.54657 7.90342L1.19657 8.16064L1.33045 7.74455L0.980469 7.48733H1.41324L1.54601 7.07178Z" fill="white"/>
<path d="M1.54601 9.11462L1.6799 9.53017H2.11269L1.76269 9.7874L1.89657 10.2029L1.54657 9.94575L1.19657 10.2029L1.33045 9.7874L0.980469 9.53017H1.41324L1.54601 9.11462Z" fill="white"/>
<path d="M3.91712 0.945679L4.05101 1.36123H4.48378L4.1338 1.61846L4.26768 2.034L3.91768 1.77679L3.56768 2.034L3.70157 1.61846L3.35156 1.36123H3.78434L3.91712 0.945679Z" fill="white"/>
<path d="M3.91712 2.98792L4.05101 3.40402H4.48378L4.1338 3.66125L4.26768 4.0768L3.91768 3.81957L3.56768 4.0768L3.70157 3.66125L3.35156 3.40402H3.78434L3.91712 2.98792Z" fill="white"/>
<path d="M3.91712 5.03015L4.05101 5.4457H4.48378L4.1338 5.70293L4.26768 6.11905L3.91768 5.86182L3.56768 6.11905L3.70157 5.70293L3.35156 5.4457H3.78434L3.91712 5.03015Z" fill="white"/>
<path d="M3.91712 7.07178L4.05101 7.48733H4.48378L4.1338 7.74455L4.26768 8.16064L3.91768 7.90342L3.56768 8.16064L3.70157 7.74455L3.35156 7.48733H3.78434L3.91712 7.07178Z" fill="white"/>
<path d="M3.91712 9.11462L4.05101 9.53017H4.48378L4.1338 9.7874L4.26768 10.2029L3.91768 9.94575L3.56768 10.2029L3.70157 9.7874L3.35156 9.53017H3.78434L3.91712 9.11462Z" fill="white"/>
<path d="M6.28821 0.945679L6.42209 1.36123H6.85489L6.50489 1.61846L6.63876 2.034L6.28876 1.77679L5.93875 2.034L6.07266 1.61846L5.72266 1.36123H6.15543L6.28821 0.945679Z" fill="white"/>
<path d="M6.28821 2.98792L6.42209 3.40402H6.85489L6.50489 3.66125L6.63876 4.0768L6.28876 3.81957L5.93875 4.0768L6.07266 3.66125L5.72266 3.40402H6.15543L6.28821 2.98792Z" fill="white"/>
<path d="M6.28821 5.03015L6.42209 5.4457H6.85489L6.50489 5.70293L6.63876 6.11905L6.28876 5.86182L5.93875 6.11905L6.07266 5.70293L5.72266 5.4457H6.15543L6.28821 5.03015Z" fill="white"/>
<path d="M6.28821 7.07178L6.42209 7.48733H6.85489L6.50489 7.74455L6.63876 8.16064L6.28876 7.90342L5.93875 8.16064L6.07266 7.74455L5.72266 7.48733H6.15543L6.28821 7.07178Z" fill="white"/>
<path d="M6.28821 9.11462L6.42209 9.53017H6.85489L6.50489 9.7874L6.63876 10.2029L6.28876 9.94575L5.93875 10.2029L6.07266 9.7874L5.72266 9.53017H6.15543L6.28821 9.11462Z" fill="white"/>
<path d="M8.70423 0.945679L8.8381 1.36123H9.27087L8.92091 1.61846L9.05478 2.034L8.70477 1.77679L8.35477 2.034L8.48867 1.61846L8.13867 1.36123H8.57145L8.70423 0.945679Z" fill="white"/>
<path d="M8.70423 2.98792L8.8381 3.40402H9.27087L8.92091 3.66125L9.05478 4.0768L8.70477 3.81957L8.35477 4.0768L8.48867 3.66125L8.13867 3.40402H8.57145L8.70423 2.98792Z" fill="white"/>
<path d="M8.70423 5.03015L8.8381 5.4457H9.27087L8.92091 5.70293L9.05478 6.11905L8.70477 5.86182L8.35477 6.11905L8.48867 5.70293L8.13867 5.4457H8.57145L8.70423 5.03015Z" fill="white"/>
<path d="M8.70423 7.07178L8.8381 7.48733H9.27087L8.92091 7.74455L9.05478 8.16064L8.70477 7.90342L8.35477 8.16064L8.48867 7.74455L8.13867 7.48733H8.57145L8.70423 7.07178Z" fill="white"/>
<path d="M8.70423 9.11462L8.8381 9.53017H9.27087L8.92091 9.7874L9.05478 10.2029L8.70477 9.94575L8.35477 10.2029L8.48867 9.7874L8.13867 9.53017H8.57145L8.70423 9.11462Z" fill="white"/>
</g>
<path d="M19.7233 10.0001C19.7233 4.63067 15.3705 0.277886 10.0011 0.277886C4.63165 0.277886 0.278863 4.63067 0.278863 10.0001C0.278863 15.3695 4.63165 19.7223 10.0011 19.7223C15.3705 19.7223 19.7233 15.3695 19.7233 10.0001Z" stroke="black" stroke-opacity="0.3" stroke-width="0.555556"/>
</g>
<defs>
<clipPath id="clip0_2638_7989">
<rect width="20" height="20" fill="white"/>
</clipPath>
</defs>
</svg>
