<svg width="20" height="20" viewBox="0 0 20 20" fill="none" xmlns="http://www.w3.org/2000/svg">
<g clip-path="url(#clip0_2638_7984)">
<mask id="mask0_2638_7984" style="mask-type:luminance" maskUnits="userSpaceOnUse" x="0" y="0" width="20" height="20">
<path d="M19.4436 10.0001C19.4436 4.78409 15.2152 0.555664 9.99913 0.555664C4.78311 0.555664 0.554688 4.78409 0.554688 10.0001C0.554688 15.2161 4.78311 19.4446 9.99913 19.4446C15.2152 19.4446 19.4436 15.2161 19.4436 10.0001Z" fill="white"/>
</mask>
<g mask="url(#mask0_2638_7984)">
<path d="M23.8882 0.555664H-3.33398V5.00011H23.8882V0.555664Z" fill="#E8022B"/>
<path d="M23.8882 5.00015H-3.33398V15.0002H23.8882V5.00015Z" fill="#FECF1A"/>
<path d="M23.8882 15.0002H-3.33398V19.4446H23.8882V15.0002Z" fill="#E8022B"/>
</g>
<path d="M19.7194 10.0001C19.7194 4.63067 15.3666 0.277886 9.99718 0.277886C4.62774 0.277886 0.274957 4.63067 0.274957 10.0001C0.274957 15.3695 4.62774 19.7223 9.99718 19.7223C15.3666 19.7223 19.7194 15.3695 19.7194 10.0001Z" stroke="black" stroke-opacity="0.3" stroke-width="0.555556"/>
</g>
<defs>
<clipPath id="clip0_2638_7984">
<rect width="20" height="20" fill="white"/>
</clipPath>
</defs>
</svg>
