<svg width="20" height="20" viewBox="0 0 20 20" fill="none" xmlns="http://www.w3.org/2000/svg">
<g clip-path="url(#clip0_2638_7990)">
<mask id="mask0_2638_7990" style="mask-type:luminance" maskUnits="userSpaceOnUse" x="0" y="0" width="20" height="20">
<path d="M10.0011 19.4446C15.2171 19.4446 19.4456 15.2161 19.4456 10.0001C19.4456 4.78409 15.2171 0.555664 10.0011 0.555664C4.78509 0.555664 0.556667 4.78409 0.556667 10.0001C0.556667 15.2161 4.78509 19.4446 10.0011 19.4446Z" fill="white"/>
</mask>
<g mask="url(#mask0_2638_7990)">
<path d="M20 23.8889V-3.33328L13.3333 -3.33328L13.3333 23.8889H20Z" fill="#FC0000"/>
<path d="M13.334 23.889L13.334 -3.33325L6.66732 -3.33325L6.66732 23.889H13.334Z" fill="white"/>
<path d="M6.66602 23.889L6.66602 -3.33325L-0.000650406 -3.33325L-0.000650406 23.889H6.66602Z" fill="#08409E"/>
</g>
<path d="M19.7214 9.99999C19.7214 4.63055 15.3686 0.277764 9.99913 0.277764C4.6297 0.277764 0.27691 4.63055 0.27691 9.99999C0.27691 15.3694 4.6297 19.7222 9.99913 19.7222C15.3686 19.7222 19.7214 15.3694 19.7214 9.99999Z" stroke="black" stroke-opacity="0.3" stroke-width="0.555556"/>
</g>
<defs>
<clipPath id="clip0_2638_7990">
<rect width="20" height="20" fill="white"/>
</clipPath>
</defs>
</svg>
