<svg width="20" height="20" viewBox="0 0 20 20" fill="none" xmlns="http://www.w3.org/2000/svg">
<g clip-path="url(#clip0_2638_7988)">
<mask id="mask0_2638_7988" style="mask-type:luminance" maskUnits="userSpaceOnUse" x="0" y="0" width="20" height="20">
<path d="M19.4436 10.0001C19.4436 4.78409 15.2152 0.555664 9.99913 0.555664C4.78311 0.555664 0.554688 4.78409 0.554688 10.0001C0.554688 15.2161 4.78311 19.4446 9.99913 19.4446C15.2152 19.4446 19.4436 15.2161 19.4436 10.0001Z" fill="white"/>
</mask>
<g mask="url(#mask0_2638_7988)">
<path d="M21.1092 -1.66663H-0.00195312V22.2223H21.1092V-1.66663Z" fill="white"/>
<path d="M9.99805 15C12.7595 15 14.998 12.7615 14.998 10C14.998 7.23861 12.7595 5.00003 9.99805 5.00003C7.23662 5.00003 4.99805 7.23861 4.99805 10C4.99805 12.7615 7.23662 15 9.99805 15Z" fill="#BC002D"/>
</g>
<path d="M19.7194 10.0001C19.7194 4.63067 15.3666 0.277886 9.99718 0.277886C4.62774 0.277886 0.274957 4.63067 0.274957 10.0001C0.274957 15.3695 4.62774 19.7223 9.99718 19.7223C15.3666 19.7223 19.7194 15.3695 19.7194 10.0001Z" stroke="black" stroke-opacity="0.3" stroke-width="0.555556"/>
</g>
<defs>
<clipPath id="clip0_2638_7988">
<rect width="20" height="20" fill="white"/>
</clipPath>
</defs>
</svg>
