<svg width="20" height="20" viewBox="0 0 20 20" fill="none" xmlns="http://www.w3.org/2000/svg">
<g clip-path="url(#clip0_2638_7983)">
<mask id="mask0_2638_7983" style="mask-type:luminance" maskUnits="userSpaceOnUse" x="0" y="0" width="20" height="20">
<path d="M19.4455 10.0001C19.4455 4.78409 15.2171 0.555664 10.0011 0.555664C4.78506 0.555664 0.556641 4.78409 0.556641 10.0001C0.556641 15.2161 4.78506 19.4446 10.0011 19.4446C15.2171 19.4446 19.4455 15.2161 19.4455 10.0001Z" fill="white"/>
</mask>
<g mask="url(#mask0_2638_7983)">
<path d="M19.446 -2.77762H-2.2207V20.5557H19.446V-2.77762Z" fill="#DE2910"/>
<path d="M37.7799 2.22238H1.11328V21.6668H37.7799V2.22238Z" fill="#DD2910"/>
<path d="M5.95584 4.15073L6.62251 6.20628H8.78251L7.03529 7.47628L7.70195 9.53184L5.95473 8.26184L4.20751 9.53184L4.87418 7.47628L3.12695 6.20628H5.28917L5.95584 4.15073Z" fill="#FEDE02"/>
<path d="M11.1565 3.36899L11.0887 4.0551L11.7198 4.33288L11.0465 4.4801L10.9787 5.16621L10.6304 4.57121L9.95703 4.71843L10.4148 4.20343L10.0665 3.60843L10.6976 3.88621L11.1565 3.36899Z" fill="#FEDE02"/>
<path d="M13.3937 5.51898L13.0732 6.13009L13.5543 6.62342L12.8748 6.50676L12.5543 7.11787L12.4548 6.43565L11.7754 6.31897L12.3932 6.01398L12.2937 5.33176L12.7748 5.82509L13.3937 5.51898Z" fill="#FEDE02"/>
<path d="M12.6933 8.1268L12.9283 8.77737L13.6194 8.75458L13.0739 9.17903L13.3089 9.82958L12.7367 9.4407L12.1911 9.86513L12.3828 9.19848L11.8105 8.80958L12.5016 8.78681L12.6933 8.1268Z" fill="#FEDE02"/>
<path d="M11.1188 10.1046L11.0816 10.7951L11.7266 11.044L11.0599 11.2218L11.0227 11.9123L10.6471 11.3318L9.98047 11.5095L10.4166 10.9729L10.041 10.3923L10.686 10.6412L11.1188 10.1046Z" fill="#FEDE02"/>
</g>
<path d="M19.7214 9.99999C19.7214 4.63055 15.3686 0.277764 9.99913 0.277764C4.6297 0.277764 0.27691 4.63055 0.27691 9.99999C0.27691 15.3694 4.6297 19.7222 9.99913 19.7222C15.3686 19.7222 19.7214 15.3694 19.7214 9.99999Z" stroke="black" stroke-opacity="0.3" stroke-width="0.555556"/>
</g>
<defs>
<clipPath id="clip0_2638_7983">
<rect width="20" height="20" fill="white"/>
</clipPath>
</defs>
</svg>
