<svg width="20" height="20" viewBox="0 0 20 20" fill="none" xmlns="http://www.w3.org/2000/svg">
<g clip-path="url(#clip0_2638_7987)">
<mask id="mask0_2638_7987" style="mask-type:luminance" maskUnits="userSpaceOnUse" x="0" y="0" width="20" height="20">
<path d="M19.4455 10.0001C19.4455 4.78409 15.2171 0.555664 10.0011 0.555664C4.78506 0.555664 0.556641 4.78409 0.556641 10.0001C0.556641 15.2161 4.78506 19.4446 10.0011 19.4446C15.2171 19.4446 19.4455 15.2161 19.4455 10.0001Z" fill="white"/>
</mask>
<g mask="url(#mask0_2638_7987)">
<path d="M21.112 -1.66663H-0.554688V21.6667H21.112V-1.66663Z" fill="white"/>
<path d="M24.4455 2.22232H-4.44336V17.7779H24.4455V2.22232Z" fill="white"/>
<path d="M10.1491 6.15735C9.42764 6.15713 8.72069 6.35968 8.10882 6.7419C7.49694 7.12411 7.00478 7.6706 6.68853 8.31903C6.55686 8.72259 6.56252 9.15839 6.70463 9.5584C6.84675 9.9584 7.11731 10.3001 7.47408 10.5301C8.92408 11.4896 10.0202 10.2018 10.2224 9.84347C10.4949 9.50816 10.8725 9.27446 11.2941 9.18012C11.7158 9.08577 12.1569 9.13626 12.5463 9.32346C13.6691 9.80624 13.8297 11.0296 13.438 12.004C13.7929 11.4206 13.9861 10.7531 13.9978 10.0703C14.0095 9.38748 13.8392 8.71386 13.5044 8.11861C13.1696 7.52337 12.6824 7.02798 12.0929 6.6833C11.5033 6.33863 10.8326 6.15708 10.1497 6.15735H10.1491Z" fill="#C60C30"/>
<path d="M12.5453 9.32185C12.1559 9.13465 11.7147 9.08415 11.2931 9.1785C10.8714 9.27285 10.4939 9.50654 10.2214 9.84185C10.0192 10.2002 8.92306 11.488 7.47306 10.5285C7.11629 10.2985 6.84573 9.95679 6.70361 9.55678C6.5615 9.15678 6.55584 8.72098 6.68751 8.31741C6.25267 9.20748 6.17776 10.2309 6.47836 11.1748C6.77896 12.1187 7.43192 12.9104 8.30138 13.3851C9.17084 13.8598 10.1899 13.981 11.1464 13.7234C12.1029 13.4659 12.9234 12.8495 13.437 12.0024C13.8286 11.0291 13.6697 9.80629 12.5453 9.32185Z" fill="#003478"/>
<path d="M4.26582 3.78596L2.10156 6.97073L2.61804 7.32171L4.78229 4.13694L4.26582 3.78596Z" fill="#231F20"/>
<path d="M5.06612 4.31896L2.90234 7.50406L3.41887 7.85496L5.58265 4.66986L5.06612 4.31896Z" fill="#231F20"/>
<path d="M5.88496 4.85252L3.7207 8.03729L4.23718 8.38827L6.40144 5.2035L5.88496 4.85252Z" fill="#231F20"/>
<path d="M14.3917 4.85849L13.873 5.20627L14.8523 6.66666L15.371 6.31889L14.3917 4.85849Z" fill="#231F20"/>
<path d="M15.5362 6.59574L15.0176 6.94351L15.9969 8.40391L16.5155 8.05613L15.5362 6.59574Z" fill="#231F20"/>
<path d="M15.1866 4.31524L14.668 4.66299L16.8124 7.86118L17.331 7.51342L15.1866 4.31524Z" fill="#231F20"/>
<path d="M15.9877 3.75622L15.4688 4.10403L16.4676 5.59429L16.9865 5.24648L15.9877 3.75622Z" fill="#231F20"/>
<path d="M17.1439 5.51574L16.625 5.86356L17.605 7.32565L18.1239 6.97784L17.1439 5.51574Z" fill="#231F20"/>
<path d="M2.65731 12.7045L2.13867 13.0522L4.24605 16.195L4.76468 15.8472L2.65731 12.7045Z" fill="#231F20"/>
<path d="M4.2667 11.6296L3.74805 11.9773L5.85531 15.1201L6.37396 14.7724L4.2667 11.6296Z" fill="#231F20"/>
<path d="M3.43662 12.1146L2.91797 12.4623L3.91668 13.9518L4.43533 13.6041L3.43662 12.1146Z" fill="#231F20"/>
<path d="M4.59289 13.874L4.07422 14.2217L5.05399 15.6831L5.57265 15.3354L4.59289 13.874Z" fill="#231F20"/>
<path d="M13.8262 14.8001L14.3429 15.1507L15.3429 13.6829L14.8218 13.3396L13.8262 14.8001Z" fill="#231F20"/>
<path d="M16.5073 11.9673L15.9911 11.6167L15.0039 13.0684L15.525 13.4117L16.5073 11.9673Z" fill="#231F20"/>
<path d="M17.3072 12.5007L16.7911 12.1496L15.8066 13.5968L16.3277 13.9401L17.3072 12.5007Z" fill="#231F20"/>
<path d="M14.625 15.3339L15.1411 15.6845L16.1411 14.2122L15.62 13.8689L14.625 15.3339Z" fill="#231F20"/>
<path d="M18.1289 13.034L17.6122 12.6835L16.625 14.1346L17.1461 14.4779L18.1289 13.034Z" fill="#231F20"/>
<path d="M15.4453 15.8673L15.9615 16.2179L16.9614 14.7495L16.4403 14.4062L15.4453 15.8673Z" fill="#231F20"/>
</g>
<path d="M19.7214 10.0001C19.7214 4.63067 15.3686 0.277886 9.99913 0.277886C4.6297 0.277886 0.27691 4.63067 0.27691 10.0001C0.27691 15.3695 4.6297 19.7223 9.99913 19.7223C15.3686 19.7223 19.7214 15.3695 19.7214 10.0001Z" stroke="black" stroke-opacity="0.3" stroke-width="0.555556"/>
</g>
<defs>
<clipPath id="clip0_2638_7987">
<rect width="20" height="20" fill="white"/>
</clipPath>
</defs>
</svg>
