<svg width="32" height="32" viewBox="0 0 32 32" fill="none" xmlns="http://www.w3.org/2000/svg">
<path fill-rule="evenodd" clip-rule="evenodd" d="M26.6667 8.99969L5.33594 8.9997L5.33594 6.9997L26.6667 6.99969V8.99969Z" fill="white"/>
<path fill-rule="evenodd" clip-rule="evenodd" d="M26.6667 17.0007L5.33594 17.0007L5.33594 15.0007L26.6667 15.0007V17.0007Z" fill="white"/>
<path fill-rule="evenodd" clip-rule="evenodd" d="M26.6667 25.001L5.33594 25.001L5.33594 23.001L26.6667 23.001V25.001Z" fill="white"/>
<path d="M26.6667 9.74969H27.4167V8.99969V6.99969V6.24969L26.6667 6.24969L5.33594 6.2497H4.58594L4.58594 6.99969L4.58594 8.9997L4.58594 9.7497H5.33594L26.6667 9.74969ZM26.6667 17.7507H27.4167V17.0007V15.0007V14.2507H26.6667L5.33594 14.2507H4.58594L4.58594 15.0007L4.58594 17.0007L4.58594 17.7507H5.33594L26.6667 17.7507ZM26.6667 25.751H27.4167V25.001V23.001V22.251H26.6667L5.33594 22.251H4.58594L4.58594 23.001L4.58594 25.001L4.58594 25.751H5.33594L26.6667 25.751Z" stroke="black" stroke-opacity="0.3" stroke-width="1.5"/>
</svg>
