<svg width="32" height="32" viewBox="0 0 32 32" fill="none" xmlns="http://www.w3.org/2000/svg">
<g id="alert/ic_notification_fill">
<g id="icon">
<path d="M6.75916 12.1997C6.75916 7.08206 10.8894 2.93335 15.9843 2.93335C21.0792 2.93335 25.2094 7.08206 25.2094 12.1997V17.6852L26.8323 20.3702C27.6379 21.7031 26.6781 23.2667 25.1206 23.2667H6.86246C5.30852 23.2667 4.3482 21.7101 5.14673 20.377L6.75916 17.6852V12.1997Z" fill="white"/>
<path d="M16.0002 28.9333C18.5356 28.9333 20.6302 27.0463 20.9562 24.6H11.0443C11.3702 27.0463 13.4648 28.9333 16.0002 28.9333Z" fill="white"/>
<path d="M21.6996 24.6991L21.7905 24.0167H25.1206C27.2087 24.0167 28.6092 21.8601 27.4741 19.9822L25.9594 17.4761V12.1997C25.9594 6.671 21.4965 2.18335 15.9843 2.18335C10.472 2.18335 6.00916 6.671 6.00916 12.1997V17.4777L4.50333 19.9916C3.37821 21.8699 4.77939 24.0167 6.86246 24.0167H10.2099L10.3008 24.6991C10.6758 27.513 13.0839 29.6833 16.0002 29.6833C18.9165 29.6833 21.3247 27.513 21.6996 24.6991Z" stroke="black" stroke-opacity="0.3" stroke-width="1.5"/>
</g>
</g>
</svg>
